<svg width="180" height="110" viewBox="0 0 180 110" fill="none" xmlns="http://www.w3.org/2000/svg">
<path fill-rule="evenodd" clip-rule="evenodd" d="M13.4349 11.7154C16.5919 11.1242 15.8392 6.12777 12.4261 6.73053C11.1736 6.95182 10.1369 8.23339 10.4438 9.7694C10.6871 10.9866 11.9367 11.9961 13.4349 11.7154Z" fill="#FEFEFE"/>
<path fill-rule="evenodd" clip-rule="evenodd" d="M20.6784 11.7154C23.8354 11.1242 23.0827 6.12777 19.6696 6.73053C18.4171 6.95182 17.3804 8.23339 17.6873 9.7694C17.9306 10.9866 19.1802 11.9961 20.6784 11.7154Z" fill="#FEFEFE"/>
<path fill-rule="evenodd" clip-rule="evenodd" d="M28.0505 11.7154C31.2075 11.1242 30.4547 6.12777 27.0417 6.73053C25.7892 6.95182 24.7525 8.23339 25.0594 9.7694C25.3027 10.9866 26.5523 11.9961 28.0505 11.7154Z" fill="#FEFEFE"/>
<path fill-rule="evenodd" clip-rule="evenodd" d="M97.3119 81.2686C100.469 80.6774 99.7161 75.681 96.3031 76.2837C95.0506 76.505 94.0139 77.7866 94.3208 79.3226C94.5641 80.5398 95.8137 81.5493 97.3119 81.2686Z" fill="#FEFEFE"/>
<path fill-rule="evenodd" clip-rule="evenodd" d="M34.3848 102.638C36.0818 102.131 54.5417 102.525 57.9808 102.525C59.6298 102.525 74.6491 102.346 75.5318 102.668C77.3316 103.323 76.8734 105.68 75.4527 106.092C74.6384 106.328 34.9231 106.375 34.0542 106.045C32.7339 105.543 32.2556 103.275 34.3846 102.639L34.3848 102.638ZM43.7075 87.9043L66.0011 87.9495L67.2979 98.8935L42.3222 98.8575L43.7077 87.9045L43.7075 87.9043ZM9.67033 84.2557C2.58642 84.2557 3.76762 77.3854 3.76762 73.2858L105.884 73.3577C105.884 75.8009 106.26 79.3203 105.294 81.2646C104.368 83.1267 102.627 84.2556 99.9813 84.2556H9.67014L9.67033 84.2557ZM3.76762 18.4739L4.34627 18.4256H106.094L105.884 18.4739L105.7 69.6185L3.76838 69.5739L3.76762 18.4739ZM3.76762 14.6891C3.76762 12.153 3.3579 8.74185 4.36156 6.78414C5.2861 4.98048 6.87702 3.80773 9.67033 3.80773H99.7842C102.662 3.80773 104.412 4.87951 105.361 6.93953C106.281 8.93766 105.884 12.185 105.885 14.7035L3.76762 14.6891ZM69.726 87.9378C73.3084 87.6684 87.7359 87.9031 92.4884 87.9031C98.6464 87.9031 106.481 89.3261 109.057 81.6983C110.017 78.8562 109.542 63.5998 109.542 59.3493V13.6819C109.542 9.30437 109.929 6.95562 107.769 3.89318C106.383 1.92724 103.911 0.183923 100.18 0.138899C85.1087 -0.0425409 69.9118 0.140815 54.8259 0.140815C39.7396 0.140815 24.3188 -0.176273 9.27495 0.141198C5.55498 0.219751 3.07144 2.09354 1.71749 4.12693C-0.297476 7.15315 0.110333 9.62146 0.110333 13.8794V59.5468C0.110333 63.7678 -0.359966 79.0534 0.644077 81.848C1.61066 84.5383 3.79743 86.6624 6.44761 87.4734C10.0172 88.5657 33.7045 87.4816 39.9265 87.9368C40.0093 89.2746 39.4115 92.7121 39.2074 94.3206C38.5049 99.8594 39.0106 98.9219 36.4888 98.8952C33.8795 98.8679 32.423 98.9575 30.859 100.557C29.6625 101.781 28.8523 103.768 29.5534 106.042C30.9396 110.538 35.3099 109.859 40.4314 109.859H69.4178C73.3361 109.859 78.6456 110.8 80.1039 106.067C80.8395 103.679 79.9159 101.673 78.6926 100.462C77.1499 98.9343 75.6578 98.859 72.9644 98.8972C70.8934 98.9265 71.0247 99.2545 70.83 97.2966C70.6131 95.1161 69.6345 89.3401 69.7262 87.9376L69.726 87.9378Z" fill="#FEFEFE"/>
<path fill-rule="evenodd" clip-rule="evenodd" d="M30.0395 32.4417C30.0395 32.0962 29.9736 31.9531 30.3351 31.9531H79.3194C79.7721 31.9531 79.623 32.471 79.6171 32.9641C79.6116 33.4188 79.6154 33.8756 79.6154 34.3304L79.6162 64.0284C79.6196 67.261 77.6727 69.5477 74.5048 69.5477H35.1499C32.1475 69.5477 30.0397 67.3167 30.0397 64.3424V32.4415L30.0395 32.4417ZM34.3056 18.3436C35.4058 18.1706 69.3783 18.289 72.3066 18.289C75.0706 18.289 76.7372 18.1815 78.2712 19.8486C79.8443 21.558 79.6154 23.3756 79.6154 26.1455L79.6284 28.9928C79.6121 29.4237 79.6425 29.4465 79.2242 29.4808C78.1688 29.567 76.5654 29.4687 75.4467 29.4687H33.5798C33.091 29.4687 30.1845 29.635 30.0538 29.2696C29.8505 28.7014 30.0532 22.491 30.2445 21.8536C30.8092 19.9706 32.2691 18.6638 34.3056 18.3438V18.3436ZM34.1401 15.8594C30.4257 16.4568 27.6284 19.1502 27.5752 23.2068C27.4575 32.1803 27.5749 41.8514 27.5749 50.9106C27.5749 55.492 27.4698 60.1967 27.5777 64.7628C27.6687 68.6148 30.6311 71.6148 34.2292 71.9782C35.8016 72.1369 59.5699 72.0173 61.84 72.0173C64.1661 72.0173 74.1572 72.1401 75.6025 71.9573C79.1804 71.5052 82.0336 68.5207 82.08 64.5526C82.1851 55.5247 82.0804 45.9448 82.0804 36.8491C82.0804 32.2878 82.2113 27.5326 82.0752 22.9957C81.9602 19.1602 78.9639 16.1993 75.4104 15.8295C74.0014 15.6829 49.9409 15.8012 47.8147 15.8012C45.7124 15.8012 35.3093 15.6713 34.1403 15.8594H34.1401Z" fill="#FEFEFE"/>
<path fill-rule="evenodd" clip-rule="evenodd" d="M37.5455 38.8612L37.6619 38.8531H71.9928L72.109 38.8612L72.0973 46.6228L37.5429 46.6127L37.5455 38.8613V38.8612ZM35.0683 37.8984V47.5526C35.0683 48.6363 35.4708 49.1053 36.6153 49.1053H73.0394C74.1402 49.1053 74.5868 48.6639 74.5868 47.5526V37.8984C74.5868 36.7904 74.1352 36.3564 73.0394 36.3564H36.6153C35.5101 36.3564 35.0683 36.7952 35.0683 37.8984Z" fill="#FEFEFE"/>
<path fill-rule="evenodd" clip-rule="evenodd" d="M66.0538 55.3068L72.1113 55.3135L72.0851 62.1421L66.0444 62.103L66.0538 55.307V55.3068ZM64.5525 52.8697C63.648 53.1053 63.5653 53.7357 63.571 54.7931C63.5832 57.092 63.4374 61.6612 63.5744 63.4051C63.7042 65.057 65.7983 64.6297 68.0156 64.6297C75.4062 64.6297 74.587 65.6258 74.587 59.8303C74.587 58.0167 74.6988 55.825 74.5841 54.0583C74.4758 52.3896 72.4293 52.8208 70.2136 52.8208C69.1721 52.8208 65.2278 52.6938 64.5527 52.8697H64.5525Z" fill="#FEFEFE"/>
<path fill-rule="evenodd" clip-rule="evenodd" d="M51.9893 55.303H57.6654C57.9788 55.5214 57.8112 54.9767 57.9037 55.7301L57.8592 62.1722L51.7696 62.1406L51.7669 55.6326C51.7932 55.0198 51.7292 55.4847 51.9893 55.3028V55.303ZM50.3139 52.8665C49.3718 53.096 49.3082 53.7214 49.3126 54.687C49.3246 57.3673 49.2122 60.8292 49.3128 63.2996C49.3884 65.16 51.8813 64.6296 53.6762 64.6296C61.0863 64.6296 60.341 65.6581 60.341 59.9352C60.341 51.9704 61.1505 52.8207 55.9789 52.8207C54.8854 52.8207 51.0606 52.6845 50.3141 52.8663L50.3139 52.8665Z" fill="#FEFEFE"/>
<path fill-rule="evenodd" clip-rule="evenodd" d="M37.5576 55.3023L43.6113 55.3458L43.592 62.1378L37.5446 62.1321L37.5576 55.3023ZM35.0683 54.3737V63.1883C35.0683 64.245 35.59 64.6297 36.6153 64.6297H44.57C45.6343 64.6297 46.083 64.1839 46.083 63.0833V54.3735C46.083 53.1766 45.5542 52.8208 44.4653 52.8208H36.6153C35.4685 52.8208 35.0683 53.271 35.0683 54.3735V54.3737Z" fill="#FEFEFE"/>
<path fill-rule="evenodd" clip-rule="evenodd" d="M39.9553 24.3617C40.6221 27.5521 45.5334 26.6211 44.9339 23.3606C44.3243 20.0447 39.2479 20.9758 39.9553 24.3617Z" fill="#FEFEFE"/>
<path fill-rule="evenodd" clip-rule="evenodd" d="M33.3857 24.3617C33.6289 25.5789 34.8785 26.5884 36.3768 26.3077C39.5338 25.7164 38.781 20.7201 35.3679 21.3228C34.1155 21.5439 33.0788 22.8257 33.3857 24.3617Z" fill="#FEFEFE"/>
<path fill-rule="evenodd" clip-rule="evenodd" d="M48.2531 21.4139C44.9312 22.5527 46.7285 27.2885 49.7999 26.2409C50.8855 25.8705 51.8846 24.5796 51.4512 23.1262C51.1057 21.9674 49.8293 20.8734 48.2531 21.4139Z" fill="#FEFEFE"/>
<path fill-rule="evenodd" clip-rule="evenodd" d="M57.6654 55.3031C57.9046 56.1128 57.7598 60.8342 57.7449 62.0437H51.8949C51.8949 60.8285 51.7489 56.1208 51.9893 55.3031C51.729 55.4849 51.7932 55.0201 51.7669 55.6328L51.7696 62.1409L57.8592 62.1725L57.9037 55.7303C57.8112 54.977 57.9788 55.5215 57.6654 55.3033V55.3031Z" fill="#FEFEFE"/>
<path fill-rule="evenodd" clip-rule="evenodd" d="M161.983 94.559C162.191 97.012 162.096 100.712 162.029 103.239C161.954 106.069 160.307 107.32 157.491 107.333L122.967 107.332C120.155 107.299 118.664 105.881 118.627 103.039C118.601 101.099 118.525 98.683 118.577 96.5404H118.588V96.1494C118.605 95.5924 118.633 95.0575 118.674 94.5592H161.984L161.983 94.559ZM116.074 39.374C116.073 34.9075 116.605 32.5885 119.851 31.1036C122.011 30.116 128.608 30.5386 131.455 30.5386C139.54 30.5386 147.624 30.54 155.709 30.5386C167.379 30.5365 163.929 37.4197 164.625 45.8544C171.162 46.3957 178.345 44.3761 179.704 48.5174C180.048 49.5687 180.126 82.6549 179.756 84.0531C178.623 88.3352 171.256 86.4484 164.619 86.8904C164.371 90.1766 164.583 94.3151 164.583 97.694C164.583 101.233 165.117 104.748 163.316 107.298C161.515 109.849 159.149 109.891 155.117 109.891C144.638 109.891 132.72 110.138 122.575 109.888C119.333 109.809 117.097 107.87 116.346 105.337C116.166 104.731 116.074 103.913 116.032 102.985V99.377L116.074 39.3742L116.074 39.374ZM118.587 66.3972V77.509C119.541 79.387 120.619 82.131 121.596 83.4134C122.396 82.8353 123.839 78.408 128.659 79.2891C130.114 79.5551 130.567 80.2663 131.381 80.4533L131.385 66.4111L118.587 66.3972ZM118.587 83.253V91.9684L122.839 91.9694L118.803 83.686C118.73 83.5423 118.658 83.3979 118.587 83.253ZM139.965 35.7716C138.262 36.4487 139.204 38.6519 140.812 38.092C142.133 37.6322 141.504 35.1599 139.965 35.7716ZM157.782 35.8341C157.739 35.8534 156.503 36.0489 157.047 37.4364C157.292 38.0617 158.031 38.3658 158.737 38.0727C160.079 37.5151 159.393 35.1169 157.782 35.8339V35.8341ZM141.606 53.4996L144.1 53.5835L144.158 52.8177L144.148 51.0258L141.599 51.0581L141.606 53.4996ZM146.717 53.515L147.426 53.5839L148.413 53.5724L149.219 53.563L149.273 51.0405L146.709 51.0499L146.717 53.5151V53.515ZM136.509 52.8172L136.546 53.5732L139.039 53.5477L139.061 51.1183L138.359 51.0076L136.511 51.026L136.509 52.8174V52.8172ZM136.508 76.6103H139.059L139.056 74.0477H136.508L136.508 76.6103ZM141.599 76.6103L154.381 76.6091L154.38 74.0605L141.604 74.0471L141.599 76.6103ZM125.599 73.9644C123.05 74.2012 123.517 71.8683 124.59 71.5802C126.098 71.1755 126.791 72.6607 125.599 73.9644ZM123.815 69.1896C118.896 70.9799 121.57 77.925 126.198 76.4204C130.961 74.8719 128.595 67.4503 123.815 69.1896ZM156.953 68.9204L174.737 68.94L174.81 66.4357L156.941 66.3868L156.953 68.9204ZM156.935 63.793L174.737 63.817L174.772 61.255L157.026 61.2402L156.935 63.793ZM136.504 81.5773C137.293 81.8839 152.942 81.9 154.328 81.6459L154.387 79.2671L136.536 79.1792L136.504 81.5773H136.504ZM123.758 99.6525L126.271 99.7251L126.269 102.209L123.729 102.228L123.758 99.6525ZM123.135 97.1999C122.18 97.4465 121.453 98.1027 121.253 99.1283C121.125 99.7862 121.134 102.306 121.307 102.935C121.844 104.884 124.802 105.247 126.974 104.662C127.959 104.397 128.548 103.757 128.759 102.736C128.887 102.116 128.887 99.5824 128.734 98.9806C128.26 97.1114 125.38 96.6201 123.135 97.1997V97.1999ZM154.399 99.6847L156.92 99.6621L156.915 102.237L154.382 102.171L154.399 99.6849L154.399 99.6847ZM153.722 97.2177C152.751 97.4996 152.085 98.1332 151.887 99.1697C151.556 100.901 151.417 104.188 153.835 104.7C154.52 104.846 156.909 104.84 157.55 104.678C159.603 104.16 159.925 101.145 159.367 98.9691C158.853 96.9662 155.77 96.623 153.721 97.2175L153.722 97.2177ZM136.518 99.6621L144.173 99.6623L144.149 102.228H136.532L136.518 99.6623V99.6621ZM135.938 97.1886C134.454 97.5678 133.965 98.4709 133.941 100.258C133.916 102.17 133.821 103.494 135.096 104.326C136.093 104.977 143.345 105.03 144.74 104.689C147.548 104.004 147.205 98.5756 145.601 97.5429C144.484 96.8238 136.579 97.025 135.938 97.1886ZM159.535 74.0441L172.245 74.0525L172.245 79.1761L159.463 79.1585L159.535 74.0441H159.535ZM156.927 81.6927L174.784 81.7385L174.791 71.51L157 71.4897L156.927 81.6929V81.6927ZM139.096 63.8177L150.976 63.8131L151.825 63.8411L151.825 68.9191L151.026 68.9415H139.058L139.096 63.8177ZM136.508 71.488L154.381 71.4872L154.379 61.2645L136.528 61.2532L136.508 71.488H136.508ZM139.074 86.8602L162.022 86.8772L162.001 91.943C159.221 92.0817 140.591 92.2689 139.058 91.8546L139.074 86.86V86.8602ZM136.466 88.4916C136.421 88.3898 135.629 87.1474 135.49 86.8785L136.519 86.9071L136.466 88.4918V88.4916ZM125.758 91.9261C125.288 90.9034 122.904 86.7925 123.173 86.0267C123.268 85.7539 124.669 83.473 124.877 83.1948C125.551 82.2941 126.375 81.6339 127.909 81.7816C130.214 82.0036 131.11 84.7043 132.211 86.4576C132.977 87.6781 135.001 90.7815 135.411 91.9696L125.758 91.9261ZM177.308 58.6872C177.483 62.5388 177.336 66.7219 177.336 70.6097C177.336 74.5205 177.45 78.5956 177.348 82.4843C177.318 83.6188 177.204 84.1621 176.031 84.2949L137.764 84.3049C135.341 84.306 133.962 84.9003 133.938 82.2836C133.867 74.6464 133.686 66.2688 133.971 58.6874H177.308L177.308 58.6872ZM133.948 50.2471C133.948 48.787 134.369 48.459 135.793 48.459H175.427C176.965 48.459 177.346 48.6966 177.346 50.2471L177.301 56.1243L134.012 56.127L133.948 50.2471ZM118.736 43.3298L162.018 43.3561L161.983 45.8696C156.49 46.1537 144.044 45.8974 137.765 45.8962C132.498 45.8953 131.386 46.4013 131.391 51.8287C131.394 55.2801 131.7 60.5323 131.344 63.8147L118.633 63.8014L118.736 43.3298ZM145.507 40.7134C147.306 37.1906 146.389 37.1582 146.747 33.1514C149.244 32.8579 155.62 32.959 158.272 33.1102C162.267 33.338 162.189 36.9417 162.001 40.7667L145.507 40.7134ZM118.655 40.74C118.472 36.8083 118.361 33.2577 122.574 33.1025C125.425 32.9975 131.248 32.8389 133.91 33.1512C134.274 37.1471 133.339 37.1979 135.149 40.7638L118.655 40.74ZM144.064 33.1002C144.68 36.6976 144.122 40.7339 140.329 40.7567C136.582 40.7791 135.98 36.6736 136.582 33.1002H144.064Z" fill="#FEFEFE"/>
</svg>
