<svg width="115" height="115" viewBox="0 0 115 115" fill="none" xmlns="http://www.w3.org/2000/svg">
<path fill-rule="evenodd" clip-rule="evenodd" d="M51.9727 103.899L59.3683 103.821C59.5939 105.036 59.6599 110.331 59.2762 111.331L52.0306 111.346C51.806 110.432 51.8358 104.938 51.9727 103.899ZM44.5338 103.914L48.2064 103.88L48.2372 111.295L44.626 111.315L44.5338 103.914V103.914ZM37.1151 103.933L40.7952 103.883L40.831 111.285L37.2072 111.315L37.1156 103.934L37.1151 103.933ZM73.3805 111.35L63.1336 111.294C62.8526 109.75 62.9151 105.471 63.0858 103.848L74.2668 103.907L74.3066 110.246C74.3051 111.213 74.3675 111.35 73.3805 111.35ZM66.7659 92.7571C67.9781 92.5321 73.2853 92.4662 74.2784 92.8503L74.2935 100.092C73.38 100.317 67.8839 100.287 66.844 100.15L66.7659 92.7571ZM59.3865 92.7335L63.0037 92.7098L63.0974 100.096L59.4388 100.147L59.3865 92.734V92.7335ZM51.9788 92.737L55.5864 92.7093L55.6912 100.102L52.0261 100.146L51.9783 92.737H51.9788ZM37.1156 99.6043L37.1367 92.8487C38.5765 92.6152 46.4671 92.6736 48.2231 92.8024L48.2059 100.112L39.4784 100.155C38.5367 100.16 37.1156 100.468 37.1156 99.6043ZM96.4591 94.5542L96.4853 51.9839C98.3637 51.782 99.4449 52.1001 101.022 51.2288C102.649 50.3292 102.642 49.5686 103.616 48.4772C104.61 59.06 103.583 81.909 103.944 94.5301C107.355 94.9539 111.497 93.6884 111.276 95.7488C111.219 96.2799 105.208 105.095 104.369 106.334C103.708 107.311 101.675 111.068 100.438 111.197C98.829 111.365 97.7231 108.846 96.3186 106.745C95.1105 104.939 93.9306 103.205 92.785 101.461C88.8848 95.5253 87.1952 94.5709 92.0352 94.5885C93.4759 94.5935 95.032 94.6428 96.4591 94.5527V94.5542ZM44.5333 81.6417L48.208 81.603L48.2367 89.0345L44.629 89.0542L44.5333 81.6417ZM37.1141 81.6644L40.7962 81.606L40.83 89.025L37.2092 89.0532L37.1141 81.6644ZM63.1054 81.6191L74.0407 81.602L74.2325 83.3573C74.2275 83.9609 74.2255 84.5629 74.2255 85.1665C74.2255 86.435 74.2673 87.7121 74.1917 88.9782L63.1311 89.028L63.1054 81.6186V81.6191ZM51.9732 81.6614L59.3084 81.5964L59.3759 88.9842L51.9888 89.0179L51.9732 81.6614ZM22.8773 59.3701L29.7658 59.3414C30.7387 63.8121 30.5544 65.8125 33.446 70.3431C34.8635 72.5635 36.7031 74.6607 38.6117 76.2066C39.1163 76.6153 40.4337 77.3891 40.6306 77.8809C39.3731 77.9373 37.6917 77.7832 36.5193 77.9685C34.9728 78.2136 34.6933 78.944 33.8619 79.7258C32.187 78.9164 28.3623 73.7556 26.8621 71.1012C25.5649 68.8062 22.7801 62.4046 22.8773 59.3691V59.3701ZM45.2605 33.4243C49.6361 33.1917 59.4061 33.3684 64.7657 33.378C66.0217 33.3805 66.1239 33.4882 66.7528 34.2413C68.4086 36.2221 70.1057 38.2256 71.8954 40.1365C73.5205 41.8712 75.2004 44.1108 76.3592 46.8734C78.6409 52.3146 78.5618 60.3165 76.1804 65.734C74.0714 70.5314 70.154 74.5031 64.7607 76.5555C59.3744 78.6048 50.7712 78.4376 45.6724 76.1834C40.5455 73.9167 36.754 69.8996 34.789 64.8294C32.5748 59.1164 32.956 51.0898 35.4502 45.85C36.7157 43.1916 38.5185 41.1161 40.065 39.4403L45.2605 33.4253V33.4243ZM11.23 51.704L14.8557 52.009C15.0879 54.9619 14.8099 56.0342 16.5664 57.7422C17.2936 58.4494 18.3652 58.758 18.7807 59.1411C19.2122 59.5393 19.3336 61.4179 19.5103 62.2133C21.3469 70.4911 25.933 77.9987 32.0249 83.1927C33.0824 84.0943 33.4394 83.8773 33.4349 85.5531C33.4283 88.1078 33.4465 90.6655 33.4147 93.2208C31.4367 92.7586 25.7044 87.5893 24.4736 86.3288C22.0665 83.8632 19.7793 81.1001 17.5126 77.2516C13.8033 70.9537 10.3618 60.8642 11.23 51.7035V51.704ZM3.73011 35.8381C3.73011 33.9961 4.28204 33.3911 6.17954 33.3911H29.8499C31.7851 33.3911 32.9394 33.7948 34.0639 34.8378C34.6878 35.4162 36.3723 36.9329 36.686 37.6432C35.7871 38.8498 34.9008 39.683 33.9203 41.1141C30.6415 45.8989 30.0065 49.6964 29.6908 55.5408C28.674 55.8383 23.8633 55.6521 22.4276 55.6551C18.9081 55.6627 18.5817 55.5972 18.5817 51.9788L22.1219 51.9456C22.4558 50.9126 22.2654 49.3803 22.2654 48.2577C13.5872 47.5918 10.6936 50.1495 11.2088 44.507L18.5717 44.4164L18.548 40.8951C16.5835 40.5579 12.0281 40.8091 9.79072 40.8091C3.98039 40.8091 3.73062 41.6502 3.73062 35.8391L3.73011 35.8381ZM74.6107 37.6714C74.9839 36.8896 77.4061 34.5222 78.5195 33.971C80.2931 33.092 83.2225 33.3911 85.4151 33.3911C90.3633 33.3911 95.311 33.3911 100.259 33.3911C102.037 33.3911 106.177 32.9642 107.123 33.9906C107.853 34.7824 108.024 39.3251 107.089 40.2593C105.952 41.395 95.452 40.649 92.8112 40.8513L92.8202 44.4888L100.165 44.5649C100.573 49.2585 98.9957 48.2109 89.1003 48.2109L89.1511 51.924L92.7346 51.9859C93.2362 55.4094 92.083 55.6637 89.0253 55.6551C86.7576 55.6486 83.8902 55.8122 81.6986 55.6093C81.1754 51.1417 81.6725 49.7936 79.6088 45.0451C78.3901 42.2417 76.3964 39.4459 74.6102 37.6719L74.6107 37.6714ZM31.9241 29.6222C33.025 28.2781 39.0267 23.1068 41.2404 22.6738C41.7682 23.4184 42.7028 24.2721 42.7028 25.4108C42.7028 31.1021 43.2139 30.2438 41.1815 32.5308C40.545 33.2466 40.0253 33.9956 39.2774 34.6229C38.3463 34.1401 37.1458 32.5242 36.051 31.6468C34.0916 30.0767 32.4972 30.2016 31.9241 29.6217V29.6222ZM71.975 34.5886C71.1421 33.7339 70.5116 32.9128 69.7361 32.0596C68.4217 30.6128 68.6347 31.0679 68.6433 28.6204C68.6589 24.2902 68.4816 24.5112 70.3701 21.1924C72.7777 21.1496 81.8044 27.373 83.0613 29.6438C80.0625 29.8376 78.7295 29.5386 76.3123 30.9592C73.9475 32.349 73.0995 34.269 71.975 34.5886ZM46.4565 25.9575L64.951 26.03L64.9591 29.68L46.4117 29.6675L46.4565 25.957V25.9575ZM18.0107 29.6116C20.3901 24.6451 30.4935 14.759 34.72 13.5574L38.9108 19.3222C38.6454 19.7375 38.9763 19.3983 38.4908 19.8201L35.5247 21.6635C32.9122 23.4516 28.5678 27.1822 27.0731 29.6322L18.0112 29.6116H18.0107ZM72.2761 17.5906C72.4781 16.6205 74.784 12.1781 75.3852 11.1819C78.1076 11.3319 85.754 16.986 87.872 18.7469C90.2026 20.6839 96.1716 27.0644 96.9728 29.6871L87.9889 29.6227C85.9524 26.0491 78.9083 20.8299 74.6007 18.7876C74.2059 18.6004 73.7823 18.4146 73.3523 18.2213L72.2756 17.5906H72.2761ZM50.1125 7.36416C50.3713 6.92218 50.4162 6.9242 50.9117 6.56578C53.2307 4.88898 56.1817 3.84645 59.1347 3.7347C65.9572 3.47596 71.7323 8.49528 71.7846 9.76786C71.8048 10.2577 66.0594 21.6827 65.5553 22.2399L45.4372 22.2268C44.2931 20.2938 37.4288 11.4421 37.4358 10.7731C38.3926 8.2451 41.7571 6.46963 45.0727 7.97981C47.6923 9.17335 48.6466 12.4373 50.5108 13.9677C51.2355 13.6138 52.5307 12.5843 53.2725 11.9762C53.1627 11.2111 50.5743 8.11673 50.112 7.36416H50.1125ZM111.333 35.8381C111.333 28.8152 105.242 29.6831 101.349 29.6831C100.604 27.7878 98.1547 24.4936 96.935 22.9215C92.2492 16.8813 85.8552 11.6631 78.4566 8.28889C77.2561 7.7412 75.6557 7.25341 74.4662 6.6579C73.8387 6.34378 72.323 4.77169 71.5671 4.15755C66.8329 0.31113 59.9903 -1.043 54.1603 0.840195C52.8595 1.26053 51.4173 1.88121 50.2963 2.55676C49.1789 3.2303 47.9698 4.3287 47.1011 4.78881C46.8649 4.81649 40.7504 1.41205 35.767 6.6584C33.1685 9.39384 35.5061 8.65939 32.112 10.6428C30.6108 11.5202 28.9963 12.605 27.6653 13.6133C24.6257 15.9148 21.919 18.2767 19.74 20.9175C18.5953 22.3048 17.6053 23.4757 16.4173 25.2175C15.9138 25.9555 14.0394 29.2678 13.4009 29.6841C11.2984 29.6841 5.4715 29.4284 3.87817 29.9448C1.44536 30.7331 0.00713547 32.7523 0.00713547 35.8391C0.00713547 38.6893 -0.235087 41.2465 1.90312 43.1211C3.52163 44.5402 4.89742 44.4556 7.35741 44.5135C7.7915 47.9074 7.43597 50.3514 7.42842 53.6858C7.38561 72.9305 17.4905 88.4536 33.3986 97.6551C33.5552 101.135 33.4218 104.916 33.4218 108.428C33.4218 112.229 33.3719 115.001 37.673 115.001H72.9781C75.8531 115.001 77.9485 114.188 77.9485 110.834V82.1597C77.9485 77.6538 74.786 77.9806 70.7906 77.8935C70.9557 77.3362 71.1718 77.3674 71.767 76.9456C72.1694 76.6602 72.3366 76.5212 72.7873 76.1487C76.1557 73.3639 78.7703 69.7768 80.2665 65.3993C81.2792 62.4363 81.0767 59.6319 82.0542 59.3842C82.107 59.3706 82.1604 59.3586 82.2188 59.348L92.8006 59.132L92.7085 90.8508C90.6755 91.038 89.2645 90.5865 87.6112 91.5732C86.5935 92.1807 85.5092 93.4453 85.3798 95.1956C85.2378 97.116 86.2007 98.2688 86.9993 99.4392C87.7774 100.579 88.4058 101.545 89.2468 102.8C90.7943 105.109 92.3605 107.436 93.8888 109.785C95.3915 112.095 96.6998 114.986 100.256 114.958C103.748 114.932 105.028 112.068 106.653 109.612C108.171 107.318 109.724 105.008 111.226 102.742C112.739 100.459 118.035 94.4531 112.602 91.4705C111.07 90.6293 109.641 90.9223 107.637 90.8488V55.2901C107.638 53.2967 107.552 51.6048 107.435 49.6733C107.333 47.9889 106.793 45.9708 106.873 44.4622C108.494 43.6215 108.823 43.9084 110.09 42.4491C111.614 40.6923 111.332 38.3263 111.332 35.8396L111.333 35.8381Z" fill="#00A500"/>
<path fill-rule="evenodd" clip-rule="evenodd" d="M41.5088 65.516C42.0275 66.1226 43.3841 67.6454 44.0937 67.9263L66.1752 45.9019C65.8051 45.109 64.105 43.5349 63.5385 43.2666C60.524 46.6323 50.8971 55.9158 47.0104 59.8111C45.9584 60.8657 41.9162 64.5742 41.5088 65.516Z" fill="#00A500"/>
<path fill-rule="evenodd" clip-rule="evenodd" d="M64.0007 59.724C66.2457 58.2495 67.8652 61.6696 65.8635 62.8083C63.9479 63.8981 61.8555 61.133 64.0007 59.724ZM63.5666 55.8574C56.1136 58.0854 59.7142 68.6723 66.5745 66.5238C69.0889 65.7365 71.2538 62.9321 70.3162 59.7189C69.6227 57.3429 66.9678 54.8401 63.5666 55.8569V55.8574Z" fill="#00A500"/>
<path fill-rule="evenodd" clip-rule="evenodd" d="M45.4785 44.8221C47.8473 43.5379 49.2478 46.8347 47.3841 47.9401C45.1899 49.2414 43.3776 45.9608 45.4785 44.8221ZM45.1053 40.9883C37.8628 42.8332 40.7161 53.5358 47.7627 51.7583C50.4015 51.0929 52.6218 48.2653 51.7939 44.9877C51.1272 42.3484 48.3051 40.1733 45.1053 40.9883Z" fill="#00A500"/>
</svg>
