<svg width="50" height="50" viewBox="0 0 50 50" fill="none" xmlns="http://www.w3.org/2000/svg">
<path d="M22.4841 29.1479L13.4179 23.1188V35.4489L22.4841 29.1479ZM12.194 20.8976L24.388 12.2848C24.7053 12.0581 25.068 12.1034 25.34 12.3301L37.7606 20.943C37.9873 21.079 38.1686 21.3509 38.1686 21.6683V37.0808C38.1686 37.5341 37.806 37.8967 37.3526 37.8967H12.602C12.1487 37.8967 11.786 37.5341 11.786 37.0808V21.6683C11.786 21.3509 11.922 21.1243 12.194 20.9883V20.8976ZM36.5367 23.1188L27.4252 29.1479L36.5367 35.4489V23.1188ZM34.7235 36.1741L25.5213 29.8278L25.4759 29.7825L24.932 29.4198L15.2312 36.1741H34.7235ZM25.9746 28.1506L35.9021 21.5776L24.8413 13.9167L14.0526 21.5323L23.9347 28.1052L24.4787 27.7426C24.796 27.5159 25.1586 27.5613 25.4759 27.7879L26.0199 28.1506H25.9746Z" fill="#00A500"/>
<path fill-rule="evenodd" clip-rule="evenodd" d="M50 10.0635V12.058V13.3273C50 13.8259 49.592 14.2339 49.0934 14.2339C48.5947 14.2339 48.1867 13.8259 48.1867 13.3273V12.058V10.0635V5.25839C48.1867 4.30644 47.7788 3.44515 47.1895 2.85585C46.5548 2.22121 45.6935 1.85857 44.7869 1.85857H5.25837C4.30642 1.85857 3.44513 2.26655 2.85583 2.85585C2.2212 3.49048 1.85855 4.35177 1.85855 5.25839V44.7869C1.85855 45.7389 2.26653 46.6002 2.85583 47.1895C3.49046 47.8241 4.35175 48.1868 5.25837 48.1868H44.7869C45.7389 48.1868 46.6002 47.7788 47.1895 47.1895C47.8241 46.5549 48.1867 45.6936 48.1867 44.7869V39.6192V37.9873V36.3554C48.1867 35.8568 48.5947 35.4488 49.0934 35.4488C49.592 35.4488 50 35.8568 50 36.3554V37.9873V39.6192V44.7869C50 46.2375 49.4107 47.5521 48.4587 48.5041C47.5068 49.456 46.1922 50.0453 44.7416 50.0453H5.21304C3.76245 50.0453 2.44785 49.456 1.4959 48.5041C0.543953 47.5521 -0.0453491 46.2375 -0.0453491 44.7869V5.25839C-0.0453491 3.8078 0.543953 2.4932 1.4959 1.54125C2.44785 0.589302 3.76245 0 5.21304 0H44.7416C46.1922 0 47.5068 0.589302 48.4587 1.54125C49.4107 2.4932 50 3.8078 50 5.25839V10.0635ZM49.0934 18.223C49.592 18.223 50 18.631 50 19.1296V30.7344C50 31.233 49.592 31.641 49.0934 31.641C48.5947 31.641 48.1867 31.233 48.1867 30.7344V19.1296C48.1867 18.631 48.5947 18.223 49.0934 18.223Z" fill="#00A500"/>
</svg>
