<svg width="72" height="80" viewBox="0 0 72 80" fill="none" xmlns="http://www.w3.org/2000/svg">
<path fill-rule="evenodd" clip-rule="evenodd" d="M51.1936 67.9934C51.8074 68.3572 52.585 68.818 53.6325 69.3606L53.6386 69.3626L64.8308 75.3011C64.6964 75.0091 64.5518 74.709 64.4082 74.4129C64.2231 74.032 64.0422 73.6581 63.8844 73.2994L59.5082 63.6252H59.5092C59.3879 63.3594 59.2494 63.0664 59.127 62.8077C58.6113 61.7164 58.3737 61.2142 58.5537 60.6019C58.6973 60.1138 59.0866 59.7177 59.8065 58.9841C60.1917 58.5921 60.6781 58.0959 61.2544 57.4604C61.8419 56.8126 62.4688 55.9901 63.0826 55.0938C63.7651 54.0965 64.4254 53.0184 64.9957 51.9927C68.0574 46.4857 69.386 40.0379 68.9573 33.6862C68.5367 27.4455 66.4193 21.3009 62.5851 16.2354C61.1584 14.3499 60.4 13.5961 59.0168 12.2178C58.76 11.9622 58.4819 11.6853 58.1745 11.3761C56.9126 10.108 55.1057 8.83481 53.1593 7.70612C50.9136 6.40363 48.4888 5.29818 46.501 4.61511C44.0136 3.76026 41.2602 3.20854 38.4473 3.00039C35.698 2.79728 32.8951 2.92157 30.2318 3.41064C23.3429 4.67877 17.538 7.81828 13.0708 12.1087C9.0788 15.9434 6.1556 20.6966 4.48116 25.8551C2.80672 31.0155 2.38002 36.5801 3.38509 42.0346C4.50037 48.0893 7.3811 54.0116 12.273 59.0983C12.9191 59.7703 13.73 60.513 14.6016 61.2395C15.4692 61.963 16.4045 62.6754 17.3034 63.2897C20.3995 65.4056 24.0042 67.0214 27.8222 68.0015C31.5341 68.9544 35.4482 69.306 39.2956 68.9332C40.602 68.8069 41.9428 68.5997 43.2502 68.3188C44.4999 68.05 45.7163 67.7125 46.8417 67.3104C48.8397 66.596 49.323 66.8829 51.1936 67.9904V67.9934ZM31.1812 12.1805H40.3017C40.8891 12.1805 41.423 12.4199 41.8093 12.8059C42.1955 13.1919 42.4352 13.7255 42.4352 14.3125V22.0133C42.4352 22.6004 42.1955 23.1339 41.8093 23.5199C41.423 23.9059 40.8891 24.1454 40.3017 24.1454H31.1812C30.5938 24.1454 30.0599 23.9059 29.6736 23.5199C29.2874 23.1339 29.0477 22.6004 29.0477 22.0133V14.3125C29.0477 13.7255 29.2874 13.1919 29.6736 12.8059C30.0599 12.4199 30.5938 12.1805 31.1812 12.1805ZM40.0651 14.549H31.4178V21.7758H40.0651V14.549ZM31.1893 28.5712H40.0641C40.6515 28.5712 41.1854 28.8107 41.5717 29.1967C41.9579 29.5827 42.1976 30.1162 42.1976 30.7033V59.8006C42.1976 60.3877 41.9579 60.9212 41.5717 61.3072C41.1854 61.6932 40.6515 61.9327 40.0641 61.9327H31.1893C30.6018 61.9327 30.068 61.6932 29.6817 61.3072C29.2955 60.9212 29.0558 60.3877 29.0558 59.8006V30.7033C29.0558 30.1162 29.2955 29.5827 29.6817 29.1967C30.068 28.8107 30.6018 28.5712 31.1893 28.5712ZM39.8264 30.9397H31.4259V59.5631H39.8264V30.9397ZM62.6023 60.326C62.2757 60.6716 61.9572 61.0081 61.6882 61.3516C62.4112 63.1674 63.2798 65.0156 64.1443 66.8536C64.6478 67.9257 65.1504 68.9938 65.6135 70.0295C65.9552 70.7944 66.2879 71.5391 66.6216 72.2849C66.9552 73.0306 67.2889 73.7763 67.6317 74.5422C67.7652 74.8403 67.9381 75.1738 68.116 75.5183C68.7813 76.8037 69.5215 78.2365 69.1312 79.5329L69.0594 79.7714L68.8218 79.8472C67.572 80.2483 66.7934 79.7876 65.8834 79.248C65.7085 79.1449 65.5285 79.0378 65.3465 78.9398L49.0733 70.1356L49.0601 70.1285C48.3796 69.7355 48.0278 69.8577 47.053 70.1983C46.3897 70.4297 45.4827 70.7469 44.1076 71.0693C38.9275 72.2859 33.6565 72.1768 28.797 71.1673C23.3389 70.0325 18.3974 67.76 14.6866 64.9539C10.8736 62.0691 7.67129 58.6588 5.23243 54.7048C2.90884 50.9368 1.28293 46.6807 0.48717 41.9214C-0.75855 34.4723 0.414368 26.9807 3.54586 20.437C6.67229 13.9053 11.7512 8.31644 18.3256 4.65553C20.3671 3.51876 22.5522 2.53456 24.9051 1.76762C27.26 1.00068 29.7859 0.449977 32.5109 0.180183C36.6444 -0.229055 40.5494 0.0710532 44.2643 0.968345C47.9752 1.86362 51.4929 3.35405 54.855 5.32648C56.0451 6.02471 57.5759 7.12106 59.0178 8.2932C60.3818 9.40168 61.6741 10.5839 62.5345 11.5691C62.8996 11.9864 63.2494 12.3987 63.6023 12.8271C63.9572 13.2576 64.3071 13.6961 64.667 14.162C68.6004 19.2476 70.9927 25.3731 71.742 31.7107C72.4902 38.0402 71.5984 44.586 68.9654 50.5205C68.1696 52.3141 67.4042 53.753 66.5568 55.1019C65.7146 56.4428 64.7934 57.6897 63.6802 59.1084V59.1104C63.3394 59.5449 62.9643 59.941 62.6003 60.327L62.6023 60.326Z" fill="#FEFEFE"/>
</svg>
