<svg width="110" height="110" viewBox="0 0 110 110" fill="none" xmlns="http://www.w3.org/2000/svg">
<path fill-rule="evenodd" clip-rule="evenodd" d="M28.4239 95.4359L28.4523 92.0457C28.6043 91.964 31.5684 90.7906 31.6119 90.7828C32.486 91.5208 33.4252 92.296 33.9096 93.1597C33.1073 94.2463 30.122 95.4365 28.4239 95.4359ZM26.6635 77.983C29.6827 77.983 32.1308 80.4282 32.1308 83.4441C32.1308 86.46 29.6827 88.9053 26.6635 88.9053C23.6442 88.9053 21.1962 86.46 21.1962 83.4441C21.1962 80.4282 23.6442 77.983 26.6635 77.983ZM19.3572 93.1597L21.7195 90.7027C22.8325 91.1426 23.4237 91.5052 24.8089 91.9701L24.8641 95.4604C23.3374 95.5338 20.1734 94.2041 19.3572 93.1597ZM35.5058 85.1192L35.5108 89.4903C34.9635 89.1806 34.7119 88.7829 34.1328 88.4098L35.2491 85.4985C35.3805 85.2443 35.3956 85.2577 35.5052 85.1197L35.5058 85.1192ZM14.4523 85.0986L17.9442 85.0691C18.4119 86.5023 18.7671 87.0795 19.1657 88.1512L16.804 90.6115C15.7189 89.7506 14.3643 86.5751 14.4523 85.0986ZM48.821 85.112L60.2817 85.0602L60.3319 96.5832C59.4733 96.0499 58.1744 94.5789 57.4613 93.8671L48.8216 85.1114L48.821 85.112ZM14.4706 81.5088C14.474 80.297 14.8798 79.252 15.2891 78.3183L16.2517 76.5153C16.583 76.0766 16.4465 76.2489 16.7539 76.0304C17.6096 76.4925 18.4019 77.4541 19.134 78.3189C19.1279 78.3528 17.9481 81.3331 17.8696 81.4804L14.4706 81.5088ZM35.4729 77.0509L35.4674 81.4738L34.1317 78.2855L35.4729 77.0503V77.0509ZM28.4707 71.1081C30.4015 71.181 32.7978 72.311 33.8946 73.3098C33.6062 74.0767 32.2449 75.259 31.6124 75.7679C30.9549 75.6739 29.4461 74.8653 28.4172 74.61L28.4707 71.1087V71.1081ZM19.306 73.2492C20.841 72.4573 22.7339 70.9619 24.8618 71.1454L24.8568 74.5544C24.2038 74.8208 22.0836 75.7217 21.513 75.7963C21.513 75.7963 19.7002 74.1907 19.306 73.2486V73.2492ZM3.58227 81.2869C3.58227 77.676 7.68941 79.8732 8.86806 75.0989C9.09688 74.1718 9.06181 73.1741 8.83743 72.3438C8.65315 71.6626 8.12925 70.9413 8.06077 70.3167C7.90933 68.9314 9.6592 67.6785 10.2939 67.0439C10.996 66.3427 12.3021 64.5152 13.7541 64.7444C15.3225 64.9918 15.7768 66.2198 18.4731 65.5246C23.294 64.2817 21.0331 60.2575 24.5551 60.2575C32.648 60.2575 29.6649 60.3576 31.7299 63.3557C32.9603 65.1414 33.4603 64.8116 35.4791 65.7026L35.4852 69.9714C34.2609 69.4792 33.3311 68.7401 31.7327 68.2007C27.233 66.683 22.4717 67.2408 18.5644 69.546C4.33221 77.9424 10.7109 99.7987 27.3399 99.2081C31.8869 99.0468 33.6724 97.1788 35.5019 96.6338L35.5102 100.396C35.5102 101.759 33.6746 100.365 31.7661 103.153C29.6393 106.26 32.5656 106.323 24.7405 106.323C21.0047 106.323 23.2088 102.302 18.4731 101.058C17.569 100.82 16.6676 100.81 15.7595 101.047C14.9667 101.254 14.3971 101.747 13.7535 101.834C12.6979 101.977 12.311 101.548 11.7303 100.964C11.1808 100.411 10.82 100.069 10.329 99.579C8.9833 98.2371 7.88873 97.5108 8.07246 96.1583C8.16544 95.4754 8.69157 94.9015 8.89534 94.0028C9.10078 93.0974 9.05958 92.2626 8.84634 91.4451C7.61203 86.7047 3.58282 88.9259 3.58282 85.1837V81.288L3.58227 81.2869ZM32.0239 47.837L35.5069 48.1295L35.4501 61.9565C34.2782 61.4621 34.532 60.7019 33.8951 59.534C33.4592 58.7348 32.6758 57.9785 31.9738 57.5581L32.0239 47.837ZM24.5723 47.8653L28.4189 47.951L28.4078 56.6805L24.8897 56.6783C24.7739 53.7714 24.6675 50.7717 24.5729 47.8653H24.5723ZM28.4094 33.7425C30.8497 33.3065 33.0349 34.1496 38.3385 32.9361C42.449 31.9957 45.0708 30.2533 46.1342 30.0264L46.1447 47.9582C45.3013 47.8069 43.41 46.7019 42.3065 46.2882C38.8892 45.0057 37.1037 44.6737 33.4169 44.3823C31.9487 44.2661 29.6794 44.4963 28.3811 44.2383L28.4089 33.7425H28.4094ZM24.8173 44.2622C15.5925 45.6152 15.4021 32.5062 24.8641 33.7213L24.8173 44.2622ZM49.7057 35.5293C51.5191 35.3736 53.2121 37.0014 53.2199 38.9884C53.2272 40.9204 51.5814 42.6344 49.6979 42.4614L49.7057 35.5293ZM53.2812 24.8511C59.5719 24.5669 66.4851 24.8244 72.8443 24.8244C75.7572 24.8244 90.6775 24.4818 92.2726 24.9573L92.2242 28.3725L53.2828 28.3586L53.2817 24.8511H53.2812ZM46.2026 14.1963L53.5005 14.1974C55.4625 17.6064 56.3611 17.7638 61.329 17.7638H84.359C89.367 17.7644 89.7957 17.6482 92.0009 14.1879L99.3423 14.2302L99.2994 99.2187L63.8544 99.1464L63.8527 81.5522L46.1509 81.5194L46.2004 52.4617C46.9069 52.6964 47.2087 53.2959 48.3049 53.0985C50.5898 52.687 49.4268 48.9542 49.7402 46.1347C51.921 45.7565 53.1258 45.4757 54.4765 44.2032C55.585 43.1588 56.546 41.7096 56.7258 39.7409C57.258 33.9232 52.4611 32.707 51.3364 31.9289L95.7757 31.9178L95.783 21.2947L49.7102 21.3053L49.6634 26.0451C49.3182 25.8483 49.3433 24.9913 48.1162 24.8717C47.0929 24.7716 46.8435 25.3477 46.1503 25.5296L46.2021 14.1979L46.2026 14.1963ZM58.0369 3.70383C58.965 3.35124 76.3774 3.56368 78.9735 3.56368C90.0044 3.56368 88.7044 2.48646 88.7055 9.86182C88.7055 11.4468 89.083 13.5167 87.6215 14.0461C86.5426 14.4371 69.197 14.1918 66.5302 14.1918C55.4792 14.1918 56.8048 15.3297 56.8032 7.82083C56.8026 5.9478 56.3567 4.34115 58.0375 3.70327L58.0369 3.70383ZM92.2932 7.12901L104.07 7.11122C105.858 7.11122 106.446 7.68903 106.446 9.49144L106.447 103.92C106.446 105.691 105.825 106.323 104.047 106.323H41.4569C39.6725 106.323 39.0417 105.693 39.0417 103.92L39.0595 49.0065C40.0645 49.1127 41.8321 49.9102 42.5838 50.2845C42.8332 60.3899 42.6467 71.7427 42.5966 82.0299C42.5877 83.8612 42.3466 83.8 43.356 84.7705C44.592 85.9589 45.6631 87.0834 46.8841 88.2963L57.4729 98.8678C62.2677 103.635 59.7885 102.772 67.6442 102.772C71.3867 102.772 101.285 102.93 102.838 102.714L102.891 10.7166L92.2682 10.6654L92.2932 7.12957V7.12901ZM39.0528 28.9787C38.9153 22.9653 39.0523 16.8195 39.0406 10.7894C39.0378 9.37632 38.809 7.80638 40.1407 7.26471C40.904 6.95439 52.4232 7.02112 53.2489 7.19853L53.2583 10.5258C52.161 10.8823 47.7443 10.6699 46.2856 10.6699C40.6429 10.6699 43.1561 8.17954 42.5804 27.7146C41.8438 28.08 40.1062 28.8936 39.0528 28.9781V28.9787ZM35.483 29.8679C26.718 30.8723 20.841 28.3936 16.4766 33.1435C14.6627 35.1178 13.5353 38.6642 14.695 41.8258C15.2612 43.3696 15.8709 44.2005 16.8507 45.197C19.9012 48.2991 21.3131 45.6981 21.327 51.6025C21.3298 52.8382 21.4902 56.1411 21.3164 57.1438C21.2107 57.7527 19.6662 58.6625 19.0416 60.3776C18.398 62.145 17.5868 62.5832 15.7528 61.6868C11.9859 59.8454 9.62802 62.7117 8.06522 64.2589C6.63326 65.6764 3.66912 67.8392 4.66013 71.459C5.0159 72.7593 6.35043 74.4165 4.52095 75.3814C2.32401 76.5404 0.0173913 76.5582 0.0313101 82.0282C0.0352073 83.5615 -0.131818 86.0351 0.276837 87.3615C1.66871 91.8822 6.09043 90.1354 5.40173 93.2815C5.04429 94.9131 3.99426 95.3541 4.64065 97.8334C5.17624 99.8888 7.80411 102.003 9.61076 103.817C10.5806 104.79 11.8428 105.473 13.5932 105.417C15.4065 105.358 16.6726 103.92 18.0433 104.668C18.8356 105.1 19.2971 107.141 20.1784 108.107C22.1243 110.239 26.1012 110.136 29.5619 109.84C31.2216 109.698 32.5216 108.84 33.2426 107.963C34.2286 106.764 34.2113 105.281 35.3271 104.646C35.8632 105.468 35.4184 107.056 37.6838 108.807C39.2388 110.009 40.8239 109.867 42.9423 109.866C47.2137 109.864 51.4856 109.866 55.7576 109.866C61.6113 109.866 104.518 110.229 106.509 109.513C110.262 108.161 109.998 104.72 109.998 100.209V10.9746C109.999 8.84856 110.036 7.10176 108.853 5.61801C107.907 4.4318 106.574 3.64098 104.606 3.57147C100.49 3.42521 96.0964 3.56591 91.9497 3.56591C90.152 0.0789879 88.5758 0.0194823 83.9882 0.0194823H61.3296C59.4316 0.0194823 57.6867 -0.172938 56.159 0.629554C54.5984 1.44984 54.4409 2.13165 53.5289 3.51474C48.1067 4.08533 40.5049 2.64607 37.7985 4.53579C36.7429 5.27266 35.8649 6.48001 35.6071 7.87812C35.1411 10.404 35.7346 25.2882 35.4835 29.8674L35.483 29.8679Z" fill="#00A500"/>
<path fill-rule="evenodd" clip-rule="evenodd" d="M71.0269 39.0307C73.314 38.8238 90.7248 38.7343 92.2681 39.0863L92.2291 60.2553L70.9863 60.2314L71.0269 39.0307ZM67.4175 63.7939L95.8112 63.745L95.8007 35.5343C94.2022 35.2885 68.2242 35.3514 67.3885 35.5799L67.4175 63.7939Z" fill="#00A500"/>
<path fill-rule="evenodd" clip-rule="evenodd" d="M71.0831 92.1327C70.7274 90.6111 70.822 73.2472 71.0258 70.9387C73.3369 70.7352 90.7203 70.6406 92.2436 70.996C92.4228 74.0497 92.3438 86.3746 92.2803 90.9515C92.2642 92.1366 92.2837 92.1694 90.8717 92.1672C85.4406 92.1572 75.2638 92.378 71.0826 92.1327H71.0831ZM95.716 67.3689C91.105 67.2004 86.2134 67.3489 81.5712 67.3489C80.0864 67.3489 67.9715 67.1287 67.5912 67.5085C67.1592 67.9401 67.4314 73.3089 67.4314 74.4234C67.4314 81.0658 67.2243 89.3815 67.4515 95.6658L95.7817 95.6413L95.7155 67.3695L95.716 67.3689Z" fill="#00A500"/>
<path fill-rule="evenodd" clip-rule="evenodd" d="M78.0431 57.3329C78.5881 57.0654 91.1852 44.4936 91.6178 43.8124C91.3483 43.2957 89.9024 41.7436 89.1864 41.4099L83.5889 46.9434C82.5689 47.9605 78.9055 51.8929 78.0186 52.3567L75.8144 50.2857C75.2799 50.581 73.6503 52.2021 73.3736 52.7421L78.0431 57.3335V57.3329Z" fill="#00A500"/>
<path fill-rule="evenodd" clip-rule="evenodd" d="M91.6078 75.7214C91.375 75.1491 89.7304 73.5247 89.1864 73.2944C87.4923 74.539 79.386 83.4721 78.0002 84.2101L75.7543 82.1079L73.3998 84.4403C73.6837 85.1272 77.3165 88.6463 78.106 89.2836L91.6078 75.7214Z" fill="#00A500"/>
<path fill-rule="evenodd" clip-rule="evenodd" d="M49.7696 70.8957L63.8409 70.8962L63.7819 67.3481L49.7128 67.3576L49.7696 70.8957Z" fill="#00A500"/>
<path fill-rule="evenodd" clip-rule="evenodd" d="M49.7457 56.729L63.8671 56.6834L63.8176 53.1592L49.7034 53.1998L49.7457 56.729Z" fill="#00A500"/>
<path fill-rule="evenodd" clip-rule="evenodd" d="M49.7028 63.7714L63.8515 63.7725V60.2583L49.7028 60.2694V63.7714Z" fill="#00A500"/>
<path fill-rule="evenodd" clip-rule="evenodd" d="M49.7206 77.9548L63.871 77.878L63.8593 74.4312L49.6961 74.4946L49.7206 77.9548Z" fill="#00A500"/>
<path fill-rule="evenodd" clip-rule="evenodd" d="M60.3351 49.6295H63.8515L63.8582 46.1147H60.334L60.3351 49.6295Z" fill="#00A500"/>
<path fill-rule="evenodd" clip-rule="evenodd" d="M60.4225 42.5383H63.8415L63.783 38.9902H60.3434L60.4225 42.5383Z" fill="#00A500"/>
</svg>
