<svg width="112" height="112" viewBox="0 0 112 112" fill="none" xmlns="http://www.w3.org/2000/svg">
<path fill-rule="evenodd" clip-rule="evenodd" d="M82.123 103.359C82.123 101.36 82.5742 100.742 84.6275 100.742H105.82C107.595 100.742 108.229 101.393 108.229 103.157C108.229 106.266 108.71 108.185 105.82 108.185H84.6275C81.673 108.185 82.123 106.646 82.123 103.359ZM63.0411 108.165C63.5875 106.916 65.2202 106.928 68.0981 100.754L75.9484 100.742C77.6814 100.742 78.3822 101.415 78.3822 103.157C78.3822 106.174 78.865 108.185 75.9484 108.185L63.0411 108.165ZM41.4218 108.115C33.7437 108.417 25.5579 108.105 17.8141 108.141C15.2776 108.153 14.8642 107.596 14.876 105.18C14.8887 102.546 14.7519 88.594 14.9935 87.9879C15.768 90.4293 16.4419 93.0488 17.1806 95.684C18.3596 99.8882 18.2241 99.3901 21.0906 101.704C24.1432 104.167 22.9869 104.392 28.3146 104.392C31.6159 104.392 34.9366 104.357 38.2358 104.399C39.3488 105.95 41.2408 107.734 41.4214 108.114L41.4218 108.115ZM50.2302 82.2788C58.1318 80.9139 64.1624 86.8652 65.1676 93.1615C66.4102 100.944 60.5631 107.053 54.2328 108.037C46.587 109.226 40.3384 103.675 39.3483 97.2472C38.1016 89.1527 43.7761 83.394 50.2302 82.2788ZM82.1226 92.0715C82.1226 90.2573 82.6946 89.539 84.4002 89.539H105.82C107.732 89.539 108.229 90.23 108.229 92.0715C108.229 95.2972 108.695 97.0232 105.719 97.0232H84.6271C81.6697 97.0232 82.1226 95.2691 82.1226 92.0715ZM75.7582 97.0307C73.6539 97.0375 71.0345 97.1505 68.9875 96.9854C68.8646 95.6751 69.0452 94.3914 68.8604 92.9555C68.719 91.8576 68.2012 90.3225 68.1781 89.5629C70.3648 89.4507 72.7309 89.5465 74.9403 89.5369C77.955 89.5234 78.3986 89.8029 78.3852 92.8761C78.3742 95.4381 78.7712 97.0211 75.7577 97.0307H75.7582ZM83.39 78.4995C84.4263 78.1485 97.6662 78.3763 99.967 78.3763C101.939 78.3763 106.799 77.9005 107.773 79.0312C108.281 79.6214 108.952 84.9223 107.095 85.6567C106.215 86.0047 92.6138 85.8193 90.4809 85.8193C88.7791 85.8193 83.6017 86.3212 82.6104 85.2267C81.8271 84.362 82.1243 82.5983 82.1184 81.3868C82.1121 80.0686 82.0068 78.9677 83.3904 78.4991L83.39 78.4995ZM67.0677 85.8206C65.5675 85.8206 66.1517 85.4528 64.3388 83.51C63.6965 82.8219 62.7751 82.0371 61.708 81.3061C58.2206 78.9173 56.0806 79.1804 54.7568 78.415C60.9125 78.2153 69.3487 78.3759 75.7464 78.3759C78.4664 78.3759 78.3603 79.6613 78.3624 82.1956C78.3667 86.792 77.8906 85.821 67.0673 85.821L67.0677 85.8206ZM82.123 69.6983C82.123 67.7761 82.7119 67.1582 84.678 67.1582H105.82C107.688 67.1582 108.229 67.8244 108.229 69.6983C108.229 72.8791 108.685 74.6374 105.846 74.6374H84.6275C81.6684 74.6374 82.123 72.9602 82.123 69.6983ZM82.123 58.4113C82.123 56.5428 82.7982 55.9918 84.6275 55.9918H105.82C107.581 55.9918 108.229 56.6727 108.229 58.4113C108.229 61.463 108.713 63.4558 105.82 63.4558H84.6275C81.6478 63.4558 82.123 61.8181 82.123 58.4113ZM27.6226 100.629C27.695 99.2081 28.6778 97.8765 28.8466 96.436C28.9481 95.5692 28.0645 92.9673 27.7859 91.9883C26.9007 88.8761 26.0954 86.1123 25.2729 83.18C21.9901 71.4747 22.3732 75.829 22.3732 63.6517C22.3732 56.1267 22.3732 48.6021 22.3732 41.0771C22.3732 33.7409 22.1181 25.9422 22.3963 18.6632C24.9842 18.6632 35.6113 18.3353 37.2908 18.7834C37.3675 23.2474 37.7328 22.445 44.8654 22.445H67.2693C74.0921 22.445 74.5665 23.2756 74.6435 18.7842C76.2906 18.3399 86.9721 18.6632 89.5595 18.6632L89.5604 52.252C85.1145 52.252 81.5703 51.5353 79.3369 54.7366C78.1802 56.3945 78.3839 57.9699 78.3805 60.2255C78.3759 63.1511 78.4778 63.1582 79.6669 65.2641C78.8869 67.1628 78.3906 66.8249 78.3789 69.6958C78.3709 71.721 78.5317 73.1826 78.66 74.9778C74.452 74.1624 65.9539 74.6374 61.2134 74.6374C59.246 74.6374 54.0732 74.4062 52.4775 74.8854C49.0074 75.9274 49.648 78.4356 47.8763 78.9593C43.1775 80.3482 40.0812 82.8496 37.8427 86.4692C33.6216 93.2931 36.2482 98.9996 36.2693 100.676L27.6213 100.629H27.6226ZM24.0994 99.1329C23.2643 98.8168 21.6504 97.3834 21.3832 96.7722C21.0077 95.9143 20.5463 93.8534 20.2664 92.8601L5.92458 42.1995C6.10979 41.8367 8.87276 41.1692 9.44733 41.1641C10.7021 45.9489 12.2183 50.9149 13.5531 55.6118L24.8705 95.3498C25.153 96.6575 24.4361 97.9719 24.099 99.1325L24.0994 99.1329ZM4.78471 38.3979C4.22867 36.6164 2.64598 33.0633 5.13703 32.5917C7.57546 32.1297 8.22495 36.4042 8.27841 37.5067L4.78471 38.3979ZM41.0434 11.8511C41.0434 7.67663 45.0944 10.0406 48.8302 9.29622C51.6415 8.7359 49.7701 3.73633 53.5319 3.73633H58.3886C62.2266 3.73633 60.3013 8.71993 63.1047 9.29369C66.2742 9.94271 70.915 7.67537 70.9141 11.8511L70.8935 18.6707L41.0581 18.6564L41.0434 11.8511ZM90.683 11.1932C93.1458 11.1932 96.6968 10.5291 97.0285 12.8956C97.0992 13.3988 97.2444 50.5492 96.9898 52.2595L93.4182 52.2616C92.9888 50.5525 93.4367 22.7569 93.3125 17.2802C93.2486 14.4622 91.1923 14.9355 88.6646 14.936C83.9886 14.9368 79.3125 14.936 74.6305 14.936L74.6785 11.1928C80.0133 11.1928 85.3482 11.1928 90.683 11.1928V11.1932ZM18.504 59.5201C18.0448 55.84 14.868 49.3453 14.8807 44.706L14.8811 16.6888C14.8811 11.8271 14.3562 11.1785 18.6265 11.1928C24.8348 11.2138 31.0464 11.1936 37.285 11.1932L37.2972 14.9364C31.9455 14.9364 26.5904 14.9166 21.2396 14.9288C17.9391 14.9364 18.629 17.1218 18.629 20.115C18.629 24.3294 18.858 57.7202 18.5036 59.5201H18.504ZM10.9568 32.7787C10.1477 31.231 10.0345 30.5841 8.48803 29.6249C4.48796 27.144 -1.27665 30.5274 0.252163 36.2217C1.78476 41.9296 3.54929 47.7232 5.2149 53.6601C6.12494 56.9048 11.1647 73.1531 11.163 75.7391L11.158 103.762C11.1576 106.522 10.9467 109.95 14.5784 111.433C16.7576 112.323 32.8307 111.892 36.5908 111.892L75.951 111.928C78.3991 111.907 78.5889 111.481 80.188 110.617C80.9937 110.926 81.343 111.362 82.2291 111.637C84.114 112.223 100.263 111.924 102.592 111.924C107.064 111.924 109.609 112.089 111.343 108.88C112.176 107.341 111.977 105.488 111.979 103.56C111.981 100.667 111.688 101.006 110.675 98.9248C111.023 97.9753 111.476 97.7445 111.777 96.5625C112.075 95.3893 112.077 91.1745 111.774 90.0009C111.475 88.8425 111.023 88.5856 110.676 87.6377C111.928 85.0753 111.974 86.1123 111.976 81.9942C111.977 80.8959 112.052 79.7387 111.755 78.6752C111.489 77.7193 111.094 77.4062 110.672 76.5525C111.528 74.2502 111.976 75.8349 111.976 70.9089C111.976 66.1002 111.51 67.523 110.674 65.2654C111.849 62.8955 111.982 63.8165 111.976 60.025C111.973 57.7135 112.145 56.3776 110.964 54.6828C108.656 51.3697 105.494 52.5777 100.888 52.2419C100.321 50.054 101.393 14.0831 100.491 11.3336C99.5877 8.57827 97.4002 7.44797 93.9149 7.45385C91.5493 7.45805 74.1271 7.60181 73.3589 7.40005C72.4922 7.17222 72.0026 5.99526 69.8147 5.67664C68.4664 5.48034 66.2435 5.60518 64.7867 5.60518C63.0537 0.41772 61.8861 0.0150305 55.7658 0.0137695C53.1396 0.0133491 51.535 -0.201867 49.7183 1.18064C47.3771 2.96206 47.7639 5.36558 46.885 5.60518C44.2959 5.60518 41.6521 5.27059 39.7869 6.57071C38.2304 7.65562 39.1168 7.46982 36.5917 7.45679C30.3043 7.42401 23.1014 7.29916 17.0068 7.45679C14.6365 7.51816 12.9284 8.56566 11.9598 10.2172C9.95581 13.6337 12.1089 30.9998 10.958 32.78L10.9568 32.7787Z" fill="#00A500"/>
<path fill-rule="evenodd" clip-rule="evenodd" d="M50.3152 38.2577C51.2012 38.6301 55.818 43.5246 56.789 44.4864C57.4718 45.1631 58.9168 47.3775 60.6569 46.3813C61.3624 45.9777 63.1459 44.0118 63.8535 43.3119C66.028 41.1619 68.0476 39.1274 70.2141 36.9635C70.949 36.2296 72.9392 34.7974 72.6938 33.2636C72.5275 32.2245 70.5904 30.9643 69.9729 29.8689L82.1192 29.9252L82.1062 42.0042C80.9642 41.3527 80.2225 40.0211 79.3255 39.5032C77.7222 38.5784 76.4897 40.3052 75.8339 40.9651L59.8012 56.9487C58.985 56.6969 54.6962 52.1324 53.8324 51.2711C50.4667 47.9138 50.7239 47.4586 47.1494 51.016C45.1453 53.0101 43.2924 54.8571 41.2863 56.8508C40.2605 57.8701 39.3845 58.7478 38.3579 59.7722C37.6899 60.4384 36.2086 62.1685 35.379 62.5149C34.7897 62.1669 31.0434 58.5725 30.6924 57.7659L50.3147 38.2573L50.3152 38.2577ZM68.1082 33.6196C67.5682 34.6339 65.038 36.8706 64.0475 37.8596C62.6976 39.2081 61.3203 40.8063 59.8016 42.0408C59.0852 41.7466 56.9595 39.4322 56.1766 38.6507C51.3856 33.8689 50.8906 32.3414 48.3566 34.8882L30.5981 52.6293C24.527 58.7053 24.4458 56.9933 31.6315 64.1698C36.3892 68.9214 34.4252 68.9567 46.6636 56.7806C47.7555 55.6944 49.1951 54.0685 50.3152 53.1984C51.1364 53.5301 56.2191 58.8609 57.1797 59.8205C60.1236 62.7629 59.8921 62.1576 64.6351 57.3939C65.6849 56.3396 77.4318 44.314 78.3708 43.8697C80.7402 45.2804 82.3326 49.0605 84.5383 48.4325C85.543 48.1463 85.833 47.2438 85.833 46.1165V28.581C85.833 26.8202 85.181 26.1682 83.4169 26.1682H65.8571C63.6009 26.1682 62.4391 27.7979 64.5446 29.8933C65.4029 30.7474 67.6246 32.7306 68.1086 33.6201L68.1082 33.6196Z" fill="#00A500"/>
<path fill-rule="evenodd" clip-rule="evenodd" d="M67.1409 63.3745L63.5828 63.4014C63.3332 64.1808 63.3547 66.3527 63.547 67.1585L67.1157 67.2047L67.1615 70.8071L70.8438 70.8941L70.9032 67.2455L74.4731 67.1892C74.8005 66.2098 74.7151 64.5011 74.5442 63.4557L70.9495 63.4443L70.856 59.7394L67.2171 59.7264L67.1409 63.3745Z" fill="#00A500"/>
<path fill-rule="evenodd" clip-rule="evenodd" d="M29.7844 33.597L26.1358 33.6276L26.1215 37.3174L29.8097 37.3578L29.8164 40.9895L33.516 41.09L33.582 37.3649L37.2959 37.3447L37.2791 33.6083L33.6014 33.5982L33.5185 29.8996L29.8657 29.8857L29.7844 33.597Z" fill="#00A500"/>
<path fill-rule="evenodd" clip-rule="evenodd" d="M31.6815 74.6103L27.9723 74.6654L27.9807 78.3119L31.6685 78.3993L31.7211 82.0538L35.3945 82.063L35.4379 78.4577L39.1425 78.3438L39.1736 74.7633L35.5023 74.6124L35.4025 70.9374L31.7501 70.8949L31.6815 74.6103Z" fill="#00A500"/>
<path fill-rule="evenodd" clip-rule="evenodd" d="M61.4752 95.1303C61.8499 90.3413 56.7756 85.24 52.2544 85.9121C52.2051 86.6238 52.2216 87.3383 52.2115 88.0538C52.1946 89.2623 51.9522 89.4098 52.9228 89.633C55.3836 90.1984 57.1574 91.2803 57.6974 94.1416C57.9567 95.5161 57.5324 95.1307 61.4748 95.1307L61.4752 95.1303Z" fill="#00A500"/>
<path fill-rule="evenodd" clip-rule="evenodd" d="M55.1436 99.8826C55.3141 100.714 56.3016 102.519 56.9759 103.11C57.9836 102.651 60.0276 100.933 60.1413 99.7305L57.1918 98.0461C56.3572 98.6498 56.5129 99.1079 55.1436 99.8826Z" fill="#00A500"/>
<path fill-rule="evenodd" clip-rule="evenodd" d="M54.1094 14.8896L57.8199 14.9304L57.8089 11.2448L54.1515 11.207L54.1094 14.8896Z" fill="#00A500"/>
</svg>
