<svg width="9" height="15" viewBox="0 0 9 15" fill="none" xmlns="http://www.w3.org/2000/svg">
<path fill-rule="evenodd" clip-rule="evenodd" d="M1.8904 0.442089C2.05479 0.559397 2.21917 0.715807 2.34246 0.833115C2.42465 0.91132 2.46575 0.950423 2.50684 0.989525C2.83561 1.30235 3.12328 1.57606 3.45205 1.88888C4.10958 2.47542 4.72602 3.10106 5.34246 3.6876L8.17808 6.38568C8.42465 6.58119 8.58903 6.77671 8.71232 6.93312C8.87671 7.12863 8.99999 7.28504 8.99999 7.44145C8.99999 7.59786 8.9178 7.75427 8.71232 7.94978C8.58903 8.10619 8.38356 8.2626 8.17808 8.49722L5.34246 11.1953C4.68492 11.8209 4.06849 12.4075 3.45205 12.994C3.12328 13.3068 2.83561 13.5806 2.50684 13.8934C2.46575 13.9325 2.38355 14.0107 2.34246 14.0498C2.21917 14.1671 2.05479 14.3235 1.8904 14.4408C1.64383 14.6363 1.35616 14.8318 1.19177 14.8709C0.616431 14.9882 -0.164391 14.2453 0.0821844 13.737C0.164376 13.5414 0.821911 12.994 0.986294 12.7985C1.31506 12.4466 4.43835 9.51389 5.9178 8.1453C5.99999 8.06709 6.08218 7.98888 6.20547 7.87158C6.24657 7.83248 6.24657 7.83248 6.28766 7.79337C6.49314 7.59786 6.65753 7.44145 6.69862 7.40235C6.65753 7.36324 6.53424 7.20683 6.28766 7.01132C6.24657 6.97222 6.24657 6.97222 6.20547 6.93312C6.12328 6.85491 6.04109 6.77671 5.9178 6.6594C4.47944 5.25171 1.35616 2.31901 0.986294 2.00619C0.821911 1.84978 0.164376 1.30235 0.0821844 1.06773C-0.164391 0.559397 0.616431 -0.183552 1.19177 -0.0662441C1.35616 -0.0271415 1.64383 0.168371 1.8904 0.363884V0.442089Z" fill="#00A500"/>
</svg>
