<svg width="112" height="112" viewBox="0 0 112 112" fill="none" xmlns="http://www.w3.org/2000/svg">
<path fill-rule="evenodd" clip-rule="evenodd" d="M90.8802 13.8445C91.8956 13.8445 93.6823 13.7119 94.5046 14.063C96.5055 14.916 96.509 17.8479 94.5072 18.707C93.6753 19.0642 91.9026 18.9229 90.867 18.9229L90.8793 13.8445H90.8802ZM92.1237 4.21582C96.229 4.21582 99.9465 5.87968 102.637 8.57029C105.328 11.2609 106.992 14.9774 106.992 19.0835C106.992 23.1888 105.328 26.9061 102.637 29.5967C100.35 31.8837 97.3225 33.4282 93.9447 33.8406L94.0009 38.0099C94.3352 37.558 96.0404 36.3443 97.0575 35.7836C101.075 33.5721 107.027 34.3154 111.946 34.3145C112.256 39.8344 110.315 43.5719 106.97 46.1792C102.493 49.6684 99.7982 48.1862 93.9403 48.825L93.9324 59.6121C95.1759 58.9477 95.1803 58.3194 98.0448 57.0232C101.411 55.4998 107.763 55.9947 111.999 55.9947C111.999 58.9407 111.904 61.1574 110.55 63.6787C106.07 72.0217 98.681 69.8717 93.9342 70.5228L93.9921 90.3092C100.028 90.3198 100.316 89.7274 101.001 91.3184C101.201 91.7818 101.298 92.1276 101.467 92.5549C102.901 96.1766 106.758 106.231 107.863 108.377L111.999 108.386L111.903 111.998H54.1896L54.1878 108.386L58.3265 108.373C59.699 105.676 60.9346 102.02 62.0711 99.1797L64.7907 92.3785C65.4024 90.8174 65.2725 90.4865 66.0044 90.3215L90.3133 90.261L90.3194 77.7925C86.7117 77.0475 82.3352 78.9852 77.2146 75.0572C73.771 72.4148 72.2247 68.9537 72.2606 63.2206H80.6529C87.1444 63.2206 88.9188 66.2587 90.3177 66.873L90.3194 56.093C86.4423 55.4261 82.3949 57.2409 77.3304 53.4577C73.5726 50.6504 72.3396 47.385 72.2308 41.5404C76.6354 41.5404 82.8442 41.0446 86.4291 42.6479C87.2839 43.0305 87.8956 43.4263 88.5906 43.9028C88.9452 44.1459 89.8447 44.9673 90.3194 45.1744V33.8406C86.9346 33.4317 83.9 31.8845 81.6095 29.5941C78.9188 26.9035 77.2549 23.187 77.2549 19.0809C77.2549 14.9756 78.9188 11.2583 81.6095 8.56766C84.3001 5.87705 88.0167 4.21319 92.1229 4.21319L92.1237 4.21582ZM100.599 10.6089C98.43 8.44041 95.4331 7.09862 92.1237 7.09862C88.8144 7.09862 85.8175 8.44041 83.649 10.6089C81.4805 12.7773 80.1387 15.7742 80.1387 19.0835C80.1387 22.3928 81.4805 25.3897 83.649 27.5581C85.8175 29.7266 88.8144 31.0684 92.1237 31.0684C95.4331 31.0684 98.43 29.7266 100.599 27.5581C102.767 25.3897 104.109 22.3928 104.109 19.0835C104.109 15.7742 102.767 12.7773 100.599 10.6089ZM84.8995 101.061L88.5143 101.173L88.4976 97.5456L84.932 97.5702L84.8995 101.061ZM70.4449 101.11L74.0623 101.166L74.0474 97.5465L70.4897 97.5597L70.4458 101.111L70.4449 101.11ZM77.6762 103.846L77.7227 104.772L81.2584 104.747L81.2918 101.258L80.4125 101.139L77.6762 101.159V103.845V103.846ZM92.129 103.846L92.1685 104.772L95.7007 104.759L95.7473 101.209L94.8153 101.15L92.129 101.159V103.846ZM36.1246 31.5818L36.1746 32.5138L39.6727 32.5129L39.7508 31.5827L39.7367 28.8973H36.129L36.1237 31.5818H36.1246ZM46.9636 111.997L49.649 111.998L50.5801 111.947L50.5792 108.452L49.6498 108.371L46.9636 108.385V111.997ZM36.1255 25.2844H39.7394V21.6714H36.1255V25.2844ZM32.5116 111.998H36.122L36.1246 108.384H32.5055L32.5116 111.998ZM36.1255 39.737H39.7464L39.7394 36.1232H36.1229L36.1255 39.737ZM39.7385 111.998H43.3629L43.3515 108.384H39.7385V111.998ZM43.3629 32.4716L64.9846 32.5138L65.0399 31.5818L65.0303 28.8973L43.3532 28.9008L43.3629 32.4725V32.4716ZM19.3866 88.6261C21.7718 87.9012 22.5178 91.4597 20.4713 92.0108C17.907 92.7024 17.1198 89.315 19.3866 88.6261ZM48.2554 88.6647C50.2677 87.8652 51.5665 91.1096 49.4673 91.9626C47.319 92.8349 45.7218 89.6721 48.2554 88.6647ZM35.9746 73.1783C35.2751 73.6864 34.595 74.3613 33.4928 73.876C32.7775 73.5609 32.2694 72.5465 32.6714 71.5066C33.2163 70.0981 36.4985 69.6338 35.9746 73.1783ZM3.7578 73.1783C3.2295 69.6382 6.5134 70.0954 7.05925 71.5066C7.48575 72.6079 6.92323 73.6733 6.05881 73.9436C4.95921 74.2876 4.41686 73.661 3.7578 73.1783ZM62.6907 70.6202C64.7266 69.6988 66.0746 73.145 63.8956 73.9207C61.842 74.6526 60.1817 71.7549 62.6907 70.6202ZM7.16983 77.4424C9.26285 79.66 12.2405 83.8118 14.4072 86.362C15.6227 87.7924 15.1944 87.1913 14.674 88.8736C12.7854 94.9832 21.9456 98.7435 24.7617 92.6278C25.1909 91.6967 25.4103 90.447 25.1628 89.2632C24.7854 87.4598 23.9719 87.9512 25.2128 86.4997C27.7122 83.5775 29.9412 80.291 32.5599 77.4442C34.4397 77.6328 34.3651 77.6249 36.2808 77.4099L42.0685 84.8139C42.7784 85.7012 43.5366 86.4594 44.0974 87.4896C40.0061 98.5891 58.0079 98.002 53.2506 87.2457L59.0505 79.7987C59.6893 79.0132 60.5037 77.8575 61.075 77.2941C65.9535 78.3647 68.8355 75.6127 68.6187 71.8962C68.3949 68.0384 63.7771 65.2214 60.2089 67.7743C56.0834 70.7255 58.767 74.0129 58.1237 75.1941L50.1378 85.0421L46.9627 85.0597L39.197 75.4828C38.8153 74.7571 40.1431 73.0862 39.5226 70.7554C37.7499 64.0973 26.2238 66.321 29.6481 75.0388C29.1821 76.0085 28.4204 76.7351 27.7622 77.567C26.4958 79.1668 22.3063 84.1408 21.8666 85.1299C20.0685 85.0316 20.0913 84.8227 18.1553 85.1483C17.3796 84.498 16.8118 83.5915 16.0983 82.7113C15.412 81.8636 14.8302 81.1264 14.036 80.1356C13.226 79.1256 10.5441 75.9725 10.0843 75.0388C12.6661 68.4974 6.22818 64.6835 1.90173 68.0674C-0.966198 70.3096 -1.30319 78.3182 7.16895 77.4424H7.16983ZM28.8943 57.699C15.3497 56.724 4.63012 46.123 3.75166 32.5094H28.9013L28.8943 57.699ZM3.71041 28.8982C4.68453 15.2591 15.2918 4.67742 28.9013 3.71034L28.8986 28.8982H3.71041ZM60.0685 39.8028L65.0312 39.7291V36.1241L43.3524 36.1284V39.6668L56.1404 39.7405C55.7911 43.3727 50.6494 49.3753 47.6771 51.8245C44.1194 54.7556 38.6406 57.3374 32.5125 57.7139V3.69718C41.0557 4.26672 48.1106 8.63787 52.6038 14.7115C53.6964 16.1884 55.6253 19.4275 56.179 21.6065L43.4287 21.6776L43.3418 25.2256L65.0312 25.287L65.0004 21.6706C56.3861 21.6723 62.7407 22.8105 55.4787 12.5729C49.2295 3.763 37.756 -1.43569 26.0114 0.352783C11.857 2.50808 0.050915 14.7466 0.00177061 30.6077C-0.0903751 60.2009 37.649 72.5043 55.2611 49.1603C57.6858 45.9466 58.2624 43.8922 60.0685 39.8046V39.8028ZM62.4204 108.388C62.4844 107.454 67.3515 95.3728 68.1 93.9345L98.0948 93.9766C98.8337 95.3465 103.714 107.478 103.85 108.388H62.4212H62.4204ZM76.1466 66.8669C82.3598 66.4992 88.3765 66.8493 90.1106 73.9953C87.0601 74.3332 82.9697 74.277 80.5459 72.9466C78.7582 71.9655 76.3537 69.6058 76.1466 66.8669ZM94.172 66.837C95.3488 60.1026 102.37 58.8389 108.165 59.6972C106.262 67.5716 99.3067 66.837 94.172 66.837ZM76.1071 45.1559C81.2163 45.1559 88.2194 44.4144 90.0992 52.2958C84.308 53.1532 77.2874 51.8833 76.1071 45.1559ZM94.2124 45.127C94.4265 42.2714 96.7933 40.1135 98.6143 39.0463C100.885 37.7151 105.258 37.6738 108.177 37.9977C107.465 40.9015 105.806 42.9076 103.659 44.0827C101.218 45.4192 97.3348 45.306 94.2115 45.127H94.2124ZM88.5415 18.9247H87.0031L87.0004 21.2353L88.5283 21.2362L88.5388 22.4656L87.0004 22.4665C87.0004 22.9659 86.9364 24.4051 87.0399 24.7903L88.5415 24.7912V26.9693L90.8662 26.9869L90.8679 24.7903H95.0347L95.0733 22.4674L90.8714 22.4648L90.8776 21.2353C93.3699 21.2353 94.8284 21.5091 96.5344 20.148C99.5428 17.747 98.6134 12.9476 95.0268 11.776C94.0254 11.4487 93.0233 11.5224 91.9219 11.5224C91.0715 11.5224 89.2813 11.4241 88.5415 11.5496L88.5406 18.9229L88.5415 18.9247Z" fill="#00A500"/>
</svg>
