<svg width="132" height="105" viewBox="0 0 132 105" fill="none" xmlns="http://www.w3.org/2000/svg">
<path fill-rule="evenodd" clip-rule="evenodd" d="M19.9131 47.4909C19.9216 49.9205 19.9201 52.7084 19.9131 55.5695V77.6919C20.0561 78.302 20.3636 78.8062 21.0012 79.0727C22.3449 79.6343 61.0227 79.2905 66.0011 79.2905C71.3402 79.2905 108.977 79.7238 110.834 79.1382C111.717 78.8594 112.035 78.2201 112.142 77.4358V68.6329C112.098 60.3113 112.042 47.5284 112.142 42.124C112.142 40.1959 112.219 33.8357 112.219 33.8357L123.003 33.7955C123.003 33.7955 122.549 66.7572 123.239 71.3936L127.468 71.443C127.468 71.443 127.609 43.0995 127.486 33.3183C127.47 32.0004 127.496 30.9287 126.941 30.4332C125.471 29.1211 115.215 30.1158 112.223 29.7588C111.725 24.2698 112.838 6.27056 111.657 3.78406C110.734 1.83869 108.73 0.293348 105.708 0.160911C99.4389 -0.114014 92.3381 0.154828 85.9767 0.154828C79.3182 0.154828 72.6597 0.154828 66.0011 0.154828C53.0119 0.154828 39.4363 -0.193093 26.5213 0.154167C23.4761 0.236023 21.5041 1.63756 20.4954 3.47939C19.3683 5.53762 19.8278 9.35424 19.8278 11.8748C19.8278 15.3995 20.1312 27.4157 19.891 29.9593C19.891 29.9593 11.7596 29.9523 8.68373 30.0153C6.28784 30.0645 4.60907 30.189 4.44124 31.7583C4.27201 33.3421 4.27708 46.6639 4.56077 47.6576L8.74769 47.6693L8.99881 33.8031L9.55289 33.8031V33.8022H15.0403L19.8736 33.8015L19.8737 33.8022H19.913V47.4909H19.9131ZM44.0043 33.7004H52.9454V41.7422H44.0043V33.7004ZM24.1996 51.6007L32.8222 51.5679C33.2079 52.5458 33.1693 65.8449 32.9337 67.4436L24.2444 67.4338L24.1997 51.6007H24.1996ZM50.576 65.408L37.4344 65.4126L37.4398 53.5979L54.9778 53.6293L54.9417 57.5184C49.417 57.9009 50.7831 57.4899 50.576 65.408ZM79.204 49.9463L79.1687 26.2014C79.3126 23.0829 83.1362 23.3952 83.5408 25.5763L83.5919 49.3215C83.4509 52.4727 79.621 52.0552 79.204 49.9463ZM46.29 45.6719L50.572 45.6796L50.5945 49.6154L46.2003 49.5521L46.29 45.6719ZM57.2238 33.3108C59.8525 32.5908 73.092 28.6984 74.8091 28.7348L74.7112 46.9381L57.2035 42.2063L57.2238 33.3108ZM41.7998 46.0964V49.553L37.4643 49.5965C36.9654 48.4294 36.9297 47.9096 35.5734 47.7154L24.3071 47.6492L24.1919 16.0397L107.736 15.9772C108.074 18.4611 107.731 67.3785 107.816 73.2641C107.856 76.0717 108.797 75.3531 99.5317 75.3531H35.8C32.679 75.3531 27.9985 75.6129 25.0767 75.3764C23.9176 75.2826 24.1626 75.1072 24.1714 73.9213C24.2004 69.9875 23.5098 71.6342 34.6251 71.3891C37.9397 71.3159 36.6163 69.6257 37.9402 69.3966C42.22 69.3966 46.5024 69.3831 50.7819 69.3976C57.2278 69.4193 54.2235 67.106 55.0825 61.5006C60.1724 61.4957 59.4035 60.7734 59.4035 55.5075C59.4035 50.3148 60.1131 49.6184 54.9912 49.6124L54.9921 45.8046C57.3285 46.1605 60.5099 47.2435 62.8329 47.8674L74.563 51.033C75.2876 51.3465 75.8974 53.016 76.5791 53.6897C80.0321 57.1024 87.8773 55.8566 88.0005 49.3093L87.997 30.9106C87.997 28.0955 88.4524 24.6332 86.9064 22.5989C85.6958 21.0058 83.1591 19.4387 79.9008 20.1009C75.8305 20.9281 75.7495 23.9712 74.556 24.4802L58.8329 28.7236C54.9968 29.7889 54.5585 29.8296 50.0681 29.8296C37.9827 29.8296 39.5928 28.4436 39.5928 38.8244C39.5928 42.6082 38.9162 44.3836 40.9752 45.4762C41.9408 45.9887 41.319 45.2707 41.7997 46.0964H41.7998ZM24.2594 11.9882C24.0801 10.6648 24.1005 7.68876 24.1895 6.3093C24.3345 4.05952 25.9206 4.09483 28.1897 4.10627L104.051 4.10468C106.42 4.09112 107.735 4.20723 107.82 6.51652C107.873 7.98173 107.934 10.5966 107.855 12.051L24.2594 11.9881V11.9882Z" fill="#FEFEFE"/>
<path fill-rule="evenodd" clip-rule="evenodd" d="M4.44726 93.2027C8.35674 92.8758 31.524 93.1503 37.4646 93.1503C42.1527 93.1503 42.6131 92.6478 44.3421 94.2368C46.5675 96.2818 46.9406 97.1293 49.3417 97.1283L74.0865 97.1204C80.3186 97.1204 79.4355 97.7935 83.2422 94.326C84.288 93.3734 84.0976 93.1248 86.2051 93.1413L110.946 93.1503C115.959 93.1503 122.758 92.8017 127.555 93.2027C127.872 101.169 126.393 101.071 118.794 101.071H13.2084C10.2502 101.071 7.50971 101.508 5.71229 99.8953C3.99353 98.3531 4.34331 95.8125 4.44719 93.2027H4.44726ZM4.42756 89.1296C-0.524051 89.495 0.0231868 88.9606 0.0139975 95.29C0.00863102 99.0249 0.484414 100.853 2.72637 102.794C5.08367 104.835 7.12552 105.002 11.3061 105L120.934 105C128.97 105.006 131.996 102.299 131.989 95.0762C131.983 88.9963 132.466 89.491 127.578 89.1297L127.494 75.4809C126.552 75.4095 123.489 75.0239 123.189 75.8774L123.17 89.1629C112.976 89.4167 102.396 89.1821 92.1598 89.1821C82.7178 89.1821 83.6655 88.3093 79.7695 91.8447C77.7983 93.6335 78.2847 93.1522 73.6111 93.1522L50.5253 93.1677C48.8162 93.145 48.7878 92.6343 47.9304 91.8645C44.2882 88.594 45.2478 89.1821 39.605 89.1821C29.4474 89.1821 18.9489 89.4151 8.83414 89.1629L8.80539 51.6631L4.42918 51.6948L4.42771 89.1297L4.42756 89.1296Z" fill="#FEFEFE"/>
<path fill-rule="evenodd" clip-rule="evenodd" d="M90.5185 46.738C92.094 47.4056 97.0003 49.4976 98.44 49.665C98.7873 48.3863 99.6833 47.4412 99.8814 46.0492C97.9938 45.5604 93.4409 43.249 91.9218 43.1638C91.3788 44.0807 90.3775 45.7944 90.5184 46.738L90.5185 46.738Z" fill="#FEFEFE"/>
<path fill-rule="evenodd" clip-rule="evenodd" d="M90.4196 28.2987C90.5026 29.4307 91.3996 30.849 91.9219 31.8773C92.87 31.8091 98.8912 29.4753 99.8555 28.7717C99.7213 28.03 99.4791 27.7001 99.1285 26.9837C98.9824 26.6852 98.8796 26.4077 98.7202 26.1131L98.1048 25.3035L90.4196 28.2987L90.4196 28.2987Z" fill="#FEFEFE"/>
<path fill-rule="evenodd" clip-rule="evenodd" d="M92.3985 39.6603L101.171 39.7153L101.15 35.7675L92.5428 35.7424L92.3985 39.6603Z" fill="#FEFEFE"/>
<path fill-rule="evenodd" clip-rule="evenodd" d="M28.5955 10.0006L33.0175 10.0497L32.9924 6.09937L28.6933 6.10875L28.5955 10.0006Z" fill="#FEFEFE"/>
<path fill-rule="evenodd" clip-rule="evenodd" d="M37.409 10.0185L41.7972 10.0298L41.7739 6.14252L37.502 6.09961L37.409 10.0185Z" fill="#FEFEFE"/>
<path fill-rule="evenodd" clip-rule="evenodd" d="M46.2028 9.98169L50.5905 10.0448L50.5673 6.11714L46.2958 6.10986L46.2028 9.98169Z" fill="#FEFEFE"/>
</svg>
