<svg width="112" height="112" viewBox="0 0 112 112" fill="none" xmlns="http://www.w3.org/2000/svg">
<path fill-rule="evenodd" clip-rule="evenodd" d="M108.089 66.4577L108.204 81.6287C103.489 81.6287 98.8849 81.6461 94.2848 81.6352C88.6453 81.6221 85.6935 74.0671 89.5362 68.9518C90.5848 67.5556 91.4922 66.4758 94.0349 66.4504C98.7072 66.404 103.413 66.4577 108.089 66.4577ZM95.2978 87.3136L95.1543 91.1082L98.8828 90.9572V87.3165L95.2978 87.3136ZM98.8842 95.0493L95.1536 94.9006L95.1236 98.3323C95.1393 98.3911 95.19 98.4731 95.205 98.5188C95.2199 98.563 95.2678 98.6356 95.3006 98.6929L98.8828 98.6908L98.8842 95.0493ZM98.8828 57.1299L95.1543 56.9789C94.958 58.1204 94.8766 60.0122 95.2978 60.7735L98.8828 60.7706V57.1299ZM13.0658 106.156C13.1244 106.183 13.2093 106.163 13.2421 106.236L16.8357 106.249L16.8943 103.246C16.7572 102.234 16.9321 102.887 16.5902 102.502L13.0865 102.484L13.0665 106.157L13.0658 106.156ZM95.2999 49.3942C95.2678 49.4522 95.2135 49.4682 95.2042 49.569L95.1528 53.1873C96.2807 53.3796 98.1368 53.4674 98.8828 53.0356L98.8821 49.3956L95.2999 49.3942ZM16.5852 45.5844C17.2355 45.1374 16.8893 42.6033 16.8357 41.8377L13.2414 41.8508C13.1979 41.8631 13.1236 41.903 13.0651 41.9299L13.0879 45.6011L16.5852 45.5836V45.5844ZM50.3673 106.157L50.7328 106.305C51.5266 106.442 50.3787 106.307 51.1796 106.373C51.4245 106.394 51.9313 106.372 52.2026 106.371C52.97 106.366 53.3791 106.391 54.14 106.248L54.1979 103.244C54.0608 102.23 54.2371 102.887 53.8937 102.501L50.3894 102.482L50.368 106.157L50.3673 106.157ZM9.35516 42.0039C8.77337 41.6432 9.03178 41.739 7.5905 41.7514C6.90305 41.7572 6.31268 41.7528 5.62452 41.8123L5.56099 44.8435C5.71018 46.1388 5.53029 45.1301 5.82226 45.6003L9.35302 45.6011L9.35373 42.0039H9.35516ZM43.123 102.483C42.8396 102.948 42.9966 101.929 42.8653 103.242L42.9295 106.273C43.6141 106.329 44.2116 106.326 44.8955 106.331C45.1075 106.334 45.7429 106.358 45.9113 106.337C47.1856 106.186 46.1933 106.369 46.6559 106.071L46.6566 102.482H43.123V102.483ZM5.82297 102.484C5.56812 102.895 5.54671 101.786 5.56741 104.275C5.57312 104.971 5.56955 105.577 5.62523 106.273L8.60704 106.339C9.7535 106.204 8.99395 106.304 9.35445 106.077V102.483L5.82369 102.484H5.82297ZM95.3791 102.501C94.9016 102.833 95.175 102.402 95.0736 103.244L95.1329 106.246C96.2208 106.45 98.1275 106.512 98.902 106.154L98.8792 102.483L95.3791 102.5V102.501ZM65.3105 106.072C65.6411 106.284 64.7894 106.352 67.0709 106.331C67.7541 106.326 68.3545 106.329 69.0383 106.275C69.0947 105.577 69.0912 104.972 69.0969 104.275C69.1069 103.062 69.2118 103.087 68.8484 102.482L65.3105 102.483V106.072ZM46.6566 42.0082C46.2511 41.7521 46.7451 41.7361 44.8955 41.7521C44.2109 41.7579 43.6134 41.7543 42.9281 41.8101C42.8731 42.5068 42.8767 43.1142 42.871 43.8101C42.8696 44.0292 42.8453 44.6671 42.8653 44.8427C43.0009 46.0372 42.8853 45.2114 43.123 45.6003H46.6566V42.0082ZM68.8435 45.6003C69.1012 45.1794 69.1104 45.678 69.0954 43.8101C69.0897 43.1142 69.0933 42.5061 69.0383 41.8101C68.3545 41.7557 67.7534 41.7593 67.0709 41.7535C65.2677 41.7376 65.7467 41.7332 65.3105 42.0133V45.6003H68.8435ZM80.423 102.482C80.1853 102.878 80.2909 102.009 80.1689 103.241C80.1482 103.447 80.1724 104.032 80.1746 104.273C80.1803 104.971 80.1767 105.575 80.2331 106.273C80.917 106.328 81.5174 106.324 82.2005 106.33C84.0023 106.346 83.524 106.351 83.9609 106.07V102.482L80.423 102.481V102.482ZM83.9609 42.0126C83.6304 41.8 84.4827 41.7325 82.2005 41.7528C81.5174 41.7586 80.9163 41.755 80.2331 41.8094C80.156 42.7898 80.0033 44.9051 80.428 45.6003H83.9623L83.9609 42.0133V42.0126ZM31.5434 45.6003C31.8947 45.0154 31.8033 45.3006 31.7911 43.8094C31.7854 43.1127 31.789 42.5068 31.7333 41.8087C30.8267 41.739 28.723 41.4408 28.0077 42.0336L28.0062 45.5974L31.5434 45.6003ZM28.0077 106.05C28.4588 106.643 30.9845 106.331 31.734 106.276C31.8311 105.07 31.9925 103.234 31.5477 102.481L28.2554 102.483L28.0055 102.485L28.007 106.05H28.0077ZM100.597 39.9118V62.5158C99.2283 62.5158 93.0755 62.2364 92.4245 62.8221C87.9086 63.1189 83.9723 68.819 83.973 74.041C83.9738 79.2586 87.925 84.9704 92.4295 85.2578C92.7129 85.8144 99.5138 85.5662 100.597 85.5662V108.17C73.2101 108.24 45.8135 108.172 18.4255 108.172C11.8308 108.172 3.9655 109.852 3.75563 102.237C3.56574 95.3454 3.75634 88.1423 3.75634 81.215C3.75634 67.2857 3.70209 53.3455 3.7592 39.4176C7.68901 40.5228 22.3275 39.9089 27.4994 39.9089L100.597 39.9103L100.597 39.9118ZM110.484 62.7626C109.182 62.0855 106.319 62.5136 104.625 62.5136C104.625 59.042 105.113 39.0533 104.381 37.6063C103.908 35.2478 99.2161 36.1201 97.016 36.1201C97.016 22.6704 99.1098 24.7437 86.9863 24.7437L71.0871 24.7582C69.0719 24.7481 68.6022 23.6385 67.6806 22.6908L51.805 6.54303C48.8903 3.58009 49.0174 2.66357 45.7521 5.98934L29.8723 22.132C29.2819 22.7314 27.8192 24.4737 27.1203 24.6777C26.4864 24.8627 22.6651 24.7437 21.7021 24.7437C-1.74325 24.7437 0.0292661 22.0442 0.0292661 46.1127V100.178C0.0249829 103.755 0.306959 106.476 2.25723 108.669C3.92624 110.545 5.97288 111.89 9.59288 111.961C13.1829 112.032 16.8443 111.963 20.4422 111.963L100.346 111.964C102.181 111.971 103.998 112.345 104.381 110.475C105.108 109.043 104.626 89.0298 104.626 85.5698C106.311 85.5698 109.183 86.0023 110.477 85.3187C112.453 84.9015 111.939 82.4697 111.938 80.448V67.6362C111.939 65.621 112.453 63.182 110.485 62.7633L110.484 62.7626ZM87.683 45.5996L91.4222 45.567L91.4115 41.8914L87.753 41.7971L87.683 45.5996ZM50.3787 45.5996L54.1179 45.5677L54.1072 41.8907L50.4486 41.7978L50.3787 45.6003V45.5996ZM20.5407 45.4951L24.2742 45.6148L24.2542 41.8087L20.5742 41.8348L20.5407 45.4958V45.4951ZM57.8443 45.4958L61.5778 45.6141L61.5578 41.808L57.8785 41.8341L57.8435 45.4958H57.8443ZM95.1471 45.498L98.8806 45.6141L98.8606 41.808L95.1814 41.8334L95.1464 45.498H95.1471ZM20.5542 106.19L24.2114 106.284L24.2863 105.302L24.2735 102.482L20.5428 102.514L20.5535 106.19H20.5542ZM57.8585 106.191L61.5157 106.284L61.5906 105.302L61.5778 102.481L57.8478 102.514L57.8585 106.191ZM35.4568 45.5989H39.1968L39.1732 41.8072L35.5503 41.808L35.4575 45.5989H35.4568ZM72.7597 45.5989H76.4996L76.4768 41.8072L72.8318 41.808L72.7604 45.5989H72.7597ZM87.6916 105.301L87.7394 106.273L91.3901 106.247L91.4251 102.585L90.517 102.461L87.6916 102.482V105.301ZM35.4668 105.301L35.5225 106.274L39.1261 106.273L39.211 105.302L39.196 102.482H35.4668V105.301ZM72.7697 105.301L72.8261 106.274L76.4311 106.273L76.5139 105.302L76.4989 102.482H72.7697V105.301ZM61.5806 2.80798V6.90804C61.5806 9.12426 62.0718 9.73963 64.3782 9.44138C65.7167 8.72513 65.3077 4.77746 65.3077 2.8087C65.3077 -0.976422 61.5806 -0.898774 61.5806 2.8087V2.80798ZM73.9204 17.3556C72.0837 18.222 72.4099 20.759 74.645 20.9441C75.7051 21.0319 80.2467 21.0877 80.9805 20.7859C82.5418 20.1429 82.6346 17.3824 80.186 17.1655C79.0588 17.066 74.6771 16.9986 73.9197 17.3556H73.9204ZM70.9201 3.06269C70.1755 3.53655 66.5141 8.84197 67.4529 10.6046C67.914 11.4696 69.0705 11.6699 69.9863 11.1685C70.3968 10.9435 74.3595 5.70124 73.4814 3.74265C73.061 2.80507 71.8774 2.45239 70.9194 3.06269H70.9201ZM77.4362 8.90583C76.0542 9.53789 73.9633 10.749 72.6733 11.5792C70.7038 12.8462 71.7567 16.0748 74.5058 15.0211C75.2589 14.7323 78.4549 12.7809 79.1773 12.2969C81.114 11.0001 80.0696 7.70121 77.4362 8.90583ZM100.405 75.4147C95.846 77.6643 95.8617 70.401 100.409 72.6637C100.735 73.7319 100.74 74.3545 100.405 75.4147ZM97.3908 68.6021C90.1401 70.8139 93.3568 81.4835 100.438 79.5199C107.423 77.5823 104.558 66.4156 97.3908 68.6021ZM24.9588 84.0343C25.452 84.9733 26.575 86.1162 27.5001 86.6155C28.6237 85.7396 29.8916 84.2723 30.9552 83.1903C35.0378 79.0395 53.3898 60.7096 55.3557 58.3127L52.7851 55.7337L24.9588 84.0336V84.0343ZM37.869 95.5225L40.3204 98.1015C41.4797 97.5681 67.8833 70.3539 72.5955 65.5629C74.3009 63.8293 82.5732 55.8331 83.1992 54.5682L80.7257 52.016L37.8675 95.5232L37.869 95.5225ZM40.6902 27.2611C46.8836 30.8728 50.2752 30.782 56.3252 27.2451L64.9986 36.0664L32.0488 36.0809L40.6902 27.2611ZM93.2882 36.1187C91.0196 36.1223 88.7509 36.1194 86.4823 36.1194C83.9381 36.1194 81.3146 36.5308 80.2617 35.5207C79.2965 34.5947 74.1289 29.4512 73.7034 28.5332L93.2697 28.5339L93.2875 36.1187H93.2882ZM23.3611 28.5484C22.8707 29.4961 17.9379 34.3335 16.7843 35.4735C15.6985 36.5461 13.2843 36.1201 10.6123 36.1201C8.71269 36.1201 5.61096 36.6092 4.59299 35.319C3.60643 34.0672 3.47936 31.1986 4.336 29.7385C5.32398 28.055 7.68687 28.5332 9.85558 28.5332C14.3258 28.5339 18.9038 28.4352 23.3604 28.5484H23.3611ZM48.5041 8.42688L75.6287 36.0875C69.905 36.274 70.8444 36.3835 68.4523 33.9496L61.1416 26.5201C60.2393 25.6043 59.5226 24.8816 58.6259 23.9527C54.926 20.119 55.213 26.2045 48.4341 26.0557C44.238 25.9636 42.7275 23.3714 41.7074 22.9099C39.8678 22.0783 36.9195 25.8039 35.9258 26.7495L30.9938 31.7261C25.8104 36.7224 27.5972 36.2072 21.3459 36.0309L48.5041 8.42688Z" fill="#00A500"/>
</svg>
