<svg width="110" height="110" viewBox="0 0 110 110" fill="none" xmlns="http://www.w3.org/2000/svg">
<path d="M102.16 7.16626H81.1219V10.6845H102.16V7.16626Z" fill="#00A500"/>
<path d="M77.7165 7.16626H74.2368V10.6845H77.7165V7.16626Z" fill="#00A500"/>
<path d="M77.7165 14.2476H74.2368V17.7658H77.7165V14.2476Z" fill="#00A500"/>
<path d="M77.7165 21.2148H74.2368V24.733H77.7165V21.2148Z" fill="#00A500"/>
<path d="M102.16 14.2476H81.1219V17.7658H102.16V14.2476Z" fill="#00A500"/>
<path d="M102.16 21.2148H81.1219V24.733H102.16V21.2148Z" fill="#00A500"/>
<path fill-rule="evenodd" clip-rule="evenodd" d="M3.70625 92.4075C2.23429 82.7834 9.20555 75.546 16.9991 74.2616C26.5712 72.6841 33.818 79.9049 35.0761 87.5357C36.6459 97.057 29.4703 104.374 21.7096 105.603C12.3914 107.079 4.86471 99.9823 3.70609 92.4075H3.70625ZM56.7272 98.6718L45.4903 98.7445L44.0231 92.8941L38.7216 91.6133L38.5105 85.9728C45.8362 87.9602 49.9513 89.0307 58.2111 87.4618C61.1956 86.8948 64.2234 85.8704 66.8585 84.633C70.3589 82.9891 72.7918 80.8664 74.059 80.2465L81.6852 87.7775L80.7544 88.7514C80.1437 88.548 78.8321 87.6633 78.2353 87.2968C77.3472 86.7515 76.4875 86.138 75.5825 85.7482C74.0008 86.5124 72.5579 87.7028 70.6963 88.6411C68.9345 89.5293 67.1207 90.3741 65.0887 91.0758C64.0068 91.4493 63.1934 91.6973 62.0131 92.0137C61.0007 92.285 59.6908 92.4583 58.7727 92.7418C57.8028 93.0412 58.0655 93.4639 57.5572 95.5076C57.3067 96.5149 57.1022 97.8459 56.7272 98.6715V98.6718ZM52.8822 84.4708C52.8822 80.2634 52.8822 76.0558 52.8822 71.8484C52.8822 70.4253 52.5195 66.7127 53.106 65.7552C53.2892 65.4562 55.871 62.956 56.3463 62.5952C56.9277 62.8973 58.8226 64.8759 59.4443 65.5192C60.2373 66.3397 59.9176 69.1507 59.9173 71.0869C59.9166 75.1841 59.9748 79.3235 59.9083 83.4154C58.2752 83.9861 54.7842 84.5933 52.8824 84.4706L52.8822 84.4708ZM42.2898 69.7342C43.5219 70.2617 44.581 72.3016 45.8711 72.8986C46.9869 72.0897 48.2387 70.2392 49.3224 69.7436L49.3512 84.4978C47.0339 84.6014 44.2711 84.0166 42.2973 83.4398L42.2897 69.7342H42.2898ZM63.4654 82.1276L63.4491 69.7493C64.0354 69.9648 71.1313 77.0279 71.4567 77.8071C70.0529 78.5007 65.6467 81.9115 63.4654 82.1278V82.1276ZM31.7423 59.1353L37.4355 64.6704C38.2484 65.4837 38.7936 65.5389 38.7972 67.0758C38.809 72.025 38.9075 77.1751 38.7714 82.1043C35.7715 82.1381 35.8705 77.7829 31.7806 75.1209L31.7423 59.1353ZM18.2334 45.5868C19.1257 46.1577 26.0857 53.3513 27.5391 54.7614C28.5523 55.7444 28.2186 56.4421 28.2185 58.7133C28.2183 62.1737 28.408 70.1156 28.1648 72.6218C27.0514 72.2276 25.7203 71.7401 24.7259 71.3302C23.0231 70.6285 20.1158 63.9586 19.509 62.2362C18.6324 59.7485 18.0505 57.1927 17.7898 54.4662C17.5767 52.237 17.5188 47.3511 18.2334 45.5865V45.5868ZM19.1895 41.3905C19.3251 40.345 21.0086 35.9971 21.8736 35.2159C22.7489 35.6312 26.9402 40.0746 27.9142 41.0625L39.7276 52.8622C40.4617 53.594 44.9192 58.4325 45.8709 58.8079C46.1764 58.6059 45.9854 58.745 46.2343 58.5259C48.4704 56.5585 54.8911 49.4618 56.346 48.5485C56.8639 48.7792 56.3903 48.5191 56.7419 48.7754L75.8108 67.8123C77.1016 69.1071 94.171 86.4386 95.1992 87.0191C96.0824 86.232 99.8885 81.9181 100.913 81.6786L103.637 100.121L84.9242 97.495C85.7248 95.883 89.6101 93.2777 90.5057 91.545L86.3042 87.4035C82.7507 83.8447 57.2118 58.0565 56.2963 57.5876C55.5603 58.4559 54.5468 59.3839 53.7803 60.1466C52.8481 61.0739 52.0932 61.8332 51.2103 62.7175L45.8709 67.9292C45.3208 67.657 45.3931 67.6552 44.9681 67.227C44.6443 66.9007 44.4537 66.6966 44.122 66.3631L19.1892 41.3905H19.1895ZM82.7486 31.8407L88.7161 31.8414C91.7777 39.1351 90.8205 36.2659 92.8294 44.1236L98.6194 45.5263L98.6872 56.8865L92.7567 58.3104C92.2432 62.3573 89.0793 71.1702 86.8193 73.6153C86.2145 73.3637 86.2719 73.3089 85.8189 72.8456L83.0287 69.9444C83.497 68.7739 84.4165 67.2777 84.978 66.0177C88.5958 57.8978 89.021 49.0159 86.4983 40.4181C85.4458 36.831 84.0611 34.8273 82.7486 31.8403V31.8407ZM23.8911 31.8724C27.3078 26.263 35.1653 20.8911 41.7804 19.0738C46.2995 17.8321 50.6 17.4273 55.4344 18.0479C58.8887 18.4914 64.6779 20.1204 66.9304 21.7833C67.2678 25.6476 66.168 28.4972 68.9748 30.6682C71.3191 32.4816 75.0526 31.6972 78.4606 31.8605C79.1102 33.1059 79.9148 34.1524 80.6199 35.4287C82.8298 39.4286 84.0805 43.952 84.4756 48.722C84.7725 52.3077 84.3873 55.8826 83.6195 59.1237C83.1075 61.2849 81.5762 66.032 80.3437 67.2566C79.5115 66.7051 63.8464 50.878 62.4004 49.4271C61.393 48.4163 57.2696 44.0148 56.3462 43.5795C55.4774 44.2117 54.4497 45.4091 53.6961 46.1657C52.2314 47.636 46.717 53.3368 45.8711 53.84C45.2725 53.557 45.4253 53.5971 44.9764 53.1322C41.0602 49.0766 24.4207 32.9474 23.8911 31.8725V31.8724ZM71.7202 3.77854C73.1904 3.28672 97.6867 3.65742 101.484 3.65601C105.148 3.65461 105.729 3.27547 105.716 7.1253L105.715 21.9735C105.715 23.9269 106.376 27.6497 104.476 28.2071C103.417 28.5177 78.0475 28.3128 74.63 28.3145C71.103 28.3162 70.4676 28.6038 70.4788 24.8291L70.4787 9.9807C70.4787 7.13295 69.9503 4.37038 71.7202 3.77854ZM26.635 16.6345C28.6253 15.7822 30.7208 13.52 37.2771 11.2721C46.3295 8.16831 43.0297 12.098 45.4613 3.6568L56.7271 3.72556C57.3259 5.01347 57.6094 8.47619 58.2861 9.34761C58.7338 9.78785 58.5325 9.61016 59.3634 9.76676C61.2488 10.1223 65.6273 11.2525 66.9406 12.0738L66.9281 17.7182C63.1184 16.6173 61.216 15.0123 55.3968 14.4841C25.1734 11.7409 6.42533 41.0586 17.1584 65.8641C17.6355 66.9667 19.4253 70.1528 19.4808 70.5799C17.0654 70.7113 14.2072 71.2535 13.913 71.2603C12.9544 69.1995 12.0533 67.6249 11.2263 65.2085L9.25152 58.3653C8.76696 57.9943 4.45286 57.0161 3.54786 56.8317L3.57975 45.5507C4.8497 45.167 8.4336 44.6377 9.27106 44.0148C9.74342 43.4086 10.2691 40.1495 10.6081 39.0471C11.0659 37.5585 11.6135 36.0132 12.2323 34.5723C13.9898 30.4801 15.8369 28.3189 16.5736 26.7053L13.5361 21.5396L21.5324 13.6294L26.635 16.6341V16.6345ZM37.6245 96.221L37.9942 95.0316C38.942 95.1455 38.7053 95.0261 39.3002 95.4414C39.7212 95.5158 40.9484 95.7322 41.167 96.0607L42.7054 102.264L59.5384 102.23L61.1168 95.8627C65.0611 94.9958 68.9066 93.5947 72.4264 91.7142C73.5283 91.1255 74.5729 90.444 75.5821 89.927C77.1064 90.3194 79.7756 92.7166 81.2957 93.1612C82.2436 92.3725 83.2422 90.8148 84.4071 90.4555L85.4944 91.6459C85.1387 92.503 84.192 93.1547 83.4998 93.8475C82.3585 94.9897 77.7919 99.3209 77.5286 100.014L107.778 104.261L103.452 74.0724C102.579 74.2486 96.843 81.0577 95.199 82.0081C94.4818 81.7196 89.8986 76.9629 89.4642 76.4171C89.6702 75.6657 91.0175 73.632 91.4326 72.8544C93.3616 69.2398 94.9065 65.4328 95.7976 61.1874L102.203 59.6033L102.161 42.7636L96.0157 41.1752C95.6875 40.985 95.6265 40.5392 95.483 39.9535C94.6599 36.5921 92.9263 32.8751 92.7031 31.8511C95.9664 31.7459 102.201 32.2304 104.958 31.7164C109.601 30.8508 109.248 26.4125 109.248 23.6872C109.248 19.5628 109.248 15.4382 109.248 11.3138C109.248 7.28876 109.938 3.34924 107.208 1.2321C104.911 -0.548567 99.4235 0.125316 95.961 0.125316C92.3428 0.125316 73.1788 -0.114575 71.3035 0.217366C66.6338 1.04394 67.0006 5.53811 66.9542 8.15378L61.1167 6.54127L59.5028 0.126254L42.689 0.15501L41.1096 6.37796C40.5865 6.75053 36.4839 7.79605 35.4743 8.15769C33.6832 8.79938 31.934 9.58672 30.2952 10.4131C26.8771 12.1369 27.0971 12.9469 25.4858 11.8956C24.7905 11.4421 21.7236 9.46123 20.8854 9.2043L9.13409 21.0219C9.40146 21.9345 11.3511 24.8977 11.8701 25.7013C12.687 26.9664 12.1218 27.1961 11.5264 28.1906C11.0748 28.9446 10.6467 29.7154 10.2422 30.5138C9.36159 32.252 8.69644 33.7498 7.99736 35.7117C7.62273 36.763 6.65064 40.666 6.28179 41.247L0.0175864 42.8139L0.0519853 59.5833C1.58227 60.1883 4.5398 60.6987 6.42924 61.2135C7.55627 67.159 9.92761 70.451 10.5838 72.6097C9.44352 73.7513 2.06479 76.6317 0.307945 86.644C-2.88006 104.814 19.4051 117.022 32.9805 103.698C34.2411 102.461 37.2149 98.7251 37.6244 96.221H37.6245Z" fill="#00A500"/>
<path fill-rule="evenodd" clip-rule="evenodd" d="M73.0775 36.2101C73.425 37.2209 74.292 38.4307 74.938 39.7739C77.1403 44.3539 77.4422 47.6133 77.5048 52.8346L81.0169 52.9473C81.1063 47.0786 80.4479 43.3163 78.1271 38.2777C77.5062 36.9299 76.6035 35.7889 76.0381 34.4819C74.9078 34.7065 73.9307 35.7831 73.0776 36.2101H73.0775Z" fill="#00A500"/>
<path fill-rule="evenodd" clip-rule="evenodd" d="M79.6222 60.4794C79.8278 59.3186 80.4917 58.0622 80.347 56.7593L77.0619 56.2383L76.2939 59.481L79.6223 60.4794H79.6222Z" fill="#00A500"/>
<path fill-rule="evenodd" clip-rule="evenodd" d="M31.4321 28.8268C31.724 29.2212 33.1614 31.0024 33.6822 31.2743C34.1132 31.0167 35.6436 29.8368 36.1113 29.3978C35.9349 28.736 34.6395 26.939 34.2536 26.5779C33.5567 26.865 31.7931 28.1357 31.4321 28.8268Z" fill="#00A500"/>
<path fill-rule="evenodd" clip-rule="evenodd" d="M37.5591 24.5157L38.9859 27.5102C39.8941 27.4864 41.1269 26.7094 42.0111 26.4587L40.9531 23.166C39.9574 23.2595 38.3808 24.1237 37.5591 24.5157Z" fill="#00A500"/>
<path fill-rule="evenodd" clip-rule="evenodd" d="M44.6253 22.1641L45.2396 25.3526L48.4367 24.8958L48.2161 21.5418C47.6587 21.4027 47.0814 21.5482 46.4583 21.6411L45.1027 21.9321C44.6058 22.1254 44.9235 21.9608 44.6253 22.1641Z" fill="#00A500"/>
<path fill-rule="evenodd" clip-rule="evenodd" d="M37.6249 96.2212L38.2524 95.2527L39.3008 95.4415C38.7058 95.0263 38.9426 95.1457 37.9947 95.0317L37.6251 96.2212H37.6249Z" fill="#00A500"/>
<path fill-rule="evenodd" clip-rule="evenodd" d="M17.586 83.5162C18.9723 83.5162 21.411 83.3357 22.5344 83.8143C25.2659 84.9778 25.2704 88.979 22.5382 90.1516C21.4021 90.6391 18.982 90.4459 17.5691 90.4459L17.586 83.5164V83.5162ZM14.3902 90.4457L12.2904 90.4461L12.2873 93.5993L14.3725 93.6004L14.3874 95.2786L12.2875 95.2797C12.2875 95.9604 12.2004 97.9244 12.3417 98.4509L14.3916 98.4517L14.3919 101.425L17.5661 101.449L17.5682 98.4517L23.2564 98.4515L23.3092 95.2823L17.5727 95.2784L17.5805 93.6003C20.9827 93.6004 22.9746 93.9744 25.3037 92.1167C29.4113 88.8406 28.1426 82.2918 23.2457 80.6927C21.8785 80.2462 20.5108 80.3473 19.0068 80.3473C17.8463 80.3473 15.4012 80.2137 14.3916 80.3845L14.3902 90.4459V90.4457Z" fill="#00A500"/>
</svg>
