<svg width="111" height="110" viewBox="0 0 111 110" fill="none" xmlns="http://www.w3.org/2000/svg">
<path fill-rule="evenodd" clip-rule="evenodd" d="M52.2788 76.6976C53.8985 76.6135 55.4288 76.4501 56.9237 76.202C58.4162 75.9542 59.8756 75.6211 61.3556 75.1972C63.9355 74.4582 65.0674 73.8786 66.2663 73.2648C66.9804 72.8992 67.7176 72.5218 68.748 72.1048L69.2328 71.9087L69.3145 72.4361C69.4894 73.5645 69.6884 74.4149 69.8878 75.2674C69.9947 75.724 70.1017 76.1812 70.1916 76.6096L70.2485 76.8811L70.0278 77.0446C69.3946 77.5133 67.9774 78.0086 66.4171 78.4259C64.4919 78.9408 62.3255 79.3477 61.1753 79.4353C59.674 79.5496 57.513 79.4298 55.6318 79.029C54.0899 78.7006 52.718 78.1754 51.9987 77.4219L51.3531 76.7456L52.2787 76.6976H52.2788ZM90.4977 28.9584C91.2454 29.4653 92.2762 31.1543 93.1099 31.5301C93.1957 31.5855 93.2799 31.6301 93.3621 31.6614C93.7976 31.8269 94.0357 31.6426 94.1608 31.2988C94.398 30.6469 94.3334 29.5082 94.2862 28.6751C94.27 28.3903 94.2559 28.14 94.2561 27.9374C94.2567 27.4698 94.2587 27.0043 94.2604 26.5389L94.2646 25.2489C94.2653 24.8638 94.2323 24.4826 94.0988 24.2535H94.0976C94.0007 24.0871 93.8138 24.0116 93.4749 24.1189C93.4517 24.1262 93.4086 24.1567 93.3499 24.2054C93.3266 24.2113 93.3025 24.2181 93.2776 24.226C93.194 24.2525 92.8469 24.5848 92.4405 24.9974C91.7781 25.67 91.0054 26.5294 90.8652 26.7185L90.7711 26.8453L90.6256 26.7645C90.2758 26.5703 90.0341 26.3578 89.7579 26.1149C89.3406 25.748 88.8376 25.3058 87.7327 24.7688C86.5989 24.2177 85.3904 24.0298 84.2119 24.1472C82.9658 24.2712 81.7514 24.7367 80.6919 25.4751C79.3459 26.4131 78.6981 27.1795 78.7099 27.9023C78.7216 28.6263 79.3951 29.378 80.6915 30.2816C82.3402 31.4307 84.0465 31.8203 85.6502 31.6247C87.4111 31.4098 89.0549 30.4899 90.3696 29.0946L90.4977 28.9584L90.4977 28.9584ZM84.2287 26.5913C84.1945 26.5677 84.1573 26.5488 84.1168 26.5353C83.7072 26.398 83.5261 26.5296 83.4434 26.7875C83.3516 27.0734 83.3321 27.4921 83.312 27.9269C83.2808 28.6011 83.2478 29.3108 82.9463 29.8089L82.8782 29.9216L82.7343 29.8796C82.3221 29.7593 81.8992 29.5213 81.5118 29.2446C80.9988 28.8781 80.5449 28.4404 80.2679 28.1271L80.1341 27.9759L80.2308 27.7979C80.554 27.2019 81.3097 26.569 82.2189 26.1066C83.0449 25.6865 84.0089 25.399 84.8996 25.4009C85.7982 25.4028 86.719 25.6777 87.5145 26.0818C88.4245 26.5441 89.1816 27.1825 89.5638 27.7811L89.6771 27.9585L89.5431 28.1204C89.0251 28.7463 88.2367 29.396 87.2604 29.8359C86.4668 30.1934 85.5468 30.4137 84.5438 30.3724L84.2049 30.3584L84.2839 30.022C84.3991 29.5307 84.5887 28.6916 84.6197 27.9406C84.6458 27.3083 84.5657 26.7463 84.2288 26.5913L84.2287 26.5913ZM91.6592 27.7376L92.5368 26.7705L92.8406 26.4356L92.8488 26.9932L92.875 28.7847L92.8802 29.1419C92.4535 28.779 91.4493 27.9208 91.4928 27.9208L91.6591 27.7375L91.6592 27.7376ZM69.1324 84.2791C70.841 84.2791 72.388 84.9869 73.5077 86.131C74.6276 87.275 75.3202 88.8558 75.3202 90.6015C75.3202 92.3473 74.6276 93.9279 73.5077 95.072C72.388 96.2161 70.841 96.9238 69.1324 96.9238C67.4239 96.9238 65.8767 96.2161 64.757 95.072C63.6373 93.9279 62.9446 92.3473 62.9446 90.6015C62.9446 88.8558 63.6373 87.275 64.757 86.131C65.8767 84.9869 67.4239 84.2791 69.1324 84.2791ZM71.9893 87.6824C71.2583 86.9355 70.2481 86.4735 69.1324 86.4735C68.0167 86.4735 67.0065 86.9355 66.2755 87.6824C65.5444 88.4294 65.0922 89.4615 65.0922 90.6015C65.0922 91.7415 65.5444 92.7736 66.2755 93.5206C67.0065 94.2674 68.0167 94.7295 69.1324 94.7295C70.2481 94.7295 71.2583 94.2674 71.9893 93.5206C72.7203 92.7736 73.1726 91.7415 73.1726 90.6015C73.1726 89.4615 72.7203 88.4294 71.9893 87.6824ZM28.3581 75.5651C29.5772 75.5651 30.6809 76.0701 31.4799 76.8864C32.2788 77.7027 32.773 78.8305 32.773 80.076C32.773 81.3216 32.2788 82.4494 31.4799 83.2657C30.6809 84.082 29.5772 84.5869 28.3581 84.5869C27.1391 84.5869 26.0352 84.082 25.2363 83.2657C24.4374 82.4494 23.9432 81.3216 23.9432 80.076C23.9432 78.8305 24.4374 77.7027 25.2363 76.8864C26.0352 76.07 27.1391 75.5651 28.3581 75.5651ZM30.3965 77.9934C29.8749 77.4605 29.1542 77.1307 28.3581 77.1307C27.5621 77.1307 26.8413 77.4604 26.3197 77.9934C25.7981 78.5263 25.4754 79.2627 25.4754 80.0761C25.4754 80.8894 25.7981 81.6258 26.3197 82.1588C26.8413 82.6917 27.562 83.0214 28.3581 83.0214C29.1541 83.0214 29.8748 82.6917 30.3965 82.1588C30.918 81.6259 31.2407 80.8895 31.2407 80.0761C31.2407 79.2627 30.9181 78.5263 30.3965 77.9934ZM99.0107 52.5407C100.087 52.5407 101.062 52.9866 101.768 53.7075C102.473 54.4285 102.91 55.4245 102.91 56.5245C102.91 57.6245 102.473 58.6205 101.768 59.3415C101.062 60.0624 100.087 60.5083 99.0107 60.5083C97.9341 60.5083 96.9593 60.0624 96.2536 59.3415C95.5481 58.6205 95.1116 57.6245 95.1116 56.5245C95.1116 55.4245 95.5481 54.4285 96.2536 53.7075C96.9593 52.9866 97.9341 52.5407 99.0107 52.5407ZM100.811 54.6852C100.35 54.2145 99.7137 53.9233 99.0107 53.9233C98.3077 53.9233 97.6712 54.2146 97.2105 54.6852C96.7499 55.1559 96.4649 55.8062 96.4649 56.5245C96.4649 57.2428 96.7499 57.8931 97.2105 58.3638C97.6712 58.8344 98.3077 59.1256 99.0107 59.1256C99.7137 59.1256 100.35 58.8344 100.811 58.3638C101.271 57.8931 101.556 57.2428 101.556 56.5245C101.556 55.8062 101.271 55.1559 100.811 54.6852ZM35.393 16.3428C36.9623 16.3428 38.3831 16.9928 39.4115 18.0436C40.4399 19.0943 41.0761 20.5461 41.0761 22.1494C41.0761 23.7528 40.44 25.2045 39.4115 26.2553C38.3831 27.3061 36.9623 27.9561 35.393 27.9561C33.8238 27.9561 32.403 27.3061 31.3745 26.2553C30.3461 25.2046 29.71 23.7529 29.71 22.1494C29.71 20.5461 30.3461 19.0944 31.3745 18.0436C32.403 16.9928 33.8238 16.3428 35.393 16.3428ZM38.0169 19.4685C37.3455 18.7825 36.4177 18.3581 35.393 18.3581C34.3683 18.3581 33.4406 18.7825 32.7692 19.4685C32.0978 20.1545 31.6824 21.1025 31.6824 22.1494C31.6824 23.1964 32.0978 24.1443 32.7692 24.8303C33.4406 25.5163 34.3684 25.9407 35.393 25.9407C36.4178 25.9407 37.3455 25.5163 38.0169 24.8303C38.6883 24.1443 39.1036 23.1964 39.1036 22.1494C39.1036 21.1024 38.6883 20.1545 38.0169 19.4685ZM9.78738 34.9673C11.4207 30.3031 13.6798 25.9417 16.4611 21.9887C12.1442 26.5438 8.65577 31.922 6.24465 37.8697C3.82287 43.8437 2.48625 50.3949 2.48625 57.2663C2.48625 64.1377 3.82287 70.6888 6.2447 76.6629C8.76006 82.8675 12.4474 88.4525 17.0251 93.1297C21.5774 97.7811 27.0091 101.533 33.0429 104.102C38.8558 106.577 45.2275 107.955 51.9097 107.984C55.8815 107.96 59.7434 107.46 63.4434 106.535C66.2248 105.84 68.9146 104.906 71.4908 103.754C69.8773 104.185 68.2325 104.539 66.5603 104.81C63.8977 105.243 61.1706 105.468 58.3958 105.468C51.4067 105.468 44.7407 104.047 38.6595 101.474C32.3424 98.8 26.6586 94.8831 21.9012 90.0222C17.1436 85.1611 13.3101 79.3538 10.6935 72.8994C8.17462 66.686 6.78445 59.8751 6.78445 52.734C6.78445 46.5002 7.84345 40.5188 9.78742 34.9673H9.78738ZM13.1222 33.5939C10.7324 39.489 9.41355 45.9535 9.41355 52.7339C9.41355 59.5144 10.7324 65.9789 13.1222 71.8739C15.6043 77.9965 19.243 83.5075 23.76 88.1228C28.2771 92.7382 33.6709 96.4559 39.663 98.9919C45.4326 101.434 51.7596 102.781 58.3958 102.781C65.032 102.781 71.3589 101.434 77.1285 98.9919C83.1207 96.4559 88.5145 92.7382 93.0315 88.1228C97.5487 83.5075 101.187 77.9964 103.669 71.8739C106.059 65.9789 107.378 59.5144 107.378 52.7339C107.378 45.9534 106.059 39.4888 103.669 33.5938C101.187 27.4713 97.5487 21.9602 93.0315 17.3449C88.5144 12.7297 83.1207 9.01189 77.1285 6.47585C71.3589 4.03405 65.0319 2.68651 58.3958 2.68651C51.7597 2.68651 45.4327 4.03405 39.6632 6.47585C33.6709 9.01189 28.2772 12.7297 23.7601 17.3449C19.2431 21.9603 15.6044 27.4713 13.1223 33.5938L13.1222 33.5939ZM52.1242 109.999L51.8747 109.997L51.6124 109.999L51.6114 110C44.6223 110 37.9563 108.58 31.8752 106.006C25.5581 103.332 19.8743 99.4154 15.1168 94.5545C10.3593 89.6935 6.52576 83.8862 3.90913 77.4317C1.39024 71.2184 7.62939e-05 64.4074 7.62939e-05 57.2663C7.62939e-05 50.1252 1.39024 43.3142 3.90913 37.1009C6.52576 30.6464 10.3593 24.8391 15.1168 19.9781C16.8544 18.2028 18.7192 16.551 20.6966 15.0376C22.6554 13.5384 24.7218 12.1782 26.8814 10.9714C31.3168 7.4721 36.3247 4.69372 41.7366 2.80877C46.9637 0.988128 52.5673 0.000244141 58.3958 0.000244141C65.3849 0.000244141 72.0509 1.42064 78.132 3.9943C84.4491 6.66783 90.1329 10.5847 94.8904 15.4457C99.6478 20.3066 103.481 26.114 106.098 32.5685C108.617 38.7818 110.007 45.5928 110.007 52.7339C110.007 59.8751 108.617 66.686 106.098 72.8994C103.481 79.3538 99.6479 85.1612 94.8904 90.0221C93.4019 91.543 91.8186 92.9742 90.1499 94.3064C88.4959 95.6268 86.7614 96.8464 84.9557 97.956C80.416 101.784 75.2232 104.835 69.573 106.909C64.1214 108.91 58.2468 110 52.1251 110L52.1241 109.999L52.1242 109.999ZM45.2912 38.1353C44.3251 38.4347 43.8693 39.1167 43.8003 39.8345V39.8362C43.7724 40.1272 43.8061 40.4269 43.8936 40.7124C43.9815 40.9992 44.1224 41.2682 44.3085 41.4964C44.7792 42.0739 45.5539 42.3986 46.5051 42.0942C47.3368 41.828 47.7503 41.0998 47.8056 40.3326C47.8274 40.0293 47.7952 39.7215 47.7125 39.4334C47.6305 39.1482 47.4995 38.8821 47.3231 38.6593C46.9071 38.1338 46.2154 37.8489 45.2913 38.1353H45.2912ZM62.5342 48.4507C61.9554 48.6437 61.6939 48.9768 61.624 49.3883C61.5418 49.8721 61.6817 50.4872 61.8972 51.1353C62.1225 51.8122 62.2886 52.5507 62.3844 53.3178C62.4773 54.0606 62.5038 54.8258 62.4539 55.5829C62.3872 56.5939 62.1275 57.403 61.8945 58.129C61.7331 58.6321 61.5853 59.0925 61.5396 59.5212C61.5107 59.793 61.5513 60.0546 61.6456 60.2861C61.741 60.5206 61.8919 60.7243 62.0811 60.8759C62.2664 61.0244 62.4882 61.1226 62.7298 61.1493C62.9487 61.1737 63.1872 61.1406 63.4342 61.0357C64.7121 60.4923 65.3228 57.0383 65.1789 53.8449C65.1339 52.8456 65.0106 51.8749 64.8061 51.0272C64.6076 50.2049 64.3356 49.5076 63.9883 49.0279C63.6063 48.5003 63.1221 48.2549 62.5343 48.4507L62.5342 48.4507ZM54.195 44.3768C54.1344 44.3946 54.0713 44.4173 54.0066 44.4444C53.6856 44.5789 53.413 44.8015 53.2516 45.0871L53.251 45.0867C53.0966 45.3606 53.0446 45.7011 53.1532 46.0859C53.1694 46.1432 53.1909 46.2055 53.2177 46.2726C53.2773 46.4211 53.4966 46.6896 53.7866 47.0445C54.9147 48.4257 57.0026 50.9818 56.7445 55.3999C56.5322 59.0345 55.0929 60.8424 54.0566 62.1441C53.5115 62.829 53.0935 63.3541 53.1092 63.8721C53.1215 64.2743 53.2652 64.6339 53.5063 64.8779C53.6802 65.0539 53.9081 65.1696 54.1756 65.1949C54.4661 65.2224 54.8087 65.1464 55.1904 64.9327C56.0862 64.4312 57.1373 63.2182 58.1829 60.915C58.6362 59.9168 59.0028 58.7918 59.2378 57.5942C59.4557 56.483 59.5598 55.3148 59.514 54.1338C59.4511 52.5114 59.1296 50.9998 58.5933 49.6059C58.0274 48.1353 57.2212 46.7952 56.2263 45.5934C56.1617 45.5155 56.0991 45.4353 56.0334 45.3512C55.6242 44.8275 55.0702 44.1188 54.195 44.3767L54.195 44.3768ZM34.3528 55.0784L35.6311 53.6698L36.3392 52.8895L36.3548 53.9558L36.3941 56.6415L36.4045 57.3558C36.4045 57.3558 34.0304 55.3454 34.1106 55.3454L34.3528 55.0784V55.0784ZM21.1919 58.2829C20.574 58.1026 19.9401 57.7456 19.3594 57.3308C18.5902 56.7814 17.9098 56.1252 17.4945 55.6556L17.294 55.4289L17.4388 55.1621C17.9234 54.2686 19.0563 53.3198 20.4192 52.6266C21.6575 51.9968 23.1028 51.5659 24.4379 51.5687C25.7851 51.5715 27.1654 51.9836 28.3579 52.5894C29.7221 53.2825 30.8571 54.2395 31.43 55.137L31.5998 55.4029L31.3989 55.6456C30.6225 56.584 29.4405 57.5579 27.977 58.2173C26.7871 58.7533 25.4081 59.0836 23.9044 59.0216L23.3964 59.0007L23.5147 58.4963C23.6875 57.7598 23.9718 56.5019 24.0182 55.376C24.0588 54.3883 23.927 53.5149 23.3666 53.3271C22.7701 53.1273 22.5063 53.319 22.3857 53.6946C22.2521 54.1112 22.2237 54.7209 22.1944 55.3543C22.1489 56.3363 22.1008 57.37 21.6617 58.0956L21.4948 58.3714L21.1918 58.283L21.1919 58.2829ZM32.8474 53.661C32.3378 53.3781 31.9859 53.0687 31.5834 52.7148C30.9756 52.1803 30.243 51.5362 28.6337 50.7541C26.9821 49.9514 25.2218 49.6777 23.5052 49.8487C21.6902 50.0293 19.9213 50.7073 18.378 51.7829C16.4174 53.1493 15.4738 54.2655 15.4909 55.3183C15.5081 56.3729 16.4891 57.4679 18.3773 58.7838C20.779 60.4577 23.2643 61.0254 25.6002 60.7403C28.1651 60.4273 30.5595 59.0875 32.4744 57.0549L32.697 56.8186C33.8515 57.4688 35.5191 60.2946 36.8332 60.7938C37.4677 61.0349 37.8144 60.7664 37.9966 60.2657C38.3422 59.3162 38.2481 57.6575 38.1793 56.444C38.1558 56.0292 38.1352 55.6646 38.1356 55.3695C38.1366 54.6884 38.1393 54.0104 38.1419 53.3325C38.1444 52.7048 38.1468 52.0771 38.1479 51.4535C38.149 50.8925 38.1008 50.3373 37.9064 50.0036H37.9047C37.7635 49.7611 37.4912 49.6512 36.9976 49.8075C36.8724 49.8471 36.3519 50.3453 35.7427 50.964C34.7497 51.9724 33.5913 53.2605 33.3811 53.5439L33.1638 53.8368L32.8474 53.6611L32.8474 53.661ZM29.8459 42.3426C30.2303 41.4289 31.0922 40.3302 32.098 39.2789C33.344 37.9767 34.8235 36.7326 35.8754 36.0144C39.8926 33.2715 44.8597 31.947 49.845 31.8408C55.1425 31.7279 60.469 32.9915 64.7018 35.3908C67.2604 36.8412 69.6883 38.7139 71.7584 40.9896C73.6504 43.0696 75.2442 45.485 76.3671 48.221V48.2226C76.5149 48.5827 76.6302 48.9599 76.7441 49.3323C77.0876 50.4562 77.416 51.53 78.6522 51.3933C78.8516 51.3712 79.4561 50.9148 80.1688 50.3176C81.3624 49.3175 82.7788 47.9526 83.282 47.4272L83.3049 47.4054L88.0752 43.1573L88.7695 42.5389L88.7677 43.4785L88.7231 66.886L88.7215 67.6932L88.0698 67.2389C87.4773 66.8259 86.6429 65.9449 85.9382 65.2008C85.6899 64.9386 85.4579 64.6937 85.2647 64.4988L84.7993 64.0295C84.0657 63.29 83.3901 62.6088 82.6379 61.847C82.1076 61.3099 81.6305 60.8285 81.1472 60.3409C80.7729 59.9632 80.3958 59.5828 80.0136 59.1964C78.7954 57.9647 78.0881 58.0134 77.6203 58.4964C77.2464 58.8823 76.9591 59.5341 76.707 60.1056C76.5984 60.3519 76.4959 60.5844 76.3809 60.8048C76.2305 61.093 76.0475 61.421 75.8564 61.7368C75.6842 62.0212 75.509 62.292 75.3486 62.5118C72.5539 66.3416 68.7404 69.1587 64.4465 71.0375C59.7415 73.0963 54.457 74.0269 49.3071 73.9278C47.6895 73.8967 46.0111 73.7645 44.3911 73.519C42.8887 73.2913 41.4262 72.9651 40.0961 72.5302C38.8658 72.1279 37.1412 71.4402 35.6721 70.6765C34.522 70.0787 33.5132 69.4246 32.9815 68.8033L32.6588 68.4264L33.0732 68.1609C33.4452 67.9225 34.0118 67.7724 34.7876 67.567C36.6656 67.0697 39.8503 66.2262 43.9459 63.1269C44.8781 62.4214 47.4736 60.0781 48.9603 57.806C49.7965 56.5281 50.2723 55.3024 49.8328 54.5073C49.4649 53.842 48.8873 53.0639 48.2657 52.3314C47.5505 51.4885 46.7835 50.7149 46.2135 50.2463C43.827 48.2846 41.4781 46.7219 38.8971 45.5184C36.3156 44.3147 33.4958 43.4664 30.1669 42.9331L29.6335 42.8476L29.846 42.3425L29.8459 42.3426ZM49.5218 28.2332C50.4272 27.3563 52.141 26.7621 54.0411 26.3937C56.4988 25.9172 59.2977 25.8064 61.0117 25.9508C64.2627 26.2245 69.0411 27.5651 72.1412 28.9154L72.0252 29.334C71.7971 30.157 70.4322 34.0648 70.04 34.8531L69.8628 35.209L69.503 35.0522C69.1505 34.8986 68.6343 34.5487 68.1524 34.222C67.9049 34.0542 67.6667 33.8928 67.4662 33.7694C64.453 31.9153 61.7958 30.8303 59.0208 30.1529C56.2362 29.4732 53.3117 29.1989 49.7838 28.9693L48.826 28.9069L49.5218 28.2332L49.5218 28.2332ZM78.7591 46.846C78.5423 46.1137 78.1382 45.2663 77.6744 44.4352C77.0057 43.2371 76.2151 42.0754 75.6708 41.3256C74.7585 40.0689 74.0867 39.388 73.6209 38.9159C72.6021 37.8832 72.4246 37.7031 72.7974 35.613C73.2928 32.8365 74.0169 31.6399 75.2073 29.6724L75.3941 29.3636C76.0123 28.3391 75.4668 27.6229 74.6162 27.087C73.9792 26.6857 73.1748 26.3693 72.4907 26.1003H72.4891C72.2543 26.008 72.0331 25.9209 71.8344 25.8369C67.1089 23.8395 61.9005 22.829 57.0214 23.162C52.6174 23.4626 48.485 24.8595 45.2291 27.6167C44.9422 27.8598 44.5267 28.2739 44.1285 28.6709C43.6205 29.1773 43.1387 29.6578 42.9095 29.7903C42.5808 29.9804 42.079 30.1338 41.4098 30.3382C39.7891 30.8334 37.1334 31.6449 34.065 33.8511C32.4432 35.0172 31.0071 36.2918 29.7117 37.7706C28.4155 39.2504 27.254 40.9414 26.1816 42.94C25.9213 43.4251 25.7946 43.9551 25.8649 44.4127C25.9209 44.7772 26.1115 45.1001 26.4744 45.3116C26.7594 45.4777 27.8312 45.5668 28.7822 45.6457C29.3196 45.6904 29.8207 45.732 30.1708 45.7915C31.382 45.9973 32.5339 46.2708 33.6493 46.5999C34.7659 46.9294 35.8384 47.312 36.892 47.7361C38.5698 48.4117 41.2824 49.9319 43.4606 51.5822C45.1516 52.8633 46.5366 54.2418 46.9205 55.4118L46.9799 55.593L46.8861 55.7598C46.0353 57.2727 44.8741 58.6838 43.4874 59.9323C42.0865 61.1937 40.4492 62.2945 38.6641 63.1715C37.7692 63.6111 36.7994 64.0165 35.7894 64.3624C34.83 64.6911 33.8363 64.9669 32.8381 65.1685C31.6188 65.4147 30.6828 65.4818 29.4533 65.5698L29.3313 65.5786C28.8724 65.6115 28.5126 65.7177 28.2508 65.8798C27.9997 66.0352 27.8391 66.2455 27.7692 66.4916C27.6947 66.7546 27.7168 67.0702 27.8361 67.4175C28.0013 67.8989 28.348 68.4274 28.8781 68.9568C31.3219 71.3978 33.814 73.0671 36.5392 74.2335C39.273 75.4037 42.2509 76.072 45.6548 76.5076C46.6695 76.6375 46.9207 76.9235 47.425 77.498C47.7351 77.8512 48.1614 78.3367 49.0531 79.0038C49.4031 79.2656 49.7642 79.519 50.1435 79.7624C50.5227 80.0057 50.9241 80.2417 51.3559 80.4697C53.9536 81.8411 56.8057 82.388 59.6773 82.368C63.0946 82.3442 66.5428 81.5174 69.6283 80.32C70.3179 80.0524 70.8987 79.8071 71.5067 79.5504C71.8489 79.4059 72.1967 79.259 72.3431 79.1982C73.9001 78.5513 74.0038 77.837 73.7188 77.1208C73.5883 76.793 73.3896 76.4537 73.1934 76.1185C72.953 75.7079 72.7157 75.3027 72.5746 74.8855C72.4094 74.397 72.2904 73.87 72.2115 73.3287C72.1276 72.7517 72.0877 72.1463 72.0853 71.5453C72.0783 69.7898 72.2783 69.6254 73.0461 68.9951C73.1723 68.8915 73.317 68.7727 73.4682 68.6378C74.2895 67.9053 75.3543 66.9204 76.3089 65.8554C77.2491 64.8065 78.0865 63.678 78.479 62.6391L78.6522 62.1807L79.0717 62.42C79.7894 62.8295 81.9199 65.0616 83.319 66.5275C83.7477 66.9767 84.1068 67.3529 84.3279 67.5752L89.4048 72.6474C89.6508 72.8057 89.8947 72.8873 90.1239 72.9028C90.3472 72.9179 90.5584 72.8704 90.7442 72.7707C90.9367 72.6675 91.1051 72.5091 91.2356 72.3067C91.4002 72.0516 91.507 71.7255 91.5315 71.3474C91.6003 70.2843 91.5778 69.0513 91.5562 67.8674C91.545 67.2537 91.534 66.6518 91.534 66.2118H91.5356L91.5368 40.6168V40.6152C91.5402 39.8331 91.5272 39.0715 91.3262 38.5338C91.1616 38.0933 90.8378 37.8007 90.2096 37.7906C89.5504 37.7799 89.2968 38.044 88.9888 38.3647C88.91 38.4469 88.8281 38.5321 88.7418 38.615L88.7319 38.6233L79.4369 47.0419L78.948 47.4846L78.759 46.8461L78.7591 46.846Z" fill="#00A500"/>
</svg>
