<svg width="50" height="50" viewBox="0 0 50 50" fill="none" xmlns="http://www.w3.org/2000/svg">
<path d="M14.0979 18.2228C14.1886 19.1294 14.3699 20.036 14.5512 20.852C14.7779 21.7133 15.0499 22.5292 15.3672 23.2545C16.0925 24.8864 16.8178 26.201 17.679 27.425C18.5403 28.6489 19.4923 29.7822 20.7162 30.9608C20.8069 31.0514 20.9882 31.1874 21.1242 31.3234C21.2602 31.4594 21.4415 31.5954 21.5322 31.6407L23.3907 33.0913C24.66 33.9979 27.1079 35.4485 29.4651 36.0832C30.961 36.4911 32.3663 36.5818 33.3182 35.9472C33.8622 35.6299 34.7235 34.6779 35.3128 33.6806C35.5848 33.2726 35.7661 32.8647 35.9021 32.5474C35.9474 32.4114 35.9474 32.3207 35.9927 32.2754L32.9102 30.5981C32.5476 30.3715 32.2756 30.2355 32.0489 30.0995C30.6437 29.2835 30.281 29.0569 29.8731 29.7368L29.7824 29.8728C29.6011 30.1448 29.4198 30.5075 29.1024 30.8248C28.2865 31.7767 27.1532 32.502 25.612 31.2328C24.5693 30.3715 23.7081 29.6008 22.9374 28.7849C22.1215 27.9689 21.3962 27.153 20.5349 26.065L20.3536 25.8384C19.6283 24.9771 18.4043 23.4812 18.4497 22.3932C18.5403 20.8973 19.5376 20.3987 20.4896 19.9907C20.8975 19.8094 21.3055 19.628 21.0789 19.1294C20.6709 18.2681 20.3082 17.4522 19.9003 16.5909C19.5829 15.8656 19.2656 15.1403 18.9483 14.5056C18.8123 14.2337 18.767 14.0977 18.7217 14.007C18.631 13.7804 18.5857 13.6444 18.1777 13.7804C16.9991 14.2337 15.7298 14.9136 14.9139 15.8656C14.3699 16.5002 14.0526 17.3162 14.1432 18.2228H14.0979ZM12.9193 21.26C12.6926 20.308 12.5113 19.3561 12.4207 18.4041C12.2393 16.9535 12.738 15.7296 13.5993 14.7323C14.6419 13.5537 16.1378 12.6924 17.5431 12.1938C19.4923 11.4685 19.7643 12.1031 20.2629 13.3724C20.3536 13.5537 20.3989 13.735 20.4442 13.8257C20.8069 14.551 21.1242 15.2763 21.4415 15.9562C21.8042 16.8175 22.2121 17.6335 22.5748 18.4041C23.5721 20.444 22.4388 20.988 21.2149 21.5773C20.7162 21.8039 20.1722 22.0759 20.1722 22.5292C20.1269 22.9825 21.1242 24.1611 21.6682 24.7958L21.8495 25.0224C22.6654 26.0197 23.3907 26.8357 24.1614 27.6063C24.932 28.3769 25.7479 29.1022 26.7452 29.9635C27.1985 30.3261 27.5612 30.0995 27.8332 29.7822C28.0598 29.5555 28.1958 29.2382 28.3318 29.0115L28.4225 28.8755C29.6917 26.8357 30.3264 27.153 32.9102 28.6942C33.1822 28.8302 33.4995 29.0115 33.7715 29.1929L36.99 30.9608L37.0353 31.0061C37.2167 31.1421 37.398 31.2781 37.4887 31.4594C37.7606 31.9127 37.7606 32.502 37.5793 33.1367C37.4433 33.6353 37.1713 34.1339 36.8087 34.6779C36.0834 35.8565 34.9501 37.0351 34.2248 37.4884C32.7742 38.3497 30.9157 38.3044 29.0571 37.8057C26.4732 37.1258 23.7987 35.5392 22.3935 34.5419L20.5349 33.0913C20.3536 32.9553 20.2176 32.8193 20.0363 32.6833C19.8549 32.5474 19.6736 32.366 19.5829 32.23C18.3137 30.9608 17.2711 29.7822 16.3644 28.4676C15.4578 27.153 14.6872 25.7477 13.9166 24.0251C13.5539 23.1639 13.2366 22.2572 13.01 21.3053L12.9193 21.26Z" fill="#00A500"/>
<path fill-rule="evenodd" clip-rule="evenodd" d="M26.0653 12.6018C25.7026 12.7377 25.4306 13.1004 25.6573 13.6897C26.0653 14.6416 28.8758 13.2817 32.4116 16.1829C33.3182 16.9535 33.9075 17.4975 34.5875 18.6308C36.582 21.8946 35.8114 24.2971 36.0834 24.8864C36.2647 25.2491 36.8087 25.3397 37.1713 25.1584C38.1233 24.6144 37.3527 20.988 36.99 20.036C36.718 19.3107 36.4007 18.5854 36.0381 17.9508C34.9501 16.0922 33.0916 14.415 31.1423 13.5537C30.1904 13.1457 27.2439 12.2391 26.1106 12.6471L26.0653 12.6018Z" fill="#00A500"/>
<path fill-rule="evenodd" clip-rule="evenodd" d="M26.1559 16.3187C25.5666 16.4547 25.34 17.1346 25.748 17.5879C26.3373 18.2679 28.1505 17.3613 30.3264 19.3558C33.4995 22.3024 31.2783 25.2035 33.0916 24.9315C34.1342 24.7956 33.6809 22.393 33.4542 21.5771C32.8649 19.4918 31.505 17.9506 29.6464 16.9986C28.9211 16.636 27.0626 16.092 26.2013 16.3187H26.1559Z" fill="#00A500"/>
<path fill-rule="evenodd" clip-rule="evenodd" d="M26.1559 20.0812C25.4306 20.2626 25.3853 21.1238 25.8386 21.3958C26.1559 21.5772 28.2865 21.4865 28.4225 23.3451C28.4678 24.0704 28.4678 24.7956 29.3744 24.6143C30.6437 24.3877 29.7371 21.9851 29.2838 21.3958C28.7398 20.7159 27.4705 19.8092 26.1559 20.0812Z" fill="#00A500"/>
<path fill-rule="evenodd" clip-rule="evenodd" d="M50 10.0635V12.058V13.3273C50 13.8259 49.592 14.2339 49.0934 14.2339C48.5947 14.2339 48.1867 13.8259 48.1867 13.3273V12.058V10.0635V5.25839C48.1867 4.30644 47.7788 3.44515 47.1895 2.85585C46.5548 2.22121 45.6935 1.85857 44.7869 1.85857H5.25837C4.30642 1.85857 3.44513 2.26655 2.85583 2.85585C2.2212 3.49048 1.85855 4.35177 1.85855 5.25839V44.7869C1.85855 45.7389 2.26653 46.6002 2.85583 47.1895C3.49046 47.8241 4.35175 48.1868 5.25837 48.1868H44.7869C45.7389 48.1868 46.6002 47.7788 47.1895 47.1895C47.8241 46.5549 48.1867 45.6936 48.1867 44.7869V39.6192V37.9873V36.3554C48.1867 35.8568 48.5947 35.4488 49.0934 35.4488C49.592 35.4488 50 35.8568 50 36.3554V37.9873V39.6192V44.7869C50 46.2375 49.4107 47.5521 48.4587 48.5041C47.5068 49.456 46.1922 50.0453 44.7416 50.0453H5.21304C3.76245 50.0453 2.44785 49.456 1.4959 48.5041C0.543953 47.5521 -0.0453491 46.2375 -0.0453491 44.7869V5.25839C-0.0453491 3.8078 0.543953 2.4932 1.4959 1.54125C2.44785 0.589302 3.76245 0 5.21304 0H44.7416C46.1922 0 47.5068 0.589302 48.4587 1.54125C49.4107 2.4932 50 3.8078 50 5.25839V10.0635ZM49.0934 18.223C49.592 18.223 50 18.631 50 19.1296V30.7344C50 31.233 49.592 31.641 49.0934 31.641C48.5947 31.641 48.1867 31.233 48.1867 30.7344V19.1296C48.1867 18.631 48.5947 18.223 49.0934 18.223Z" fill="#00A500"/>
</svg>
