<svg width="112" height="112" viewBox="0 0 112 112" fill="none" xmlns="http://www.w3.org/2000/svg">
<path fill-rule="evenodd" clip-rule="evenodd" d="M25.6787 20.9206C26.8729 20.9206 28.9733 20.765 29.9409 21.1774C32.2935 22.1802 32.2973 25.6288 29.9441 26.6393C28.9656 27.0594 26.8811 26.8929 25.6642 26.8929L25.6787 20.9206ZM22.9261 26.8929L21.1175 26.8933L21.1148 29.6109L22.9109 29.6119L22.9236 31.0582L21.1149 31.0591C21.1149 31.6458 21.0399 33.3385 21.1616 33.7924L22.9271 33.7931L22.9273 36.3552L25.6613 36.3763L25.6631 33.7931L30.5624 33.7929L30.6079 31.0614L25.6669 31.058L25.6737 29.6118C28.6041 29.6119 30.3197 29.9342 32.3258 28.3331C35.8637 25.5095 34.771 19.8654 30.5532 18.487C29.3758 18.1022 28.1977 18.1893 26.9023 18.1893C25.9027 18.1893 23.7967 18.074 22.9271 18.2213L22.926 26.8928L22.9261 26.8929Z" fill="#00A500"/>
<path fill-rule="evenodd" clip-rule="evenodd" d="M59.7404 105.708C58.374 101.082 65.3564 99.2082 66.6399 103.625C67.9967 108.294 61.0652 110.194 59.7404 105.708ZM99.1841 105.512C97.9685 110.246 90.8711 108.292 92.23 103.681C93.5718 99.1297 100.313 101.117 99.1841 105.512ZM88.5696 102.75C88.1623 101.68 88.5341 94.0056 88.4303 92.0461L84.8775 92.061L84.8458 102.859L81.418 102.897C81.0243 101.655 81.3022 94.09 81.2583 92.1362L77.6711 92.0467L77.6499 102.809L74.0473 102.866L74.0278 92.1443L70.4301 92.0449L70.3978 102.185C70.3899 102.243 70.3804 102.295 70.3703 102.348C70.3608 102.396 70.3408 102.454 70.3304 102.495C70.3206 102.534 70.2898 102.6 70.2806 102.631C70.2718 102.66 70.2505 102.72 70.2258 102.76C69.1996 101.136 68.6189 98.2352 64.1031 97.5733C63.5126 95.857 63.1568 91.6797 62.8692 89.6737C62.4918 87.0421 61.8701 83.8253 61.7449 81.2433L96.806 81.2325C96.4407 85.4666 95.3478 89.9631 94.7236 94.1632C93.9897 99.1023 94.273 97.0494 91.8357 98.6206C90.956 99.1876 90.4698 99.6251 89.9072 100.414C89.4928 100.995 88.9712 102.504 88.57 102.75H88.5696ZM62.9919 62.1833C61.9308 64.1965 58.7863 62.7697 59.7835 60.546C60.692 58.5199 64.1553 59.9761 62.9919 62.1833ZM75.9032 47.3499C75.4238 44.8347 78.8758 44.4029 79.3578 46.4295C79.9642 48.9801 76.3049 49.4567 75.9032 47.3499ZM12.0133 44.8127C12.4178 44.2408 13.7893 42.7804 14.4131 42.4296C16.9025 43.5691 19.4239 46.895 27.0985 46.8986C30.8183 46.9003 34.1628 45.9246 37.1678 44.1513C37.9479 43.6911 38.9192 42.8378 39.7826 42.4304C40.6108 42.8855 41.6762 44.1675 42.2384 44.8127C41.3756 46.0872 37.6016 48.119 35.9634 48.781C33.3487 49.8376 30.4705 50.4949 27.2932 50.5201C24.0904 50.5453 21.1212 49.9185 18.5119 48.8844C17.072 48.3136 12.7638 46.111 12.0135 44.8127H12.0133ZM25.1252 10.9587C33.4033 9.64158 41.9508 15.8261 43.2079 24.9991C44.521 34.5811 37.2216 42.0984 29.2124 43.1715C19.633 44.4552 12.0867 37.3045 10.9801 29.1574C10.3029 24.1709 12.0809 19.6542 14.602 16.6999C17.0733 13.8042 19.9219 11.7867 25.1252 10.9587ZM42.474 14.3652C42.9254 13.4757 45.519 11.1387 46.405 10.254C47.3112 9.34911 49.5909 6.78065 50.5155 6.33173C52.1983 7.44751 54.9104 12.9405 55.6759 15.0227C58.4406 22.5435 58.4835 31.3529 55.7113 38.9118C54.7276 41.5939 52.3274 46.2184 50.5155 47.7536C49.6693 47.3483 42.8345 40.4289 42.4743 39.738C43.5068 37.4458 46.941 34.7241 46.9414 27.0515C46.9415 21.5872 44.904 17.9045 42.474 14.3652ZM9.33915 42.1954C8.03522 41.2683 6.02251 37.4983 5.32001 35.7599C3.07024 30.1924 3.0947 23.919 5.31873 18.3456C5.9657 16.7242 8.07047 12.7414 9.33915 11.956C10.0558 12.3768 11.3604 13.659 11.7294 14.3653C11.178 15.5807 9.80041 16.7245 8.594 19.8665C7.77209 22.0071 7.23777 24.4536 7.23712 27.0518C7.23519 34.6929 10.7818 37.6832 11.7286 39.7384C11.3573 40.4397 10.1027 41.6287 9.33932 42.1958L9.33915 42.1954ZM12.0033 9.29069C12.7926 8.02215 16.8774 5.85335 18.5304 5.21337C24.1766 3.02734 30.3009 3.03105 35.9568 5.3204C37.7654 6.05246 41.4165 8.07237 42.2437 9.29052C41.6672 10.0598 40.4888 11.3053 39.7823 11.6797C38.9359 11.2852 38.0303 10.4686 37.1638 9.96093C36.2811 9.44376 35.3278 8.94574 34.2827 8.54447C32.1811 7.73773 29.6862 7.18804 27.0975 7.18788C19.5005 7.18756 16.7536 10.6135 14.4129 11.6827C13.6998 11.3111 12.4345 10.0087 12.0033 9.2902V9.29069ZM44.8562 47.5353C46.156 48.1435 54.783 57.6347 56.4341 58.8046C56.351 59.8101 54.7368 63.9217 58.8518 66.1317C62.4459 68.062 66.4699 65.3606 66.7471 61.992C66.9402 59.6451 66.0915 61.0507 69.9341 57.2075L75.2303 51.8184C76.0028 52.023 76.785 52.2364 77.7352 52.3557C78.6802 54.1705 90.516 76.3624 90.775 77.6051L57.5787 77.6163L60.399 97.8948C60.1989 98.0551 60.2247 98.0379 59.9905 98.2051C58.3735 99.3592 56.8106 100.123 56.1547 103.147C54.9434 108.729 60.3412 113.359 65.6432 111.461C68.0534 110.598 69.4376 108.784 70.1834 106.481L88.7285 106.48C92.2735 116.524 105.154 111.103 102.592 102.596C101.565 99.186 99.3543 98.7954 97.8582 97.7055C97.9751 94.8293 98.9959 90.4868 99.4749 87.5907C100.977 78.5084 102.596 67.6747 104.258 58.7219C104.381 58.0624 104.294 58.0534 104.767 57.729H111.854L111.896 54.1468L101.45 54.1517L97.4858 77.5333L94.9823 77.6233L81.1656 51.0796C82.1512 49.7357 83.5414 48.494 82.9297 45.7408C82.0022 41.5664 76.7567 40.0173 73.7056 43.2166C71.7087 45.3104 72.3666 46.4545 72.6373 49.3022L64.9516 57.0841C64.0296 56.8288 63.6527 56.274 62.3138 56.0301C60.7274 55.7412 60.2004 56.2777 58.8488 56.3918C58.2729 55.5617 56.8713 54.3192 56.0645 53.5138C55.2521 52.7029 53.7039 51.3833 53.1808 50.4734L56.6087 45.4572C57.7045 43.5939 58.5707 41.6907 59.3091 39.5568C60.834 35.1501 61.653 29.8593 61.3067 24.5062C60.8573 17.5625 58.5679 10.9233 54.7155 5.67291C53.7771 4.39391 51.5833 1.67977 50.5158 1.19657C48.9914 2.31557 46.0298 6.07644 44.8566 6.57301C43.3146 5.68965 42.227 4.26353 38.9517 2.70623C20.9142 -5.87013 0.134385 6.96415 0.05987 26.8572C0.0154507 38.7084 6.95902 47.1421 14.871 51.2016C23.468 55.6126 33.6598 54.9566 41.9212 49.684C42.8366 49.0999 43.9711 48.0063 44.8566 47.536L44.8562 47.5353Z" fill="#00A500"/>
<path fill-rule="evenodd" clip-rule="evenodd" d="M39.7396 72.2329L43.3365 72.2437L43.2888 108.273L42.5084 108.288L40.5624 108.298L39.7414 108.24L39.7396 72.2329ZM25.3599 79.4035L28.9123 79.397L28.8638 108.293L25.2918 108.253L25.3599 79.4035ZM10.843 86.6529L14.4677 86.7003L14.4173 108.28L10.8455 108.287L10.843 86.6529ZM0.0169009 111.368C0.0169009 112.261 1.86014 111.911 2.70395 111.91C9.76581 111.9 50.7386 112.168 52.3694 111.824L52.3324 108.304L46.9447 108.288L46.9341 68.6384C45.209 68.5107 37.5422 68.4531 36.1204 68.6854L36.0718 108.251L32.5263 108.269L32.4322 75.7656L21.676 75.7939L21.6258 108.255L18.0877 108.245L18.0878 83.0752L7.23584 83.0827L7.18691 108.269L1.31971 108.272C-0.24704 108.259 0.0169009 107.913 0.0169009 111.367V111.368Z" fill="#00A500"/>
<path fill-rule="evenodd" clip-rule="evenodd" d="M65.4494 35.0539C65.9076 35.662 67.6393 36.6748 68.274 36.8922C68.9756 36.3749 79.7403 19.2722 80.3717 18.0691L111.888 18.0343L111.943 14.9507C111.943 14.5118 111.84 14.4168 111.402 14.4168C100.763 14.4168 88.9699 14.2641 78.4737 14.4286C75.4539 18.8838 71.6927 25.0451 68.6724 29.7921C67.9071 30.9949 65.8485 33.9054 65.4494 35.0539Z" fill="#00A500"/>
<path fill-rule="evenodd" clip-rule="evenodd" d="M83.0626 25.2452L109.843 25.2467C112.08 25.2657 111.96 25.6856 111.952 23.5424C111.942 21.1119 112.94 21.6239 106.328 21.6239H83.14L83.0626 25.2454V25.2452Z" fill="#00A500"/>
<path fill-rule="evenodd" clip-rule="evenodd" d="M83.0589 32.479L111.9 32.4762L111.936 28.9261L83.1238 28.867L83.0589 32.479Z" fill="#00A500"/>
<path fill-rule="evenodd" clip-rule="evenodd" d="M102.893 36.6154C102.893 40.118 102.076 39.8404 106.434 39.6694L106.452 36.1091C105.693 36.0647 102.893 35.6361 102.893 36.6154H102.893Z" fill="#00A500"/>
<path fill-rule="evenodd" clip-rule="evenodd" d="M84.8803 88.4127C88.9351 88.6792 88.7166 88.8978 88.4496 84.932L84.9142 84.8223L84.8804 88.4127H84.8803Z" fill="#00A500"/>
<path fill-rule="evenodd" clip-rule="evenodd" d="M88.46 36.6154C88.46 40.2657 87.6837 39.7632 91.9993 39.6836L92.0186 36.0884C90.3952 36.0501 88.46 35.7576 88.46 36.6154Z" fill="#00A500"/>
<path fill-rule="evenodd" clip-rule="evenodd" d="M70.4009 88.3723L74.03 88.4288L74.007 84.8192L70.4676 84.8305L70.4009 88.3723Z" fill="#00A500"/>
<path fill-rule="evenodd" clip-rule="evenodd" d="M25.2908 61.2792L28.9129 61.3296L28.9097 57.7736L25.3018 57.7863L25.2908 61.2792Z" fill="#00A500"/>
<path fill-rule="evenodd" clip-rule="evenodd" d="M32.5368 61.3413L36.1245 61.3278L36.1523 57.8224L32.6073 57.72L32.5368 61.3413Z" fill="#00A500"/>
<path fill-rule="evenodd" clip-rule="evenodd" d="M77.6462 88.3544L81.2345 88.4208L81.2131 84.8432L77.7045 84.83L77.6462 88.3544Z" fill="#00A500"/>
<path fill-rule="evenodd" clip-rule="evenodd" d="M95.7038 39.6564L99.3059 39.6317L99.3051 36.2009L95.7039 36.1014L95.7038 39.6564Z" fill="#00A500"/>
<path fill-rule="evenodd" clip-rule="evenodd" d="M18.0873 61.2668L21.6703 61.3156L21.6673 57.8295L18.0981 57.783L18.0873 61.2668Z" fill="#00A500"/>
</svg>
