<svg width="72" height="97" viewBox="0 0 72 97" fill="none" xmlns="http://www.w3.org/2000/svg">
<path fill-rule="evenodd" clip-rule="evenodd" d="M51.885 89.5491C51.885 88.6663 51.9079 88.6865 52.7561 88.6865C55.8304 88.6853 65.117 88.5417 67.5092 88.7421C67.793 89.6805 67.7265 92.5679 67.612 93.6217C65.764 93.8304 52.923 93.9199 51.9247 93.5257L51.8854 89.5495L51.885 89.5491ZM50.2295 81.5422C48.4987 81.768 27.0987 81.5867 23.3278 81.6004C20.2375 81.6115 19.8255 80.0918 20.286 76.1369C21.9095 75.9057 43.5379 76.1377 48.2005 76.0771C48.3914 76.0745 48.9226 76.0577 49.0811 76.0775C50.0687 76.2009 49.3973 75.9911 49.6738 76.3201C50.0061 76.6919 50.2429 80.7561 50.2295 81.5426V81.5422ZM53.7353 85.4605C53.5799 83.2755 53.1063 75.4304 52.2031 73.771C50.1829 70.0587 47.2473 68.3368 46.844 65.9511C46.2375 62.3633 50.0664 62.8584 51.7861 64.1606C56.184 67.4909 59.0861 73.7036 61.0953 69.3415C62.0252 67.3229 63.1987 65.3813 63.2079 62.6459C63.2171 59.9201 63.0467 56.7341 63.2411 54.0684C64.1237 54.968 66.3822 58.9519 67.109 60.3181C68.7576 63.4164 69.2018 64.313 68.5648 68.3943C67.8877 72.7309 65.956 81.845 65.7387 85.5679C63.9988 85.6353 54.8245 85.7782 53.7346 85.4609L53.7353 85.4605ZM47.7617 72.8485C47.751 73.1479 46.6072 73.063 46.2555 73.0599C41.9847 73.023 21.6952 73.2439 20.144 72.9712L20.2223 30.6879C21.7006 30.3976 53.0109 30.5675 58.9578 30.5835C60.131 30.5865 59.914 30.6867 60.037 30.889C60.2234 39.6401 60.0458 49.471 60.0458 58.424C60.0458 63.7786 60.4964 62.1664 58.9688 66.5719C57.7991 66.1442 55.3114 63.0226 53.8697 61.9154C48.1187 57.4993 42.5892 61.5448 43.7204 66.7101C44.2757 69.2455 47.767 72.6985 47.7621 72.8489L47.7617 72.8485ZM20.2498 27.5324C20.2498 23.5721 19.413 20.2876 22.8031 20.2876H57.539C60.9864 20.2876 60.0454 24.5559 60.0454 27.5453L20.2494 27.5324H20.2498ZM50.5694 84.7395C51.0796 86.5997 49.9213 86.0406 49.1693 87.534C48.6007 88.6636 48.8169 90.3246 48.8153 91.6591C48.8077 98.2824 51.8507 96.8747 60.8894 96.8747C62.8722 96.8747 67.5952 97.203 69.0238 96.4146C71.2732 95.1734 70.8119 92.3005 70.792 89.5426C70.7806 87.9167 70.4361 87.1885 69.5123 86.407C68.8142 85.8166 68.8482 86.065 69.0089 84.8877C69.8048 79.0486 70.8157 74.0532 71.7937 68.2302C72.6648 63.0428 70.669 59.9143 67.8319 55.3744C66.7187 53.5931 65.5474 51.6922 64.4953 50.0914C63.7838 49.009 63.1476 48.5413 63.1483 47.0015L63.1571 25.5397C63.1571 22.5495 63.4199 20.3641 61.4982 18.6034C59.5997 16.864 57.4966 17.1732 54.3654 17.1732C48.5469 17.1732 42.7279 17.1732 36.9093 17.1732C33.6654 17.1732 22.2849 16.6964 20.1993 17.6695C18.0538 18.6704 17.1274 20.5039 17.1312 23.2518L17.1335 74.9532C17.1335 77.7964 16.7393 80.5611 18.1661 82.564C19.6788 84.6877 21.5199 84.7102 24.7424 84.7098C29.4588 84.7095 47.3549 84.4992 50.569 84.7392L50.5694 84.7395Z" fill="#FEFEFE"/>
<path fill-rule="evenodd" clip-rule="evenodd" d="M23.8651 2.32842C24.3085 1.41091 23.736 0.535304 23.1399 0.248512C22.5483 -0.0359943 21.1197 -0.00666766 20.331 0.0108522C9.7181 0.248131 -0.775685 10.7802 0.045013 22.2066C0.300885 25.7688 2.65605 24.5721 3.03298 23.9471C3.35492 23.4139 3.11012 19.558 3.35836 18.268C3.96672 15.1099 5.54625 12.1525 7.2942 10.0729C15.3656 0.470176 22.766 4.60104 23.8647 2.3288L23.8651 2.32842Z" fill="#FEFEFE"/>
<path fill-rule="evenodd" clip-rule="evenodd" d="M25.8564 9.18611C26.3899 8.58929 26.7294 6.73029 24.2238 6.57489C15.547 6.03787 6.66066 14.1583 6.82945 23.4301C6.85886 25.0427 7.01697 26.6941 8.83824 26.3932C11.6761 25.9244 7.77274 22.1043 12.6507 15.5896C14.7672 12.7632 17.8384 10.4673 21.6498 9.82025C23.2534 9.54793 25.0021 10.1417 25.856 9.18573L25.8564 9.18611Z" fill="#FEFEFE"/>
<path fill-rule="evenodd" clip-rule="evenodd" d="M29.1507 64.5705C27.0464 64.5705 27.2786 62.8079 28.9742 62.8079H32.8536C34.6916 62.8079 34.6947 64.5705 32.8536 64.5705H29.1507ZM24.5878 64.7545C24.8688 65.9074 25.8595 67.024 27.1178 67.4598C28.3445 67.8844 30.6947 67.6917 32.149 67.697C34.0008 67.7039 35.1094 67.6441 36.2242 66.5293C38.3319 64.422 37.5448 60.9908 34.8589 59.951C33.6426 59.4799 31.2912 59.6752 29.856 59.6718C28.0077 59.6676 26.9066 59.6372 25.7117 60.795C24.823 61.6561 24.1818 63.0893 24.5878 64.7545Z" fill="#FEFEFE"/>
<path fill-rule="evenodd" clip-rule="evenodd" d="M34.9692 25.4236H45.9014C48.6423 25.4236 48.6366 22.323 45.9014 22.323H34.9692C32.2192 22.323 32.2199 25.4236 34.9692 25.4236Z" fill="#FEFEFE"/>
<path fill-rule="evenodd" clip-rule="evenodd" d="M34.8589 48.8727C33.6426 48.4016 31.2912 48.597 29.856 48.5936C28.0077 48.5894 26.9066 48.5589 25.7117 49.7167C24.823 50.5779 24.1818 52.0111 24.5878 53.6762C24.8688 54.8291 25.8595 55.9458 27.1178 56.3815C28.3445 56.8062 30.6947 56.6135 32.149 56.6188C34.0008 56.6256 35.1094 56.5659 36.2242 55.4511C38.3319 53.3437 37.5448 49.9125 34.8589 48.8727ZM28.9746 51.7296H32.8539C34.692 51.7296 34.6951 53.4923 32.8539 53.4923H29.1511C27.0468 53.4923 27.279 51.7296 28.9746 51.7296Z" fill="#FEFEFE"/>
<path fill-rule="evenodd" clip-rule="evenodd" d="M34.8589 35.6841C33.6426 35.213 31.2912 35.4084 29.856 35.405C28.0077 35.4008 26.9066 35.3703 25.7117 36.5281C24.823 37.3893 24.1818 38.8225 24.5878 40.4876C24.8688 41.6405 25.8595 42.7572 27.1178 43.1929C28.3445 43.6176 30.6947 43.4249 32.149 43.4302C34.0008 43.437 35.1094 43.3773 36.2242 42.2625C38.3319 40.1551 37.5448 36.7239 34.8589 35.6841ZM28.9746 38.541H32.8539C34.692 38.541 34.6951 40.3037 32.8539 40.3037H29.1511C27.0468 40.3037 27.279 38.541 28.9746 38.541Z" fill="#FEFEFE"/>
<path fill-rule="evenodd" clip-rule="evenodd" d="M51.5764 48.8727C50.3601 48.4016 48.0087 48.597 46.5736 48.5936C44.7252 48.5894 43.6242 48.5589 42.4292 49.7167C41.5405 50.5779 40.8993 52.0111 41.3053 53.6762C41.5864 54.8291 42.577 55.9458 43.8354 56.3815C45.062 56.8062 47.4122 56.6135 48.8665 56.6188C50.7183 56.6256 51.827 56.5659 52.9417 55.4511C55.0494 53.3437 54.2623 49.9125 51.5764 48.8727ZM45.6921 51.7296H49.5715C51.4095 51.7296 51.4126 53.4923 49.5715 53.4923H45.8686C43.7643 53.4923 43.9965 51.7296 45.6921 51.7296Z" fill="#FEFEFE"/>
<path fill-rule="evenodd" clip-rule="evenodd" d="M51.5764 35.6841C50.3601 35.213 48.0087 35.4084 46.5736 35.405C44.7252 35.4008 43.6242 35.3703 42.4292 36.5281C41.5405 37.3893 40.8993 38.8225 41.3053 40.4876C41.5864 41.6405 42.577 42.7572 43.8354 43.1929C45.062 43.6176 47.4122 43.4249 48.8665 43.4302C50.7183 43.437 51.827 43.3773 52.9417 42.2625C55.0494 40.1551 54.2623 36.7239 51.5764 35.6841ZM45.6921 38.541H49.5715C51.4095 38.541 51.4126 40.3037 49.5715 40.3037H45.8686C43.7643 40.3037 43.9965 38.541 45.6921 38.541Z" fill="#FEFEFE"/>
</svg>
