<svg width="109" height="109" viewBox="0 0 109 109" fill="none" xmlns="http://www.w3.org/2000/svg">
<path fill-rule="evenodd" clip-rule="evenodd" d="M76.9459 105.434L32.1513 105.473C32.4121 103.963 33.9967 102.66 35.3749 102.224C37.1373 101.665 63.6137 101.971 67.4601 101.971C69.0804 101.971 72.4196 101.798 73.7271 102.224C75.1067 102.673 76.6726 103.952 76.9459 105.434ZM42.2535 91.4426L43.1558 91.3902L65.9649 91.3994L66.7996 91.43L66.8574 98.387L65.9422 98.4714L43.1564 98.4568L42.2436 98.4033L42.2535 91.443V91.4426ZM3.68642 77.3687L105.412 77.3374C105.618 78.9417 105.61 83.2914 105.108 84.5534C103.324 89.0403 97.941 87.9107 93.0931 87.9107H16.1945C11.246 87.9107 5.92375 89.0409 4.04508 84.6922C3.45932 83.3364 3.46816 79.0503 3.68642 77.3687ZM105.497 32.9295L105.513 73.7504L98.52 73.8385C98.2542 71.7295 98.4636 53.5043 98.4636 49.7393C98.4636 45.978 97.8999 41.7001 99.714 39.0588C100.635 37.7179 101.812 37.01 102.764 36.0431C103.076 35.7266 105.243 33.0568 105.496 32.9295H105.497ZM10.5528 24.5959L10.6337 73.7936L3.61638 73.8256C3.27641 69.6375 3.58409 64.0834 3.58409 59.813L3.58375 31.4916C3.57593 26.6535 5.47023 24.2886 10.5528 24.5955V24.5959ZM80.8828 59.7629L84.3746 59.7724L84.4001 66.7873L80.9521 66.8111L80.8828 59.7629ZM52.8092 56.2627L56.2102 56.2392L56.2915 66.7815L52.8673 66.8046L52.8092 56.2623V56.2627ZM66.8512 49.2689L70.3505 49.2587L70.3495 66.7196L66.8659 66.7829L66.8512 49.2686V49.2689ZM80.8892 45.6958L94.9129 45.6894C94.7062 54.9487 81.2204 55.0181 80.8892 45.6958ZM63.3404 66.7822L59.8292 66.7692L59.8064 52.7352L49.3748 52.7062C49.1583 54.3347 49.1916 68.2517 49.3412 70.3161L87.8406 70.3454L87.9344 56.3174C93.4535 55.7168 93.7635 53.9811 94.9235 53.7755C95.1006 59.2885 94.9432 67.5054 94.9425 73.3079C94.9425 73.7378 94.8528 73.8375 94.4224 73.8375H14.6756C14.2462 73.8375 14.1564 73.7361 14.1564 73.3079L14.1901 21.1327L66.8152 21.0715C67.145 23.351 67.0576 24.7276 67.6726 26.8941C69.8097 34.4242 73.9539 36.1622 75.9148 38.8022C79.2088 43.2366 75.0183 48.249 81.0262 53.652C82.6387 55.1021 83.4869 55.145 85.5189 56.0112L85.2415 56.1405C84.9923 56.2072 85.0946 56.2089 84.7489 56.2436C83.6637 56.3522 79.2652 56.1081 77.427 56.2793L77.3621 66.7965L73.8556 66.7447L73.8356 45.6907L63.3417 45.6982L63.3411 66.7815L63.3404 66.7822ZM88.2768 38.4213C88.2339 39.0836 88.2043 39.7476 88.1499 40.4095L87.9317 41.8614C87.9208 41.8957 87.8776 42.0278 87.8691 42.0012C87.8606 41.9747 87.8311 42.0965 87.7977 42.1381L86.8448 26.3676L88.9448 26.3618C89.1947 28.0373 88.6881 32.7141 88.5344 34.544C88.424 35.8597 88.36 37.1305 88.2768 38.421V38.4213ZM81.5107 22.8575C78.467 22.8575 78.7236 20.0957 80.1546 19.4985C82.4684 18.5323 83.1561 20.8676 82.9304 22.8388L82.0801 22.8575H81.5104H81.5107ZM92.9568 22.8374C92.7337 21.6412 92.9255 20.3888 93.5609 19.8061C95.3906 18.128 97.9291 20.9312 96.0304 22.4586C95.2886 23.0556 93.9406 22.8779 92.9564 22.8378L92.9568 22.8374ZM80.8233 42.0632C79.9771 36.0853 76.6563 35.1739 74.0001 31.7904C71.4446 28.5352 69.6754 23.5487 70.5746 18.2471C72.0412 9.60107 79.9156 2.61586 89.8375 3.60757C98.7175 4.4948 105.915 12.3884 105.447 21.992C104.965 31.8714 98.2633 34.0219 96.0964 38.3005C93.9648 42.5097 96.9358 42.3719 91.5792 42.1537C91.5993 40.4089 92.4186 27.1756 92.6984 26.531C94.4659 25.6148 96.8127 27.4587 99.2333 24.1388C100.837 21.9393 100.254 19.0043 98.761 17.4534C97.2679 15.9026 94.3989 15.1188 92.0388 16.5648C87.3316 19.4495 91.8083 23.7012 87.026 22.8657C86.2118 22.7234 86.4555 22.0322 86.3933 21.0384C86.0843 16.1003 81.0201 14.6733 77.9533 16.7187C76.149 17.9221 74.7321 20.8472 76.2742 23.6086C77.785 26.3139 79.6052 26.2434 83.2391 26.3799L84.2355 42.1894L80.8233 42.0632ZM14.2061 17.5205C13.9909 15.6198 14.0344 10.8535 14.1595 8.8663C14.2564 7.32734 15.1019 7.01629 16.5641 7.00267C34.7602 6.83353 53.8026 7.00982 72.0528 7.00982C71.8882 7.54822 70.8265 8.78871 70.4202 9.38122C67.6988 13.3488 68.0405 15.0201 67.0593 17.5834L14.2061 17.5198V17.5205ZM10.6102 21.0065C7.49237 21.4727 6.93176 20.8162 4.26912 22.4072C2.90279 23.2237 1.40659 24.8202 0.670893 26.79C-0.351392 29.5269 0.0987261 38.3087 0.0987261 41.9464L0.0973662 81.4819C0.0956664 84.2512 0.432575 85.8762 1.78395 87.7433C4.66655 91.7261 7.97852 91.3987 14.1054 91.3987C19.3586 91.3987 24.6118 91.3987 29.865 91.3987C32.4583 91.3987 35.3093 91.282 37.8655 91.3752C39.085 91.4198 38.7508 91.4967 38.7501 94.4065C38.7498 95.7222 38.7501 97.0379 38.7501 98.3536C36.5553 98.8134 33.9076 97.9041 30.7942 101.039C29.0624 102.783 27.8228 105.382 28.2702 108.954L80.8284 108.999C81.2574 105.514 80.059 102.843 78.4017 101.132C76.1283 98.7842 74.5719 98.7049 70.4539 98.4316C70.186 97.5045 70.3492 95.6582 70.3488 94.5964C70.3485 91.8878 69.9817 91.4807 71.0478 91.3786L94.9918 91.3987C101.066 91.3987 104.456 91.7193 107.313 87.7429C108.679 85.8425 109.003 84.2886 109 81.4819L108.999 25.2197C108.999 19.5635 108.913 15.7804 106.654 11.4426C101.253 1.06532 87.8827 -3.52058 77.0459 3.06849C75.9369 3.74268 75.0544 3.51092 73.536 3.51058L17.3334 3.50955C8.09105 3.49016 11.0875 10.8817 10.6102 21.0061V21.0065Z" fill="#00A500"/>
<path fill-rule="evenodd" clip-rule="evenodd" d="M21.2121 28.1303L42.2423 28.1381L42.2283 42.177L21.1659 42.0916L21.2125 28.1307L21.2121 28.1303ZM17.685 45.6664L45.7184 45.6888L45.7582 24.6733L17.7135 24.6018L17.685 45.6664Z" fill="#00A500"/>
<path fill-rule="evenodd" clip-rule="evenodd" d="M21.1734 52.7315L42.0981 52.7039C42.4109 53.6354 42.366 65.3226 42.1817 66.7972L21.2087 66.8064L21.1734 52.7318V52.7315ZM17.8118 70.3318L45.68 70.3458L45.7575 49.2622L17.771 49.22C17.5292 50.472 17.5653 69.4967 17.8118 70.3318Z" fill="#00A500"/>
<path fill-rule="evenodd" clip-rule="evenodd" d="M36.1626 34.9467C36.8252 34.2821 37.6591 33.742 38.0899 32.8231C37.6812 32.1816 36.4186 30.8853 35.7516 30.5146C34.6633 31.1198 31.3405 34.878 30.0554 36.0521C29.2636 35.7183 28.6024 34.62 27.7769 34.0765C27.1711 34.2977 25.6433 35.7438 25.3353 36.4343C26.1866 37.5438 28.9002 40.1677 29.9945 41.1009L36.1626 34.9467Z" fill="#00A500"/>
<path fill-rule="evenodd" clip-rule="evenodd" d="M38.0926 57.5326C37.7557 56.8972 36.2887 55.5084 35.7098 55.0728L30.0551 60.6385C29.1082 60.2988 28.5062 59.2775 27.7766 58.6649C27.0616 58.9498 25.8245 60.3499 25.3319 60.9539C25.6637 61.7081 29.5002 65.4378 30.0809 65.6831L38.0923 57.5326H38.0926Z" fill="#00A500"/>
<path fill-rule="evenodd" clip-rule="evenodd" d="M49.3034 28.1286H63.3305L63.3295 24.6018L49.3272 24.6021L49.3034 28.1286Z" fill="#00A500"/>
<path fill-rule="evenodd" clip-rule="evenodd" d="M49.3085 42.1745H63.3778L63.3278 38.6746H49.3986L49.3085 42.1745Z" fill="#00A500"/>
<path fill-rule="evenodd" clip-rule="evenodd" d="M49.3231 35.1462H63.2829L63.34 31.6462H49.4221L49.3231 35.1462Z" fill="#00A500"/>
<path fill-rule="evenodd" clip-rule="evenodd" d="M31.7362 14.0371L32.5232 14.0599L34.422 14.0562L35.2566 13.9537L35.262 10.6716C34.305 10.3732 32.7643 10.513 31.7287 10.5494L31.7362 14.0371Z" fill="#00A500"/>
<path fill-rule="evenodd" clip-rule="evenodd" d="M24.6999 14.0214L28.1798 14.0609L28.2206 13.2458L28.2131 10.5293L24.6924 10.5398L24.6999 14.0214Z" fill="#00A500"/>
<path fill-rule="evenodd" clip-rule="evenodd" d="M17.6904 14.0123L18.4723 14.065L20.3717 14.0562L21.137 14.0222L21.1707 10.5726L17.6836 10.5369L17.6904 14.0123Z" fill="#00A500"/>
<path fill-rule="evenodd" clip-rule="evenodd" d="M46.8233 81.0979C44.5391 82.2782 46.3273 85.1015 48.3073 84.1874C50.2631 83.2845 48.9444 80.0017 46.8233 81.0979Z" fill="#00A500"/>
<path fill-rule="evenodd" clip-rule="evenodd" d="M60.8732 81.0984C58.6189 82.2497 60.3578 85.1119 62.3585 84.1879C64.3062 83.2881 63.0092 80.0073 60.8732 81.0984Z" fill="#00A500"/>
<path fill-rule="evenodd" clip-rule="evenodd" d="M53.8532 81.0964C51.6349 82.2518 53.2817 85.1191 55.3395 84.191C57.2627 83.3235 55.9702 79.9938 53.8532 81.0964Z" fill="#00A500"/>
</svg>
