<svg width="166" height="91" viewBox="0 0 166 91" fill="none" xmlns="http://www.w3.org/2000/svg">
<path fill-rule="evenodd" clip-rule="evenodd" d="M82.1747 79.9111C81.024 79.3736 78.8897 77.3568 78.1872 76.4612L80.3259 63.7341L81.5221 63.6507L82.4117 63.666L83.5993 63.7265L86.3291 76.5235L82.1752 79.9111H82.1747ZM88.9293 55.7123C98.5121 55.0482 105.18 55.4774 108.399 62.3417C110.013 65.7859 109.362 69.5978 109.362 73.7971C109.362 77.9591 109.561 82.6403 109.316 86.739L54.6057 86.8032C54.3524 82.7616 54.5563 78.1466 54.5568 74.093C54.5568 69.9967 54.0376 65.4977 55.6691 62.1552C58.9516 55.4299 66.332 54.9494 75.3197 55.7329C77.2952 63.2168 75.9896 64.2069 74.48 73.238C73.4508 79.3951 72.8121 77.0198 79.0001 82.835C82.6387 86.2547 82.2514 85.055 88.2307 80.2055C91.4034 77.6321 90.8276 77.5136 89.723 72.761C88.723 68.4595 86.0781 59.751 88.9298 55.7123H88.9293ZM136.608 51.057C143.893 57.6662 141.732 57.5046 150.223 47.7159C151.443 46.3105 153.067 44.0972 154.4 43.0107C159.687 44.0291 161.742 49.6947 161.795 54.5534C161.856 60.183 162.218 67.9838 161.739 73.402L113.558 73.4615C113.273 70.4465 113.848 67.3821 113.345 64.4932C112.75 61.0691 111.42 60.6899 111.446 56.9268C111.48 51.8893 111.244 46.8519 116.903 43.6983C118.745 42.6717 118.905 43.2567 119.816 44.417L126.438 52.0092C128.205 54.0437 129.539 56.3721 131.512 55.3647C133.058 54.5754 134.958 51.8567 136.608 51.057ZM83.0043 59.4187C80.7285 59.4173 80.0802 60.1078 79.6383 55.6572L84.4265 55.6831C84.3224 56.4795 84.1933 56.9503 84.0206 57.6537C83.6929 58.9896 83.666 59.0586 83.0048 59.4187H83.0043ZM32.7704 52.4825C33.0271 51.5134 36.1614 46.8893 37.3331 46.5872L37.7347 54.504L32.7704 52.4825ZM21.6804 46.5843C22.8258 47.1721 25.7115 51.7575 25.9101 52.5793C24.3785 53.0881 22.678 54.1031 21.0206 54.3021L21.6804 46.5843ZM41.4515 46.4615C45.439 46.3283 47.9562 46.743 50.4043 48.6542C52.0276 49.9215 54.1993 52.6493 54.4493 55.5138C54.6364 57.6624 52.4498 58.0623 51.0564 62.8336C49.9422 66.6494 50.9244 69.4856 50.34 73.0865L31.0026 73.0971L30.9201 56.4008C33.3241 56.6051 39.3187 60.5695 41.2668 59.354C42.903 58.3327 41.5389 48.8523 41.4515 46.4615ZM4.30604 73.0582C3.8454 69.956 3.99799 56.1218 4.8185 53.6658C6.38948 48.963 10.8404 45.8593 17.3216 46.4577C17.6843 49.0302 16.0428 57.4365 17.0812 58.8841C18.8369 61.3309 24.4836 56.7 26.8578 56.8017L26.8079 73.0952L4.30556 73.0582H4.30604ZM139.98 48.3378C141.18 47.2402 147.695 42.5096 149.119 42.3734C148.544 43.552 143.166 49.9091 142.18 50.5314L139.98 48.3383V48.3378ZM130.701 50.4202C129.742 49.606 124.275 43.4321 123.777 42.3341C125.976 42.3461 127.476 44.1264 128.861 45.1406C130.167 46.0971 132.061 47.2599 133.091 48.438L130.701 50.4202ZM29.3837 49.5547C28.5857 49.0551 26.7211 46.1647 26.0267 45.1861C24.4217 42.9234 24.6698 42.2843 21.0921 42.3116C15.6522 42.3533 11.9949 41.8239 7.71719 44.1725C-1.4731 49.2186 0.104122 58.4094 0.104122 66.9874C0.104122 77.1598 -0.963992 77.2144 5.09105 77.2001C18.4751 77.1684 38.4439 76.6918 50.4576 77.2394C50.4576 87.2664 48.9101 90.8985 53.6585 90.8889L104.335 90.8755C109.597 90.8755 113.123 91.7439 113.46 88.876C113.801 85.9876 113.485 80.7684 113.485 77.6316C116.738 77.2907 155.351 77.5026 161.813 77.5448C165.227 77.5673 165.94 77.3616 165.916 73.8053C165.897 71.1384 165.907 68.4705 165.907 65.8031C165.907 54.0269 167.321 45.8795 159.146 40.6252C156.787 39.1096 149.435 36.6733 146.176 38.9489L136.626 45.4949C135.204 45.0514 129.95 40.8559 128.727 39.9477C126.91 38.5989 126.916 38.1971 123.891 38.211C117.862 38.2393 113.774 39.4366 110.131 44.3499C107.712 47.6123 107.575 49.9565 107.229 54.445C102.902 52.3957 102.574 51.5547 96.6321 51.5633L69.9696 51.5652C63.5321 51.5647 63.643 51.6688 58.4161 53.429C57.3187 51.9651 57.0884 48.9798 53.7948 46.1499C51.7474 44.3906 49.0358 42.7935 45.6798 42.42C43.7255 42.2027 35.646 41.8134 34.4157 43.0116C32.5463 44.8323 31.4124 47.7715 29.3837 49.5538V49.5547Z" fill="#FEFEFE"/>
<path fill-rule="evenodd" clip-rule="evenodd" d="M70.7239 30.7575C77.6086 30.0478 76.9123 30.7738 82.4112 26.1999C86.033 28.6578 85.1991 30.1245 93.2195 30.7584L93.2997 32.0559C93.874 50.6888 70.7186 49.5193 70.662 33.8319L70.7239 30.7575ZM70.709 26.536C70.6764 22.202 71.3765 19.8841 73.6523 17.385C79.2722 11.2126 93.2478 12.5691 93.2579 26.5576C82.0542 26.8434 86.8041 17.3893 81.8681 18.4102C78.7813 19.0484 81.9319 27.0913 70.709 26.536ZM76.7837 10.4929C77.3389 3.80882 86.688 3.69662 87.1827 10.4723C85.1645 10.2335 84.1473 9.73624 81.8153 9.75782C79.6287 9.77796 78.7832 10.2234 76.7833 10.4929H76.7837ZM66.5935 27.9117V34.1282C66.5935 55.1576 97.3989 54.9778 97.3989 34.1282C97.3989 27.0117 98.4118 20.2082 93.2718 14.6941C92.077 13.4125 91.2028 13.6105 91.2417 11.3545C91.4158 1.21863 79.9838 -1.88318 74.5727 4.97493C72.0569 8.16352 73.16 11.9654 72.3448 13.097C71.4787 14.2995 69.674 14.9579 67.9197 18.7942C66.4989 21.9028 66.593 24.1578 66.593 27.9117H66.5935Z" fill="#FEFEFE"/>
<path fill-rule="evenodd" clip-rule="evenodd" d="M19.2745 27.6829C28.4758 28.7656 26.9423 25.5866 29.399 25.5468C32.149 25.5022 29.5492 28.5915 39.6785 27.6982L39.764 32.413C37.4286 33.8807 31.35 38.2455 29.3827 38.913L19.3052 32.4346L19.274 27.6824L19.2745 27.6829ZM19.2817 22.9273C18.4885 15.139 19.8661 14.8806 27.0186 15.7825C29.4379 16.0874 31.601 16.5497 34.1153 16.3804C37.0375 16.1838 37.4948 15.3893 39.6128 14.7698L39.621 22.7998C38.6982 23.4715 38.3283 23.8216 36.7895 23.8216C31.9225 23.8216 33.6163 21.3623 29.3832 21.3915C25.4913 21.4184 24.6885 25.7534 19.2817 22.9273ZM18.9372 11.8224C18.9372 4.75092 19.5298 6.95369 24.3296 6.25316C28.6356 5.62455 33.4738 2.34294 37.681 6.58832C40.6929 9.62779 37.2304 12.6131 31.7464 12.2515C26.1851 11.8852 24.9908 11.0394 18.9367 11.8219L18.9372 11.8224ZM30.5055 0.512733C28.1433 0.985028 25.413 1.95407 23.1588 2.18279C19.7227 2.53185 18.3316 2.14826 16.323 4.50878C13.7751 7.50366 14.8236 16.401 14.9608 20.8823C15.0505 23.8058 15.0534 26.7604 15.0956 29.6876C15.1796 35.5244 13.8476 33.8213 23.1045 39.8168C24.2259 40.5432 27.8708 43.1262 28.6927 43.3756C30.6125 43.9581 38.086 38.3448 40.0653 37.1043C44.9769 34.026 43.9107 35.0891 43.7893 22.8789C43.7389 17.7901 44.4601 10.0986 42.4683 6.23877C40.5869 2.59323 36.0755 -0.601117 30.506 0.512733H30.5055Z" fill="#FEFEFE"/>
<path fill-rule="evenodd" clip-rule="evenodd" d="M125.948 14.6404C129.553 15.8712 128.905 16.6341 135.156 16.1997C145.889 15.454 146.531 12.6567 146.622 24.3634C146.732 38.2824 127.12 39.5142 126.087 24.8424C125.904 22.2479 125.689 17.116 125.947 14.6404H125.948ZM126.135 6.46222C127.976 6.13857 131.636 6.33228 133.664 6.34475C138.219 6.37208 136.391 5.81875 139.27 4.47187C141.586 3.38823 146.237 5.9367 146.38 11.6671C143.87 11.5822 142.668 11.0653 139.687 11.4513C137.496 11.7351 135.989 12.0895 133.664 12.2156C128.601 12.4899 125.832 9.65657 126.135 6.46222ZM121.733 7.78129C121.733 20.9859 119.897 32.8259 129.831 37.9588C139.126 42.7618 148.195 36.5261 150.327 28.5771C151.185 25.377 150.584 17.0359 150.527 13.1098C150.441 7.13782 149.126 4.16596 145.331 1.7642C143.837 0.818654 141.236 -0.268344 139.019 0.0601049C136.44 0.442256 137.335 2.27582 132.778 2.24033C127.049 2.19574 121.733 1.18786 121.733 7.78081L121.733 7.78129Z" fill="#FEFEFE"/>
<path fill-rule="evenodd" clip-rule="evenodd" d="M26.1827 30.5295C23.9409 31.5043 24.5992 34.0053 26.4696 34.3582C27.3521 34.5246 32.0415 34.5198 32.767 34.2528C34.4752 33.6242 34.4575 30.788 32.2771 30.368C30.9566 30.1133 27.198 30.0884 26.1832 30.5295H26.1827Z" fill="#FEFEFE"/>
</svg>
