<svg width="274" height="87" viewBox="0 0 274 87" fill="none" xmlns="http://www.w3.org/2000/svg">
<g clip-path="url(#clip0_14_1062)">
<path fill-rule="evenodd" clip-rule="evenodd" d="M35.3252 21.4431C36.6476 21.4431 37.7194 22.5175 37.7194 23.8431C37.7194 25.1686 36.6476 26.2431 35.3252 26.2431C34.0029 26.2431 32.9311 25.1686 32.9311 23.8431C32.9311 22.5175 34.0029 21.4431 35.3252 21.4431Z" fill="#9B2773"/>
<path fill-rule="evenodd" clip-rule="evenodd" d="M6.61252 12.3246C6.61252 12.3246 7.90778 15.8894 7.94432 17.2054C7.98065 18.5214 8.01739 21.5549 8.81928 23.4555C9.62128 25.356 11.4329 29.1579 12.7087 30.2175C14.3797 31.6049 14.6586 29.7093 13.0605 28.0746C13.0605 28.0746 12.4453 26.9852 13.21 25.7432C13.368 25.4864 13.4518 25.2086 13.6075 24.9759C14.2053 24.0837 14.9243 23.6279 15.3283 23.2516C15.8381 22.7769 17.8547 20.9105 18.8023 20.6184C19.7503 20.326 20.3448 19.837 20.3448 19.837L19.9377 18.3622L20.6107 17.2024L21.7109 16.7396L23.3055 16.7766L23.8944 16.2277L22.504 14.4354L18.0806 12.2384L12.4265 8.50024C12.4265 8.50024 9.74185 11.9868 6.61252 12.3246Z" fill="#E6DFD3"/>
<path fill-rule="evenodd" clip-rule="evenodd" d="M37.5991 20.5671C38.9213 20.5671 39.9931 21.6415 39.9931 22.967C39.9931 24.2925 38.9213 25.367 37.5991 25.367C36.2766 25.367 35.2047 24.2925 35.2047 22.967C35.2047 21.6415 36.2766 20.5671 37.5991 20.5671Z" fill="#9B2773"/>
<path fill-rule="evenodd" clip-rule="evenodd" d="M6.09122 11.403C6.25743 11.6685 6.38525 11.8715 6.61253 12.3246C8.8816 12.0917 11.2421 10.6448 12.3659 8.80477C14.3088 10.7355 18.009 12.3496 20.5668 13.6326C21.5837 14.1425 22.7614 15.2938 23.484 16.2278C23.0508 15.8636 19.0309 16.0821 19.7537 19.7317L22.684 18.4391C23.1615 17.2911 24.6112 16.5932 26.1477 16.871C25.7525 16.0636 22.7657 13.0208 18.5911 11.3941C14.6896 9.85884 12.3166 7.00342 12.3166 7.00342C10.8702 9.85801 8.74177 10.617 6.09122 11.403Z" fill="#C8C1B7"/>
<path fill-rule="evenodd" clip-rule="evenodd" d="M26.4521 15.9269C24.4254 13.6306 23.8171 13.0048 24.0821 9.8413C24.2354 8.68338 25.6295 7.78411 25.8932 9.49105C25.9817 10.0637 24.6311 10.7743 25.7412 12.9208C26.2882 13.8163 27.245 15.1503 27.245 15.1503C27.245 15.1503 26.6435 15.3148 26.4521 15.9269Z" fill="#56A543"/>
<path fill-rule="evenodd" clip-rule="evenodd" d="M25.1051 8.54956C24.4238 11.3062 24.0989 12.4307 26.7842 15.415C26.6514 15.5334 26.5234 15.6992 26.4521 15.927C24.4254 13.6307 23.8171 13.0049 24.0821 9.84142C24.1688 9.18594 24.6533 8.61347 25.1051 8.54956Z" fill="#469337"/>
<path fill-rule="evenodd" clip-rule="evenodd" d="M12.62 6.17425C12.2448 5.50975 11.1067 3.90603 10.4918 3.1936C9.64479 3.3125 8.99897 5.57854 7.42395 6.80244C5.93463 7.95984 3.54447 7.87175 3.28925 8.76252C3.86945 9.62881 5.05128 11.1052 5.38154 11.4868C7.65589 11.5943 12.5019 9.09171 12.62 6.17425Z" fill="#B2CBE6"/>
<path fill-rule="evenodd" clip-rule="evenodd" d="M9.38593 4.89038L11.7725 8.2329C11.0738 9.1275 10.0235 9.90654 8.92661 10.4783L6.69263 7.25176C6.95013 7.12561 7.19738 6.97849 7.42394 6.80254C7.98624 6.36566 8.42982 5.79588 8.80676 5.23845L9.38593 4.89038Z" fill="#7C97C2"/>
<path fill-rule="evenodd" clip-rule="evenodd" d="M8.98799 10.4456L6.75536 7.22046C5.9073 7.65049 4.93847 7.84284 4.23727 8.0827L6.4874 11.3803C7.25721 11.2211 8.13828 10.8954 8.98799 10.4456Z" fill="#B2CBE6"/>
<path fill-rule="evenodd" clip-rule="evenodd" d="M9.63722 3.95718L9.38593 4.89028L11.7725 8.23279C12.271 7.59434 12.5907 6.89705 12.62 6.17425C12.2448 5.50975 11.1067 3.90603 10.4918 3.1936C10.1985 3.23479 9.92928 3.53358 9.63722 3.95718Z" fill="#5C6F95"/>
<path fill-rule="evenodd" clip-rule="evenodd" d="M6.79448 11.3095L4.37048 8.03882C3.80735 8.21944 3.38809 8.41749 3.28925 8.76256C3.86945 9.62884 5.05128 11.1053 5.38154 11.4868C5.78508 11.5059 6.26975 11.4425 6.79448 11.3095Z" fill="#7D97C3"/>
<path fill-rule="evenodd" clip-rule="evenodd" d="M35.0726 20.9734C36.3948 20.9734 37.4666 22.0477 37.4666 23.3734C37.4666 24.6988 36.3948 25.7731 35.0726 25.7731C33.7501 25.7731 32.6783 24.6988 32.6783 23.3734C32.6783 22.0477 33.7501 20.9734 35.0726 20.9734Z" fill="#9B2773"/>
<path fill-rule="evenodd" clip-rule="evenodd" d="M8.86887 6.86276C10.5136 5.59384 11.0321 4.04054 10.4918 3.19365C9.74021 2.11936 8.21932 2.2008 5.59733 4.23859C3.13969 6.14857 1.97939 7.55621 3.28924 8.76258C3.99168 9.40923 6.05148 9.03709 8.86887 6.86276Z" fill="#556C90"/>
<path fill-rule="evenodd" clip-rule="evenodd" d="M29.1752 10.7845C28.6776 7.56791 29.8611 1.64926 33.0209 1.57778C35.6689 1.5175 36.4878 2.91383 38.5543 4.4193C40.6913 -0.00477235 44.7687 -2.34872 47.7982 3.43215C50.0445 7.71835 50.6281 11.7201 51.4082 16.3889C51.4082 16.3889 44.6175 22.92 39.7176 24.0861C34.8175 25.2523 29.1752 10.7845 29.1752 10.7845Z" fill="#EB8A38"/>
<path fill-rule="evenodd" clip-rule="evenodd" d="M36.8974 8.87753C37.1527 9.60874 37.4075 10.5229 37.0065 10.8153C36.6055 11.1073 35.803 11.1439 36.2411 11.4362C40.1725 14.0622 47.4899 11.4115 43.1872 10.2119C42.1341 9.91801 36.2076 6.90147 36.8974 8.87753Z" fill="#F7A756"/>
<path fill-rule="evenodd" clip-rule="evenodd" d="M34.3084 11.4363H36.2411C35.848 13.7141 36.7056 14.5282 33.7365 13.8009L33.3055 11.9848L34.3084 11.4363Z" fill="#F7A756"/>
<path fill-rule="evenodd" clip-rule="evenodd" d="M38.1983 16.1889C39.752 15.8289 48.4279 16.9857 42.3843 19.039C37.9728 20.5378 36.4777 18.929 36.4777 18.929C36.5444 18.1551 36.6113 17.3816 36.6784 16.608C37.1851 16.4679 37.6917 16.3286 38.1983 16.1889Z" fill="#F7A756"/>
<path fill-rule="evenodd" clip-rule="evenodd" d="M31.5264 2.11937C33.336 3.77413 37.4428 7.63517 37.4428 7.63517C37.4428 7.63517 37.9859 5.66803 38.4554 4.34671C36.4611 2.86915 35.6263 1.51847 33.0209 1.57781C32.4612 1.59047 31.9638 1.78728 31.5264 2.11937Z" fill="#E5772B"/>
<path fill-rule="evenodd" clip-rule="evenodd" d="M42.7551 0.122454C44.6079 3.23953 48.37 10.5913 48.4404 18.9778C50.2023 17.5486 51.4082 16.3888 51.4082 16.3888C50.6281 11.72 50.0445 7.71828 47.7982 3.43208C46.2572 0.491482 44.445 -0.345859 42.7551 0.122454Z" fill="#E5772B"/>
<path fill-rule="evenodd" clip-rule="evenodd" d="M37.9896 20.5785C39.3074 20.9127 40.1054 22.2544 39.772 23.5754C39.4386 24.8964 38.0999 25.6963 36.782 25.362C35.4642 25.0277 34.6663 23.686 34.9998 22.3649C35.3334 21.044 36.6719 20.2441 37.9896 20.5785Z" fill="#A2207B"/>
<path fill-rule="evenodd" clip-rule="evenodd" d="M39.6971 22.1214C39.6944 22.3107 39.6699 22.5026 39.6215 22.6942C39.2883 24.0154 37.9497 24.815 36.6317 24.4808C35.8129 24.2729 35.195 23.6762 34.9243 22.9372C34.927 22.7482 34.9514 22.5563 34.9998 22.3649C35.3333 21.044 36.6719 20.2441 37.9896 20.5785C38.8084 20.7862 39.4262 21.3827 39.6971 22.1214Z" fill="#AA3185"/>
<path d="M37.4628 23.3943C37.4628 23.3943 36.8586 23.948 36.2245 23.2974" stroke="#B74C95" stroke-width="1.4332" stroke-linecap="round" stroke-linejoin="round"/>
<path fill-rule="evenodd" clip-rule="evenodd" d="M8.60133 6.50014C11.7425 4.2176 10.7486 0.422752 5.45119 3.98272C1.09293 6.9118 2.03693 11.2703 8.60133 6.50014Z" fill="#93B2DC" stroke="#93B2DC" stroke-width="0.766866"/>
<path fill-rule="evenodd" clip-rule="evenodd" d="M30.2433 15.9055C32.8933 15.9055 35.0424 18.0596 35.0424 20.7163C35.0424 23.3729 32.8933 25.5269 30.2433 25.5269C27.5931 25.5269 25.4442 23.3729 25.4442 20.7163C25.4442 18.0596 27.5931 15.9055 30.2433 15.9055Z" fill="#9B2773"/>
<path fill-rule="evenodd" clip-rule="evenodd" d="M13.4572 29.2262C16.8265 27.8811 19.7394 27.4217 23.3796 27.2149C24.0274 27.1782 25.0806 26.9108 25.0806 26.9108C22.5105 25.6589 22.2984 23.5876 24.0741 21.4943C23.2407 20.7084 22.3131 19.7815 22.684 18.4392L19.7398 19.7349C17.5069 20.7182 13.1103 23.9968 12.6557 26.3613C12.4109 27.6362 12.5355 28.3444 13.4572 29.2262Z" fill="white"/>
<path fill-rule="evenodd" clip-rule="evenodd" d="M19.7528 19.7292C19.8185 19.9774 19.9187 20.188 20.0133 20.355C20.3528 20.9536 20.6438 21.17 21.0541 21.5203C20.3375 22.3127 19.9511 22.726 20.0519 23.8931C20.1644 25.1906 21.0378 26.1966 22.2085 26.6525L23.602 27.1956C24.2427 27.1235 25.0806 26.9108 25.0806 26.9108C22.5105 25.659 22.2984 23.5876 24.0741 21.4943C23.2407 20.7084 22.3131 19.7815 22.6839 18.4392L19.7528 19.7292Z" fill="#D8D8D8"/>
<path fill-rule="evenodd" clip-rule="evenodd" d="M27.7237 15.001C27.7237 15.001 27.2527 14.1634 27.3667 13.166C27.4804 12.1687 28.1711 10.9112 28.1716 10.9121L28.6276 11.6887C28.6276 11.6887 29.8738 9.44291 30.7926 8.88673C31.0741 9.11269 31.2254 9.35857 31.2254 9.35857C31.6433 8.51324 32.1064 7.78161 32.8204 6.98193C33.7929 9.04307 34.6134 9.56585 34.3703 13.1651C34.6615 12.8759 34.9678 12.7008 35.4945 12.617C35.5829 14.0335 35.1551 14.391 34.735 15.0383C34.735 15.0383 34.1423 13.2544 32.7142 13.0889C30.9698 12.887 30.2724 13.6379 29.5615 14.8331C29.5615 14.8331 28.5439 14.3149 27.7237 15.001Z" fill="#54A342"/>
<path fill-rule="evenodd" clip-rule="evenodd" d="M32.7612 7.04885L32.3237 13.0588C32.4477 13.0632 32.578 13.0731 32.7143 13.0889C34.1423 13.2544 34.735 15.0383 34.735 15.0383C35.1551 14.391 35.5829 14.0335 35.4945 12.617C34.9678 12.7008 34.6616 12.8759 34.3703 13.1651C34.6134 9.56585 33.7929 9.04307 32.8205 6.98193L32.7612 7.04885Z" fill="#479234"/>
<path fill-rule="evenodd" clip-rule="evenodd" d="M31.8608 13.022C33.3258 13.022 34.5133 14.2123 34.5133 15.6806C34.5133 17.1491 33.3258 18.3393 31.8608 18.3393C30.396 18.3393 29.2086 17.1491 29.2086 15.6806C29.2086 14.2123 30.396 13.022 31.8608 13.022Z" fill="#A2207B"/>
<path fill-rule="evenodd" clip-rule="evenodd" d="M33.037 22.6501C34.3332 22.6501 35.3842 23.7034 35.3842 25.003C35.3842 26.3027 34.3332 27.3559 33.037 27.3559C31.7403 27.3559 30.6895 26.3027 30.6895 25.003C30.6895 23.7034 31.7403 22.6501 33.037 22.6501Z" fill="#9B2773"/>
<path fill-rule="evenodd" clip-rule="evenodd" d="M33.2182 22.6958C34.4433 22.6958 35.4364 23.6914 35.4364 24.9194C35.4364 26.1476 34.4433 27.1431 33.2182 27.1431C31.993 27.1431 30.9999 26.1476 30.9999 24.9194C30.9999 23.6914 31.993 22.6958 33.2182 22.6958Z" fill="#A2207B"/>
<path fill-rule="evenodd" clip-rule="evenodd" d="M35.405 24.5452C35.3707 25.7435 34.3912 26.7037 33.1877 26.7037C32.0901 26.7037 31.1787 25.9049 31.0009 24.8552C31.0348 23.657 32.0143 22.6958 33.2182 22.6958C34.3161 22.6958 35.2274 23.4954 35.405 24.5452Z" fill="#AA3185"/>
<path d="M33.8684 25.4485C33.8684 25.4485 33.405 26.0239 32.7519 25.5309" stroke="#B74C95" stroke-width="1.4332" stroke-linecap="round" stroke-linejoin="round"/>
<path fill-rule="evenodd" clip-rule="evenodd" d="M29.0551 24.0361C30.2804 24.0361 31.2734 25.0316 31.2734 26.2598C31.2734 27.488 30.2804 28.4834 29.0551 28.4834C27.83 28.4834 26.837 27.488 26.837 26.2598C26.837 25.0316 27.83 24.0361 29.0551 24.0361Z" fill="#A2207B"/>
<path fill-rule="evenodd" clip-rule="evenodd" d="M31.2267 26.7157C30.8251 27.2859 30.1627 27.6581 29.4134 27.6581C28.1881 27.6581 27.1954 26.6627 27.1954 25.4344C27.1954 25.2781 27.2115 25.1256 27.2421 24.9785C27.6435 24.4084 28.306 24.0361 29.0551 24.0361C30.2804 24.0361 31.2734 25.0316 31.2734 26.2598C31.2734 26.4162 31.2573 26.5686 31.2267 26.7157Z" fill="#AA3185"/>
<path d="M29.7051 26.7886C29.7051 26.7886 29.2415 27.3639 28.5886 26.8707" stroke="#B74C95" stroke-width="0.377953" stroke-linecap="round" stroke-linejoin="round"/>
<path fill-rule="evenodd" clip-rule="evenodd" d="M36.521 15.7153C38.1621 15.7153 39.4928 17.0493 39.4928 18.6943C39.4928 20.3394 38.1621 21.6734 36.521 21.6734C34.8797 21.6734 33.5493 20.3394 33.5493 18.6943C33.5493 17.0493 34.8797 15.7153 36.521 15.7153Z" fill="#9B2773"/>
<path fill-rule="evenodd" clip-rule="evenodd" d="M36.2692 15.6609C37.9103 15.6609 39.2411 16.9948 39.2411 18.6397C39.2411 20.2849 37.9103 21.6189 36.2692 21.6189C34.6279 21.6189 33.2974 20.2849 33.2974 18.6397C33.2974 16.9948 34.6279 15.6609 36.2692 15.6609Z" fill="#A2207B"/>
<path fill-rule="evenodd" clip-rule="evenodd" d="M38.7178 16.9516C38.7334 17.0755 38.7415 17.2016 38.7415 17.3297C38.7415 18.9744 37.4106 20.3082 35.7699 20.3082C34.7538 20.3082 33.8568 19.7967 33.321 19.0167C33.3054 18.8932 33.2974 18.7675 33.2974 18.6397C33.2974 16.9948 34.6279 15.6609 36.2692 15.6609C37.2849 15.6609 38.1818 16.172 38.7178 16.9516Z" fill="#AA3185"/>
<path d="M36.0284 16.0348C36.0284 16.0348 36.8786 15.8218 37.1979 16.4765" stroke="#B74C95" stroke-width="1.43244" stroke-linecap="round" stroke-linejoin="round"/>
<path fill-rule="evenodd" clip-rule="evenodd" d="M33.3706 16.9265C35.0673 16.9265 36.443 18.3055 36.443 20.0061C36.443 21.707 35.0673 23.086 33.3706 23.086C31.6741 23.086 30.2985 21.707 30.2985 20.0061C30.2985 18.3055 31.6741 16.9265 33.3706 16.9265Z" fill="#9B2773"/>
<path fill-rule="evenodd" clip-rule="evenodd" d="M32.2108 12.8342C33.7019 12.8342 34.9108 14.0462 34.9108 15.5408C34.9108 17.0354 33.7019 18.2472 32.2108 18.2472C30.7197 18.2472 29.5108 17.0354 29.5108 15.5408C29.5108 14.0462 30.7197 12.8342 32.2108 12.8342Z" fill="#9B2773"/>
<path fill-rule="evenodd" clip-rule="evenodd" d="M32.0813 12.8286C33.5462 12.8286 34.7335 14.0188 34.7335 15.4872C34.7335 16.9556 33.5462 18.1459 32.0813 18.1459C30.6165 18.1459 29.4289 16.9556 29.4289 15.4872C29.4289 14.0188 30.6165 12.8286 32.0813 12.8286Z" fill="#A2207B"/>
<path fill-rule="evenodd" clip-rule="evenodd" d="M34.6776 16.0326C34.1975 16.7142 33.4055 17.1594 32.5098 17.1594C31.0446 17.1594 29.8573 15.9691 29.8573 14.5006C29.8573 14.3139 29.8765 14.1316 29.9132 13.9556C30.3933 13.2739 31.1855 12.8286 32.0813 12.8286C33.5462 12.8286 34.7335 14.0188 34.7335 15.4872C34.7335 15.6741 34.7142 15.8565 34.6776 16.0326Z" fill="#AA3185"/>
<path d="M30.9121 15.0176C30.9121 15.0176 30.2612 14.4209 30.8963 13.6758" stroke="#B74C95" stroke-width="1.43282" stroke-linecap="round" stroke-linejoin="round"/>
<path fill-rule="evenodd" clip-rule="evenodd" d="M33.2854 16.8938C34.9266 16.8938 36.2572 18.2278 36.2572 19.8729C36.2572 21.5179 34.9266 22.8518 33.2854 22.8518C31.6442 22.8518 30.3135 21.5179 30.3135 19.8729C30.3135 18.2278 31.6442 16.8938 33.2854 16.8938Z" fill="#A2207B"/>
<path fill-rule="evenodd" clip-rule="evenodd" d="M36.2257 20.3062C35.7006 21.1487 34.7675 21.7094 33.7037 21.7094C32.0621 21.7094 30.7315 20.3754 30.7315 18.7304C30.7315 18.5834 30.7424 18.4391 30.7628 18.2976C31.2879 17.4548 32.2213 16.8938 33.2854 16.8938C34.9266 16.8938 36.2572 18.2278 36.2572 19.8729C36.2572 20.0202 36.2462 20.1647 36.2257 20.3062Z" fill="#AA3185"/>
<path d="M32.3669 17.7862C32.3669 17.7862 33.1872 17.4511 33.7037 17.908" stroke="#B74C95" stroke-width="1.43244" stroke-linecap="round" stroke-linejoin="round"/>
<path fill-rule="evenodd" clip-rule="evenodd" d="M25.7145 21.186C27.3557 21.186 28.6862 22.5199 28.6862 24.165C28.6862 25.81 27.3557 27.144 25.7145 27.144C24.0734 27.144 22.7426 25.81 22.7426 24.165C22.7426 22.5199 24.0734 21.186 25.7145 21.186Z" fill="#9B2773"/>
<path fill-rule="evenodd" clip-rule="evenodd" d="M25.3048 16.7222C26.7074 16.7222 27.8442 17.8618 27.8442 19.2678C27.8442 20.6737 26.7074 21.8132 25.3048 21.8132C23.9022 21.8132 22.7656 20.6737 22.7656 19.2678C22.7656 17.8618 23.9022 16.7222 25.3048 16.7222Z" fill="#9B2773"/>
<path fill-rule="evenodd" clip-rule="evenodd" d="M25.0292 16.6116C26.4318 16.6116 27.5686 17.7512 27.5686 19.1572C27.5686 20.563 26.4318 21.7026 25.0292 21.7026C23.6266 21.7026 22.4899 20.563 22.4899 19.1572C22.4899 17.7512 23.6266 16.6116 25.0292 16.6116Z" fill="#A2207B"/>
<path fill-rule="evenodd" clip-rule="evenodd" d="M27.5151 19.6793C27.0553 20.332 26.2971 20.7581 25.4397 20.7581C24.0368 20.7581 22.9001 19.6186 22.9001 18.2124C22.9001 18.0335 22.9185 17.8591 22.9535 17.6906C23.4133 17.038 24.1715 16.6116 25.0292 16.6116C26.4318 16.6116 27.5686 17.7512 27.5686 19.1572C27.5686 19.3361 27.5501 19.5108 27.5151 19.6793Z" fill="#AA3185"/>
<path d="M24.4978 17.5729C24.4978 17.5729 25.0137 16.9027 25.774 17.4511" stroke="#B74C95" stroke-width="1.43244" stroke-linecap="round" stroke-linejoin="round"/>
<path fill-rule="evenodd" clip-rule="evenodd" d="M28.4502 14.3486C29.7923 14.3486 30.8806 15.4393 30.8806 16.7847C30.8806 18.1302 29.7923 19.2209 28.4502 19.2209C27.108 19.2209 26.02 18.1302 26.02 16.7847C26.02 15.4393 27.108 14.3486 28.4502 14.3486Z" fill="#9B2773"/>
<path fill-rule="evenodd" clip-rule="evenodd" d="M25.4663 20.9099C27.1075 20.9099 28.4384 22.2438 28.4384 23.8887C28.4384 25.5339 27.1075 26.8679 25.4663 26.8679C23.8251 26.8679 22.4944 25.5339 22.4944 23.8887C22.4944 22.2438 23.8251 20.9099 25.4663 20.9099Z" fill="#A2207B"/>
<path fill-rule="evenodd" clip-rule="evenodd" d="M28.4349 24.0303C27.9139 24.8914 26.9699 25.4669 25.8919 25.4669C24.2508 25.4669 22.9203 24.133 22.9203 22.4879C22.9203 22.4403 22.9216 22.3929 22.9238 22.3458C23.4448 21.485 24.3886 20.9099 25.4663 20.9099C27.1075 20.9099 28.4384 22.2438 28.4384 23.8887C28.4384 23.9362 28.4372 23.9834 28.4349 24.0303Z" fill="#AA3185"/>
<path d="M24.1841 22.2378C24.1841 22.2378 24.239 23.511 24.8529 23.6998" stroke="#B74C95" stroke-width="1.43244" stroke-linecap="round" stroke-linejoin="round"/>
<path fill-rule="evenodd" clip-rule="evenodd" d="M30.1931 18.7925C31.8285 18.7925 33.1545 20.1218 33.1545 21.7612C33.1545 23.4005 31.8285 24.7297 30.1931 24.7297C28.5577 24.7297 27.2315 23.4005 27.2315 21.7612C27.2315 20.1218 28.5577 18.7925 30.1931 18.7925Z" fill="#9B2773"/>
<path fill-rule="evenodd" clip-rule="evenodd" d="M29.9898 18.6821C31.6309 18.6821 32.9615 20.0159 32.9615 21.6611C32.9615 23.3062 31.6309 24.6402 29.9898 24.6402C28.3487 24.6402 27.018 23.3062 27.018 21.6611C27.018 20.0159 28.3487 18.6821 29.9898 18.6821Z" fill="#A2207B"/>
<path fill-rule="evenodd" clip-rule="evenodd" d="M32.9563 21.4879C32.5874 22.7125 31.4536 23.6043 30.1115 23.6043C28.5282 23.6043 27.2341 22.3631 27.1447 20.7988C27.5135 19.574 28.6479 18.6821 29.9898 18.6821C31.5728 18.6821 32.8669 19.9234 32.9563 21.4879Z" fill="#AA3185"/>
<path d="M28.6987 21.3562C28.6987 21.3562 28.5452 20.186 29.4989 19.7117" stroke="#B74C95" stroke-width="1.43244" stroke-linecap="round" stroke-linejoin="round"/>
<path fill-rule="evenodd" clip-rule="evenodd" d="M28.4173 14.3806C29.6761 14.3806 30.6964 15.4034 30.6964 16.6652C30.6964 17.9269 29.6761 18.9497 28.4173 18.9497C27.1584 18.9497 26.1381 17.9269 26.1381 16.6652C26.1381 15.4034 27.1584 14.3806 28.4173 14.3806Z" fill="#A2207B"/>
<path fill-rule="evenodd" clip-rule="evenodd" d="M30.6484 17.1335C30.2359 17.7193 29.5554 18.1019 28.7856 18.1019C27.5265 18.1019 26.506 17.0794 26.506 15.8175C26.506 15.6571 26.5226 15.5007 26.5539 15.3496C26.9665 14.7634 27.6471 14.3806 28.4173 14.3806C29.6761 14.3806 30.6964 15.4034 30.6964 16.6652C30.6964 16.8257 30.6798 16.9823 30.6484 17.1335Z" fill="#AA3185"/>
<path d="M27.2977 15.9551C27.2977 15.9551 27.1054 15.2208 27.9105 14.9792" stroke="#B74C95" stroke-width="1.43282" stroke-linecap="round" stroke-linejoin="round"/>
<path fill-rule="evenodd" clip-rule="evenodd" d="M0.887377 46.4667C3.84139 43.9287 3.55667 43.3982 6.76694 44.0175C8.4734 44.873 9.89658 40.0444 13.41 38.4299C14.7817 37.7997 16.4136 38.1235 17.9152 37.9706L12.11 30.5514C15.721 26.3767 19.7707 26.8714 19.7707 26.8714L24.3052 32.3542C24.3052 32.3542 28.96 38.0468 30.9707 43.3513C32.9815 48.6558 35.9009 52.4832 35.3155 61.9805C34.7302 71.478 30.9758 72.4739 30.9758 72.4739C30.9758 72.4739 25.7043 71.4964 24.4822 68.3581C23.26 65.2198 25.4746 63.1536 25.7801 58.5608C26.0856 53.9679 24.0244 49.3752 22.726 46.1605C21.4277 42.946 20.4027 41.1841 18.9079 40.4964C13.9728 38.2253 11.2712 43.5774 8.54233 45.7589C9.44099 46.9346 11.4104 48.8104 9.66837 50.141C8.065 51.3656 6.53821 53.1258 5.3926 53.0494C3.34522 52.9129 -2.12873 49.0581 0.887377 46.4667Z" fill="#00CC06"/>
<path fill-rule="evenodd" clip-rule="evenodd" d="M19.7091 26.8654C27.9262 27.5886 44.9687 24.0567 51.2068 14.6482C53.9954 16.7526 62.3058 33.1263 63.2251 38.9056C63.7903 42.4602 63.3003 43.2437 63.4994 45.1059C63.9555 49.3661 72.1245 48.067 73.8841 46.943L73.1971 43.0392C73.0156 38.8526 79.0517 38.7671 80.9091 40.2839C82.2597 41.3869 82.4975 44.7959 80.489 46.3306C78.5002 47.8504 72.9099 51.5979 64.5686 49.775C62.9002 49.4105 62.9647 50.3874 62.9647 50.3874L63.7282 63.1703C67.8881 66.0519 70.3891 69.5916 68.6148 74.652C67.6219 77.4839 65.6369 79.5509 65.6369 79.5509L68.9203 80.4692C72.8823 81.6518 72.2219 86.5832 68.462 86.9754C64.7967 87.358 59.2227 83.1482 58.9173 82.9186C58.6119 82.6892 61.6663 80.0099 62.5062 78.5556C63.977 76.0089 67.3279 69.4748 62.3534 68.4522C59.3758 67.8402 39.2718 73.3258 30.8936 76.9484C21.7477 80.9032 17.4082 75.6163 15.3552 69.8696C12.5674 70.5673 16.4094 76.1888 12.3389 76.2606C11.079 76.2829 9.81916 76.0742 8.55929 75.0744C7.29932 74.0747 6.03955 73.7348 8.06302 70.5583C10.0864 67.3819 13.408 63.4782 13.408 63.4782C13.408 63.4782 13.9808 62.5981 14.6297 63.4782C15.2786 64.3582 19.0205 70.6728 19.6313 71.4001C23.0562 75.4774 27.8819 77.2601 31.3914 72.2427C42.0939 59.3735 28.5936 37.0994 19.7091 26.8654Z" fill="#00A500"/>
<path fill-rule="evenodd" clip-rule="evenodd" d="M36.459 34.6637C37.7397 33.3038 39.947 33.6747 41.3899 35.4922C42.8328 37.3098 42.9644 39.8853 41.684 41.2451C40.4034 42.6049 38.1958 42.234 36.7529 40.4166C35.3102 38.599 35.1786 36.0234 36.459 34.6637Z" fill="#2B2A29" stroke="#00B703" stroke-width="0.280063"/>
<path d="M33.531 34.9127C33.4649 35.1913 33.1858 35.3634 32.9079 35.2972C32.63 35.231 32.4583 34.9512 32.5244 34.6727C32.5293 34.6517 34.2123 27.3118 40.6296 31.2897C40.8727 31.4401 40.9482 31.76 40.7981 32.0037C40.648 32.2474 40.329 32.323 40.0858 32.1726C34.897 28.9562 33.535 34.8958 33.531 34.9127Z" fill="#2B2A29"/>
<path d="M46.667 29.1833C46.5931 29.4607 46.3086 29.6255 46.0318 29.5515C45.7551 29.4774 45.5906 29.1922 45.6645 28.9148C45.6697 28.8953 47.4477 22.037 53.8175 26.2054C54.0573 26.3614 54.1254 26.6831 53.9698 26.9234C53.8141 27.1638 53.4933 27.2321 53.2535 27.0761C48.0886 23.6962 46.6711 29.1677 46.667 29.1833Z" fill="#2B2A29"/>
<path d="M38.2109 46.2618C38.0608 46.5066 37.7409 46.5831 37.4967 46.4326C37.2524 46.2822 37.1761 45.9615 37.3262 45.7167C37.3281 45.7137 37.9543 44.6506 39.5646 43.9569C39.8279 43.8435 40.1333 43.9656 40.2465 44.2296C40.3596 44.4935 40.2378 44.7996 39.9745 44.913C38.6736 45.4734 38.2122 46.2596 38.2109 46.2618Z" fill="#2B2A29"/>
<path d="M57.7058 40.8039C57.42 40.8195 57.1755 40.6001 57.1598 40.3137C57.1442 40.0272 57.3631 39.7821 57.6489 39.7664C57.996 39.7467 58.3219 39.7342 58.7001 39.7791C59.0809 39.8241 59.5038 39.9261 60.0342 40.134C60.3009 40.2383 60.4326 40.5399 60.3285 40.8073C60.2244 41.0747 59.9235 41.2067 59.6568 41.1024C59.2197 40.931 58.8791 40.848 58.5784 40.8124C58.2749 40.7764 58.0001 40.7872 57.7058 40.8039Z" fill="#2B2A29"/>
<path fill-rule="evenodd" clip-rule="evenodd" d="M41.0358 49.449C36.4454 43.7149 43.8992 47.422 50.3959 46.1721C54.8418 45.3169 54.8095 43.4895 56.2302 42.5972C57.6511 41.705 60.0891 41.5045 58.9951 45.1808C57.9007 48.8572 56.5188 51.9701 50.8545 52.7428C47.0759 53.2577 43.778 52.4373 41.0358 49.449Z" fill="#2B2A29"/>
<path fill-rule="evenodd" clip-rule="evenodd" d="M50.3694 48.7007C54.3706 47.8709 55.6455 46.7845 55.9849 45.9589C56.3071 45.1487 56.1718 43.9057 55.9212 42.8228C54.7874 43.7692 54.4947 45.384 50.3959 46.1723C47.4376 46.7415 44.2814 46.283 42.1537 46.1558C43.4884 49.9104 46.844 49.4319 50.3694 48.7007Z" fill="white"/>
<path fill-rule="evenodd" clip-rule="evenodd" d="M45.5336 52.4024C50.2358 50.2956 54.1933 50.2479 56.1356 50.5597C54.964 51.6312 53.3126 52.4076 50.8545 52.743C48.9563 53.0016 47.1795 52.9232 45.5336 52.4024Z" fill="white"/>
<path fill-rule="evenodd" clip-rule="evenodd" d="M41.0361 49.4493C36.4458 43.7149 43.8994 47.422 50.3962 46.1724C54.8422 45.3173 54.8098 43.4898 56.2306 42.5976C57.6513 41.705 60.0895 41.505 58.9954 45.1812C57.9011 48.8576 56.5191 51.9702 50.8548 52.743C47.0761 53.2577 43.7784 52.4373 41.0361 49.4493Z" stroke="#00B703" stroke-width="0.96378"/>
<path fill-rule="evenodd" clip-rule="evenodd" d="M49.5652 30.6499C50.8506 29.2849 53.0667 29.6572 54.5152 31.4819C55.9637 33.3063 56.0956 35.8916 54.8101 37.2568C53.5248 38.6218 51.3086 38.2496 49.8602 36.425C48.4116 34.6004 48.2797 32.015 49.5652 30.6499Z" fill="#2B2A29" stroke="#00B703" stroke-width="0.280063"/>
<path d="M103.511 40.8298C103.473 39.7347 103.629 38.2875 102.38 38.3657L100.819 38.4442C99.7659 38.4832 99.1417 37.8183 98.8296 37.2707C98.4393 36.5667 98.1662 35.1978 98.1662 31.013C98.1662 27.1801 98.088 24.6769 100.312 23.9728C100.585 23.8947 100.937 23.8165 101.288 23.8165H102.107C102.614 23.8165 103.551 23.6209 103.473 22.0565L103.395 20.6094L103.434 18.9276C103.473 16.933 102.341 16.8548 101.249 16.8548C99.0246 16.8548 95.8642 17.0893 93.7962 19.2795C91.8064 21.3916 91.299 25.3027 91.299 30.5045C91.299 35.0414 91.5724 39.2654 93.4843 42.0424C95.279 44.7019 97.8542 45.132 100.859 45.132C103.434 45.132 103.629 44.1934 103.59 43.0201L103.511 40.8298ZM122.552 19.749C122.552 17.0502 121.889 16.8548 120.718 16.8548H117.167C116.114 16.8548 115.841 17.2068 115.685 17.8716L115.451 18.7712C114.397 22.7997 113.305 26.5543 112.134 30.1525H111.354V19.2014C111.354 17.7151 111.354 16.8548 109.754 16.8548H107.335C105.579 16.8548 105.462 17.5196 105.502 18.4583L105.54 19.3186V41.7294C105.54 43.8415 105.736 45.0147 107.296 45.0147H110.457C112.056 45.0147 112.134 44.8974 112.797 42.6289L115.958 31.7169H116.738V42.6289C116.738 44.9364 117.207 45.0147 118.611 45.0147H120.601C122.201 45.0147 122.552 44.9364 122.552 42.3552V19.749ZM129.887 16.8548C128.794 16.8548 128.092 17.2459 128.053 18.4192L127.975 20.9222C127.663 30.9348 126.766 34.4938 126.141 36.8405C126.102 36.997 125.517 39.1872 125.127 39.1872H124.815C124.23 39.1872 123.644 39.3436 123.644 40.5952C123.644 41.7685 123.683 42.8637 123.683 43.9978C123.683 44.9364 123.605 46.0315 123.605 47.0094C123.605 48.3391 124.23 48.4174 124.854 48.4174C125.439 48.4174 125.946 48.3001 126.493 48.3001C127.078 48.3001 127.702 48.4174 128.287 48.4174C129.731 48.4174 129.887 47.7525 129.926 47.4004L130.004 46.6575C130.043 46.149 129.926 45.445 130.589 45.0538C131.174 44.741 131.76 45.0147 132.501 45.0147H134.374C135.583 45.0147 137.417 44.6236 136.988 46.6575L136.91 47.0094C136.754 47.6352 136.988 48.4174 138.237 48.4174H141.904C142.568 48.4174 143.309 48.4174 143.309 47.0094C143.309 45.7969 143.192 44.6236 143.192 43.4894C143.192 42.668 143.309 41.8467 143.309 40.9472C143.348 39.5001 142.646 39.1872 142.06 39.1872H141.943C141.28 39.1872 141.046 38.2875 141.046 37.5054V35.7454C141.046 34.4547 141.007 33.125 140.968 31.8342C140.968 31.2477 140.968 30.6609 140.968 30.0742C140.968 29.5267 140.968 28.9401 140.968 28.3533C141.007 27.2192 141.046 26.124 141.046 24.9899V19.045C141.046 18.1846 141.007 16.8548 139.368 16.8548H129.887ZM132.618 39.5392C132.384 39.5392 131.916 39.4218 131.76 39.3436C131.526 39.2263 131.448 39.0306 131.448 38.8742C131.448 38.6005 131.526 38.3266 131.682 37.8965C132.072 36.684 132.306 35.2759 132.54 33.9463C132.969 31.3649 133.126 30.2698 133.32 27.141L133.516 23.8947C133.555 23.4254 133.555 22.6822 134.179 22.6822H134.569C135.115 22.6822 135.037 24.0513 135.037 24.6379C135.037 26.5934 134.803 27.141 134.92 29.8396C134.998 31.7169 135.115 32.8903 135.076 36.5275C135.076 38.092 135.076 38.6787 134.842 38.9917C134.491 39.5001 133.828 39.5392 133.399 39.5392H132.618ZM161.764 19.749C161.764 17.0502 161.101 16.8548 159.93 16.8548H156.379C155.326 16.8548 155.053 17.2068 154.897 17.8716L154.663 18.7712C153.609 22.7997 152.517 26.5543 151.346 30.1525H150.566V19.2014C150.566 17.7151 150.566 16.8548 148.966 16.8548H146.547C144.791 16.8548 144.674 17.5196 144.714 18.4583L144.753 19.3186V41.7294C144.753 43.8415 144.948 45.0147 146.508 45.0147H149.669C151.268 45.0147 151.346 44.8974 152.009 42.6289L155.17 31.7169H155.95V42.6289C155.95 44.9364 156.419 45.0147 157.823 45.0147H159.813C161.413 45.0147 161.764 44.9364 161.764 42.3552V19.749ZM164.339 42.7853C164.339 44.8583 165.236 45.0147 165.783 45.0147H168.319C169.45 45.0147 169.957 44.9364 170.152 44.7019C170.543 44.2324 170.465 42.7853 170.465 41.4947V30.0742H170.933L171.44 31.6777C171.908 33.2032 173.235 37.7401 174.483 37.7401C175.069 37.7401 176.161 36.5667 177.449 30.0742H177.995C178.073 32.6947 178.151 33.0857 178.151 35.4716V42.9808C178.151 44.2324 178.346 45.0147 179.556 45.0147H183.067C184.121 45.0147 184.277 44.4672 184.277 42.7462C184.277 42.1988 184.237 41.6903 184.199 40.8298C184.199 40.0867 184.199 39.7738 184.199 39.1089L184.121 27.1801C184.121 24.4423 184.277 26.476 184.277 20.0227C184.277 18.2627 184.237 17.6369 183.926 17.285C183.574 16.8939 183.067 16.8548 182.677 16.8548H178.385C177.878 16.8548 177.176 16.972 176.863 18.3018L174.6 27.6495H174.132L172.259 19.3578C171.674 16.8155 171.011 16.8548 169.918 16.8548H166.29C164.534 16.8548 164.3 17.285 164.3 18.3409C164.3 19.1231 164.378 19.9444 164.378 20.7267C164.378 21.9783 164.339 23.2297 164.339 24.4813V42.7853ZM200.781 16.8548C199.688 16.8548 198.986 17.2459 198.947 18.4192L198.869 20.9222C198.557 30.9348 197.659 34.4938 197.035 36.8405C196.996 36.997 196.411 39.1872 196.021 39.1872H195.709C195.123 39.1872 194.538 39.3436 194.538 40.5952C194.538 41.7685 194.577 42.8637 194.577 43.9978C194.577 44.9364 194.499 46.0315 194.499 47.0094C194.499 48.3391 195.123 48.4174 195.748 48.4174C196.333 48.4174 196.84 48.3001 197.386 48.3001C197.972 48.3001 198.596 48.4174 199.181 48.4174C200.625 48.4174 200.781 47.7525 200.82 47.4004L200.898 46.6575C200.937 46.149 200.82 45.445 201.483 45.0538C202.068 44.741 202.654 45.0147 203.395 45.0147H205.268C206.477 45.0147 208.311 44.6236 207.882 46.6575L207.804 47.0094C207.648 47.6352 207.882 48.4174 209.13 48.4174H212.798C213.461 48.4174 214.203 48.4174 214.203 47.0094C214.203 45.7969 214.086 44.6236 214.086 43.4894C214.086 42.668 214.203 41.8467 214.203 40.9472C214.242 39.5001 213.539 39.1872 212.954 39.1872H212.837C212.174 39.1872 211.94 38.2875 211.94 37.5054V35.7454C211.94 34.4547 211.901 33.125 211.861 31.8342C211.861 31.2477 211.861 30.6609 211.861 30.0742C211.861 29.5267 211.861 28.9401 211.861 28.3533C211.901 27.2192 211.94 26.124 211.94 24.9899V19.045C211.94 18.1846 211.901 16.8548 210.262 16.8548H200.781ZM203.512 39.5392C203.278 39.5392 202.81 39.4218 202.654 39.3436C202.42 39.2263 202.341 39.0306 202.341 38.8742C202.341 38.6005 202.42 38.3266 202.575 37.8965C202.966 36.684 203.2 35.2759 203.434 33.9463C203.863 31.3649 204.019 30.2698 204.214 27.141L204.409 23.8947C204.448 23.4254 204.448 22.6822 205.073 22.6822H205.463C206.009 22.6822 205.931 24.0513 205.931 24.6379C205.931 26.5934 205.697 27.141 205.814 29.8396C205.892 31.7169 206.009 32.8903 205.97 36.5275C205.97 38.092 205.97 38.6787 205.736 38.9917C205.385 39.5001 204.721 39.5392 204.292 39.5392H203.512ZM233.087 27.3756C233.087 24.4813 232.97 21.2352 230.863 18.7712C229.068 16.6592 226.844 16.3462 224.698 16.3462C222.552 16.3462 218.807 16.7764 216.895 20.2966C215.529 22.8388 215.373 26.6325 215.373 31.1693C215.373 37.3489 215.919 40.5561 217.519 42.7071C219.353 45.1712 221.772 45.484 223.606 45.484C228.405 45.484 230.98 43.372 232.033 40.7517C232.931 38.5614 233.087 34.4938 233.087 31.8734V27.3756ZM222.318 27.1801C222.318 26.3588 222.279 24.6379 222.864 23.7383C223.215 23.1907 223.801 22.9951 224.269 22.9951C225.517 22.9951 226.142 24.3249 226.142 26.0067V32.6165C226.142 35.7063 226.181 36.8405 225.674 37.7791C225.284 38.4832 224.776 38.7178 224.035 38.7178C223.684 38.7178 223.177 38.6005 222.825 38.1703C222.357 37.6226 222.318 36.684 222.318 34.9631V27.1801ZM235.428 42.7853C235.428 44.8583 236.325 45.0147 236.871 45.0147H239.408C240.539 45.0147 241.046 44.9364 241.241 44.7019C241.632 44.2324 241.553 42.7853 241.553 41.4947V30.0742H242.022L242.529 31.6777C242.997 33.2032 244.324 37.7401 245.572 37.7401C246.157 37.7401 247.25 36.5667 248.537 30.0742H249.084C249.162 32.6947 249.24 33.0857 249.24 35.4716V42.9808C249.24 44.2324 249.435 45.0147 250.644 45.0147H254.156C255.209 45.0147 255.365 44.4672 255.365 42.7462C255.365 42.1988 255.326 41.6903 255.288 40.8298C255.288 40.0867 255.288 39.7738 255.288 39.1089L255.209 27.1801C255.209 24.4423 255.365 26.476 255.365 20.0227C255.365 18.2627 255.326 17.6369 255.014 17.285C254.663 16.8939 254.156 16.8548 253.766 16.8548H249.474C248.967 16.8548 248.264 16.972 247.952 18.3018L245.689 27.6495H245.221L243.348 19.3578C242.763 16.8155 242.1 16.8548 241.007 16.8548H237.379C235.623 16.8548 235.389 17.285 235.389 18.3409C235.389 19.1231 235.467 19.9444 235.467 20.7267C235.467 21.9783 235.428 23.2297 235.428 24.4813V42.7853ZM256.731 41.964C256.536 42.9028 256.419 43.2547 256.419 43.8805C256.419 44.2324 256.458 45.0147 257.902 45.0147H261.491C262.506 45.0147 263.403 44.8192 263.325 42.668L263.286 41.2993C263.247 40.3605 264.574 40.0867 265.51 40.0867C266.564 40.0867 266.915 40.5169 267.149 41.2208C267.305 41.6903 267.305 42.0424 267.344 42.6289C267.383 43.2938 267.383 43.6459 267.539 44.1152C267.695 44.5845 268.163 45.0147 268.787 45.0147H272.143C273.157 45.0147 273.937 44.4672 273.937 43.5285C273.937 42.3161 273.118 39.7347 272.728 37.5054C271.402 29.957 271.636 30.0351 271.089 27.532L269.997 22.3693C269.099 18.1454 268.982 17.5978 268.748 17.3239C268.358 16.8155 267.695 16.8548 267.227 16.8548H262.427C261.101 16.8548 260.984 18.4192 260.711 20.1009L260.555 21.0006C259.735 25.772 258.955 29.4877 258.331 33.9852C258.136 35.3544 258.058 35.4716 257.941 36.0973L256.731 41.964ZM265.042 23.8165L265.354 23.7774L266.602 31.9516L266.68 32.8121C266.759 33.7898 265.978 33.9072 265.276 33.9072C264.144 33.9072 263.832 33.4769 263.793 33.2423C263.793 33.1641 263.793 33.125 263.793 33.0468C263.871 32.0298 263.871 32.3037 263.949 31.7561L265.042 23.8165Z" fill="#00A500"/>
<path d="M94.7064 58.9992L94.8181 56.9844C94.8628 56.1113 94.5276 55.9994 93.6793 55.9994H92.1828C91.8254 55.9994 91.3566 55.8874 91.3566 57.2082V66.1857L91.3117 67.5065C91.267 68.8945 91.8477 68.8498 92.7188 68.8498H93.6793C93.9025 68.8498 94.0142 68.8722 94.2151 68.8722C94.4829 68.8722 94.6172 68.7154 94.8181 68.1333L97.0291 61.6857L97.3865 61.7753L96.9398 65.8497L96.828 67.8646C96.7836 68.7378 97.1186 68.8498 97.9672 68.8498H99.4636C99.8208 68.8498 100.29 68.9617 100.29 67.6408V57.2082C100.29 55.8874 99.8208 55.9994 99.4636 55.9994H97.9672C97.7438 55.9994 97.6321 55.977 97.4311 55.977C97.1631 55.977 97.0291 56.1337 96.828 56.7158L94.6172 63.1857L94.2598 63.0738L94.7064 58.9992ZM103.26 55.9994C101.942 55.9994 101.965 56.2903 101.965 57.0515V66.678C101.965 67.0587 101.987 67.4617 101.965 67.8422C101.965 67.9317 101.942 68.0214 101.942 68.1109C101.942 68.5811 101.898 68.8498 103.26 68.8498H103.952C105.404 68.8498 105.315 68.4244 105.315 67.8422V65.0214C105.315 64.6856 105.315 64.3049 105.605 64.0813C105.806 63.9245 106.119 63.9021 106.32 63.9021C106.61 63.9021 107.012 63.9469 107.012 64.5065C107.012 64.7528 106.968 64.9767 106.923 65.2006C106.834 65.805 106.811 65.9841 106.811 66.2528V67.8198C106.811 68.805 107.503 68.8498 107.794 68.8498H109.201C109.491 68.8498 109.826 68.7378 109.96 68.6258C110.161 68.4468 110.206 68.1333 110.206 67.8422C110.206 67.0587 110.161 66.5886 110.161 65.4693V58.4618C110.161 58.1933 110.184 57.9022 110.184 57.6337C110.184 57.4544 110.184 57.2977 110.184 57.1187C110.184 56.9844 110.206 56.8501 110.206 56.7158C110.206 56.447 110.251 55.9994 109.201 55.9994H108.33C106.945 55.9994 106.9 56.2231 106.9 56.7381V58.3725C106.9 58.9097 106.968 59.0888 106.968 59.8498C106.968 60.9693 106.409 61.0366 106.096 61.0366C105.293 61.0366 105.226 60.5663 105.248 60.1858L105.404 57.0068V56.8724C105.404 56.447 105.337 55.9994 104.087 55.9994H103.26ZM115.812 68.8498C116.504 68.8498 116.593 68.4914 116.593 68.1557C116.593 67.4617 116.504 67.7304 116.504 66.9243V59.4022C116.504 59.1559 116.548 58.9545 117.241 58.9545H117.732C118.112 58.9545 118.514 58.8649 118.514 57.7903V57.1187L118.492 56.9172C118.469 56.7158 118.514 56.2679 118.313 56.0889C118.179 55.977 117.732 55.9546 117.509 55.9546L116.482 55.9994H115.075C114.472 55.9994 113.846 56.0441 113.243 56.0441C112.886 56.0441 112.529 55.9994 112.171 55.9994C111.68 55.9994 111.166 56.0665 111.144 57.0068C111.144 57.2306 111.144 57.432 111.144 57.6337C111.144 58.3948 111.054 58.9545 112.149 58.9545H112.73C112.998 58.9545 113.176 58.9992 113.176 59.2455C113.176 59.3575 113.154 59.4246 113.154 59.6486V67.2154C113.154 67.8422 113.109 67.7974 113.109 68.1781C113.109 68.5138 113.221 68.9169 114.07 68.8945L115.432 68.8498H115.812ZM127.179 65.8945C127.179 65.3798 126.867 65.0662 126.442 65.0662C126.241 65.0662 126.107 65.1334 125.862 65.2677C125.549 65.4469 125.169 65.6482 124.365 65.6482C123.941 65.6482 123.226 65.5812 122.847 65.0438C122.69 64.8199 122.579 64.4617 122.579 64.1706C122.579 63.9916 122.623 63.8797 122.69 63.8126C122.735 63.7677 122.869 63.7229 122.936 63.7229H126.532C127.336 63.7229 127.358 62.8946 127.358 61.932C127.358 60.2305 127.38 58.8425 126.822 57.7678C126.398 56.9395 125.393 55.7754 123.427 55.7754C122.355 55.7754 121.484 56.1113 120.904 56.5814C119.363 57.8127 119.229 60.3201 119.229 62.2902C119.229 63.7901 119.251 65.223 119.966 66.6556C120.837 68.3796 122.177 69.0287 124.142 69.0287C125.549 69.0287 126.666 68.5587 126.956 68.3348C127.09 68.2228 127.179 68.0661 127.179 67.6184V65.8945ZM123.025 61.1036C122.623 61.1036 122.556 60.7007 122.556 60.3201V60.029C122.556 59.4918 122.601 58.7753 123.338 58.7753C123.718 58.7753 123.941 58.9545 124.053 59.1335C124.254 59.4246 124.276 59.9171 124.276 60.1858V60.544C124.276 61.0812 124.008 61.1036 123.718 61.1036H123.025ZM128.832 69.7676C128.832 70.5511 128.676 70.8198 129.748 70.8198H131.155C131.78 70.8198 132.093 70.9542 132.093 69.6781V68.3796C132.383 68.6258 132.874 68.9617 133.656 68.9617C134.751 68.9617 135.42 68.3796 135.778 67.8646C136.626 66.678 136.761 64.1037 136.761 62.2005C136.761 59.0888 136.314 57.947 136.09 57.4544C135.666 56.4918 134.974 55.8874 133.902 55.8874C132.964 55.8874 132.294 56.4246 131.959 56.8053C131.981 56.1561 131.735 55.9994 131.132 55.9994H129.792C129.167 55.9994 128.765 56.0218 128.81 56.8053L128.832 57.3202V69.7676ZM131.959 60.544C131.959 59.447 132.383 59.2231 132.763 59.2231C133.522 59.2231 133.544 59.8947 133.544 60.9244V64.1037C133.544 64.999 133.544 65.5812 132.785 65.5812C132.026 65.5812 131.959 65.0214 131.959 64.0364V60.544ZM139.53 55.9994C138.212 55.9994 138.235 56.2903 138.235 57.0515V66.678C138.235 67.0587 138.257 67.4617 138.235 67.8422C138.235 67.9317 138.212 68.0214 138.212 68.1109C138.212 68.5811 138.168 68.8498 139.53 68.8498H140.222C141.674 68.8498 141.585 68.4244 141.585 67.8422V65.0214C141.585 64.6856 141.585 64.3049 141.875 64.0813C142.076 63.9245 142.389 63.9021 142.59 63.9021C142.88 63.9021 143.282 63.9469 143.282 64.5065C143.282 64.7528 143.237 64.9767 143.193 65.2006C143.103 65.805 143.081 65.9841 143.081 66.2528V67.8198C143.081 68.805 143.773 68.8498 144.064 68.8498H145.471C145.761 68.8498 146.096 68.7378 146.23 68.6258C146.431 68.4468 146.475 68.1333 146.475 67.8422C146.475 67.0587 146.431 66.5886 146.431 65.4693V58.4618C146.431 58.1933 146.453 57.9022 146.453 57.6337C146.453 57.4544 146.453 57.2977 146.453 57.1187C146.453 56.9844 146.475 56.8501 146.475 56.7158C146.475 56.447 146.52 55.9994 145.471 55.9994H144.6C143.215 55.9994 143.17 56.2231 143.17 56.7381V58.3725C143.17 58.9097 143.237 59.0888 143.237 59.8498C143.237 60.9693 142.679 61.0366 142.366 61.0366C141.562 61.0366 141.495 60.5663 141.517 60.1858L141.674 57.0068V56.8724C141.674 56.447 141.607 55.9994 140.356 55.9994H139.53ZM155.856 65.8945C155.856 65.3798 155.543 65.0662 155.119 65.0662C154.918 65.0662 154.784 65.1334 154.538 65.2677C154.225 65.4469 153.846 65.6482 153.041 65.6482C152.617 65.6482 151.903 65.5812 151.523 65.0438C151.367 64.8199 151.255 64.4617 151.255 64.1706C151.255 63.9916 151.3 63.8797 151.367 63.8126C151.411 63.7677 151.545 63.7229 151.612 63.7229H155.208C156.012 63.7229 156.034 62.8946 156.034 61.932C156.034 60.2305 156.057 58.8425 155.498 57.7678C155.074 56.9395 154.069 55.7754 152.103 55.7754C151.032 55.7754 150.161 56.1113 149.58 56.5814C148.039 57.8127 147.905 60.3201 147.905 62.2902C147.905 63.7901 147.927 65.223 148.642 66.6556C149.513 68.3796 150.853 69.0287 152.818 69.0287C154.225 69.0287 155.342 68.5587 155.632 68.3348C155.766 68.2228 155.856 68.0661 155.856 67.6184V65.8945ZM151.702 61.1036C151.3 61.1036 151.233 60.7007 151.233 60.3201V60.029C151.233 59.4918 151.277 58.7753 152.014 58.7753C152.394 58.7753 152.617 58.9545 152.729 59.1335C152.93 59.4246 152.952 59.9171 152.952 60.1858V60.544C152.952 61.0812 152.684 61.1036 152.394 61.1036H151.702ZM161.439 68.8498C162.131 68.8498 162.221 68.4914 162.221 68.1557C162.221 67.4617 162.131 67.7304 162.131 66.9243V59.4022C162.131 59.1559 162.176 58.9545 162.868 58.9545H163.36C163.739 58.9545 164.142 58.8649 164.142 57.7903V57.1187L164.119 56.9172C164.097 56.7158 164.142 56.2679 163.94 56.0889C163.806 55.977 163.36 55.9546 163.136 55.9546L162.109 55.9994H160.702C160.099 55.9994 159.474 56.0441 158.87 56.0441C158.513 56.0441 158.156 55.9994 157.799 55.9994C157.307 55.9994 156.794 56.0665 156.771 57.0068C156.771 57.2306 156.771 57.432 156.771 57.6337C156.771 58.3948 156.682 58.9545 157.776 58.9545H158.357C158.625 58.9545 158.804 58.9992 158.804 59.2455C158.804 59.3575 158.781 59.4246 158.781 59.6486V67.2154C158.781 67.8422 158.737 67.7974 158.737 68.1781C158.737 68.5138 158.848 68.9169 159.697 68.8945L161.059 68.8498H161.439ZM165.035 62.9618C165.035 63.5214 165.102 63.6558 165.146 63.7006C165.28 63.835 165.526 63.835 165.638 63.835H169.367C169.479 63.835 169.725 63.835 169.859 63.7006C169.903 63.6558 169.97 63.5214 169.97 62.9618V61.5066C169.97 61.3051 169.926 61.126 169.814 61.0142C169.658 60.8798 169.412 60.8798 169.256 60.8798H165.749C165.593 60.8798 165.347 60.8798 165.191 61.0142C165.079 61.126 165.035 61.3051 165.035 61.5066V62.9618ZM171.623 67.6408C171.623 68.9617 172.092 68.8498 172.449 68.8498H173.946C174.794 68.8498 175.13 68.7378 175.085 67.8646L174.973 65.8497V59.7605C174.973 59.2007 175.219 59.1559 175.487 59.1559L176.983 59.2007C177.832 59.2231 177.72 58.7305 177.72 58.4172V57.7903C177.72 57.4544 177.765 57.5218 177.765 57.0515C177.765 56.0218 177.296 55.9546 176.492 55.9546C175.621 55.9546 174.727 56.0441 173.834 56.0441C173.454 56.0441 173.075 55.9994 172.695 55.9994C171.913 55.9994 171.534 56.1784 171.578 57.3426L171.623 58.6635V67.6408ZM182.209 58.9992L182.321 56.9844C182.365 56.1113 182.03 55.9994 181.182 55.9994H179.685C179.328 55.9994 178.859 55.8874 178.859 57.2082V66.1857L178.814 67.5065C178.77 68.8945 179.351 68.8498 180.221 68.8498H181.182C181.405 68.8498 181.517 68.8722 181.718 68.8722C181.986 68.8722 182.12 68.7154 182.321 68.1333L184.532 61.6857L184.889 61.7753L184.442 65.8497L184.331 67.8646C184.286 68.7378 184.621 68.8498 185.47 68.8498H186.966C187.323 68.8498 187.793 68.9617 187.793 67.6408V57.2082C187.793 55.8874 187.323 55.9994 186.966 55.9994H185.47C185.246 55.9994 185.135 55.977 184.934 55.977C184.666 55.977 184.532 56.1337 184.331 56.7158L182.12 63.1857L181.762 63.0738L182.209 58.9992ZM190.606 55.9994C189.289 55.9994 189.311 56.2903 189.311 57.0515V66.678C189.311 67.0587 189.333 67.4617 189.311 67.8422C189.311 67.9317 189.289 68.0214 189.289 68.1109C189.289 68.5811 189.244 68.8498 190.606 68.8498H191.299C192.751 68.8498 192.661 68.4244 192.661 67.8422V60.029C192.661 59.4694 192.706 58.9097 193.711 58.9097C193.957 58.9097 194.359 58.9545 194.359 59.5142C194.359 59.7605 194.314 59.9842 194.269 60.2082C194.18 60.8125 194.158 60.9917 194.158 61.2604V67.8198C194.158 68.805 194.85 68.8498 195.14 68.8498H196.547C197.552 68.8498 197.552 68.1781 197.552 67.8422C197.552 67.4169 197.552 67.0365 197.53 66.6334C197.508 66.2528 197.508 65.8497 197.508 65.4693V58.4618C197.508 58.1933 197.53 57.9022 197.53 57.6337C197.53 57.4544 197.53 57.2977 197.53 57.1187C197.53 56.9844 197.552 56.8501 197.552 56.7158C197.552 56.447 197.597 55.9994 196.547 55.9994H190.606ZM206.776 65.8945C206.776 65.3798 206.463 65.0662 206.039 65.0662C205.838 65.0662 205.704 65.1334 205.458 65.2677C205.146 65.4469 204.766 65.6482 203.962 65.6482C203.538 65.6482 202.823 65.5812 202.443 65.0438C202.287 64.8199 202.175 64.4617 202.175 64.1706C202.175 63.9916 202.22 63.8797 202.287 63.8126C202.332 63.7677 202.466 63.7229 202.533 63.7229H206.128C206.933 63.7229 206.955 62.8946 206.955 61.932C206.955 60.2305 206.977 58.8425 206.419 57.7678C205.994 56.9395 204.989 55.7754 203.024 55.7754C201.952 55.7754 201.081 56.1113 200.5 56.5814C198.959 57.8127 198.825 60.3201 198.825 62.2902C198.825 63.7901 198.848 65.223 199.562 66.6556C200.433 68.3796 201.773 69.0287 203.739 69.0287C205.146 69.0287 206.262 68.5587 206.553 68.3348C206.687 68.2228 206.776 68.0661 206.776 67.6184V65.8945ZM202.622 61.1036C202.22 61.1036 202.153 60.7007 202.153 60.3201V60.029C202.153 59.4918 202.198 58.7753 202.935 58.7753C203.314 58.7753 203.538 58.9545 203.649 59.1335C203.85 59.4246 203.873 59.9171 203.873 60.1858V60.544C203.873 61.0812 203.605 61.1036 203.314 61.1036H202.622ZM208.429 69.7676C208.429 70.5511 208.272 70.8198 209.344 70.8198H210.752C211.377 70.8198 211.689 70.9542 211.689 69.6781V68.3796C211.98 68.6258 212.471 68.9617 213.253 68.9617C214.347 68.9617 215.017 68.3796 215.375 67.8646C216.223 66.678 216.357 64.1037 216.357 62.2005C216.357 59.0888 215.91 57.947 215.687 57.4544C215.263 56.4918 214.571 55.8874 213.498 55.8874C212.56 55.8874 211.891 56.4246 211.556 56.8053C211.578 56.1561 211.332 55.9994 210.729 55.9994H209.389C208.764 55.9994 208.362 56.0218 208.407 56.8053L208.429 57.3202V69.7676ZM211.556 60.544C211.556 59.447 211.98 59.2231 212.359 59.2231C213.119 59.2231 213.141 59.8947 213.141 60.9244V64.1037C213.141 64.999 213.141 65.5812 212.382 65.5812C211.622 65.5812 211.556 65.0214 211.556 64.0364V60.544ZM219.64 68.8498C220.4 68.8498 220.645 68.8498 220.757 68.5138C220.824 68.2901 220.824 67.5065 220.824 67.2378L220.623 61.6409H220.913L221.471 63.0962C222.343 65.3798 222.745 65.7602 223.057 65.7602C223.683 65.7602 224.286 63.9469 224.509 63.2529L225 61.6409H225.291L225.09 67.2378C225.045 68.2901 225.268 68.5587 225.313 68.6258C225.469 68.8274 225.67 68.8498 225.871 68.8498H227.479C227.613 68.8498 227.859 68.7825 227.948 68.7154C228.06 68.6258 228.149 68.4468 228.149 67.8198C228.149 67.5737 228.127 67.3274 228.105 66.9243C228.105 66.5886 228.105 66.4543 228.105 66.1632L228.06 60.7231C228.06 60.1858 228.06 59.6486 228.082 59.1112C228.105 58.4618 228.149 57.7903 228.149 57.1411C228.149 56.6261 228.105 56.3574 227.948 56.2009C227.792 56.0441 227.501 55.9994 227.256 55.9994H225.224C224.933 55.9994 224.576 55.9994 224.375 56.6709L223.124 60.9244H222.856L221.829 57.1411C221.561 56.1113 221.226 55.9994 220.533 55.9994H218.859C217.809 55.9994 217.72 56.2231 217.72 56.8724C217.72 57.2531 217.764 57.4769 217.764 59.4918V67.8422C217.764 68.0661 217.809 68.3796 217.921 68.5362C217.988 68.6482 218.188 68.8498 218.568 68.8498H219.64ZM234.135 68.0214C234.068 68.9617 234.47 68.8498 234.76 68.8498H236.301C236.926 68.8498 237.351 68.9393 237.306 68.1109L237.284 67.6856V59.1112C237.284 58.3501 237.194 57.2306 236.502 56.559C235.81 55.8874 234.47 55.7754 233.554 55.7754C232.192 55.7754 231.455 56.0218 230.896 56.2009C230.717 56.2679 230.472 56.335 230.383 56.4918C230.36 56.5142 230.293 56.6485 230.293 57.0963V58.2157C230.293 58.4394 230.293 58.9545 230.807 58.9545C230.919 58.9545 231.075 58.9097 231.388 58.8203C231.678 58.7305 232.192 58.5516 232.795 58.5516C233.197 58.5516 233.598 58.641 233.844 58.8649C234.068 59.044 234.179 59.3575 234.179 59.6933C234.179 59.7829 234.157 60.0514 233.889 60.0514C233.732 60.0514 233.554 59.9842 233.398 59.9395C233.174 59.8722 232.772 59.7605 232.393 59.7605C231.611 59.7605 230.829 60.1858 230.338 60.835C229.668 61.7306 229.355 63.2081 229.355 64.4841C229.355 66.387 229.936 67.4393 230.226 67.8871C230.829 68.805 231.633 69.0737 232.303 69.0737C232.973 69.0737 233.688 68.7825 233.978 68.0214H234.135ZM232.482 63.5663C232.482 63.1857 232.527 62.3573 233.353 62.3573C234.068 62.3573 234.09 63.029 234.09 63.499V64.8423C234.09 65.8721 233.822 66.1184 233.286 66.1184C232.906 66.1184 232.482 65.9394 232.482 64.999V63.5663ZM238.914 69.7676C238.914 70.5511 238.758 70.8198 239.83 70.8198H241.237C241.862 70.8198 242.175 70.9542 242.175 69.6781V68.3796C242.465 68.6258 242.956 68.9617 243.738 68.9617C244.832 68.9617 245.502 68.3796 245.86 67.8646C246.708 66.678 246.842 64.1037 246.842 62.2005C246.842 59.0888 246.396 57.947 246.172 57.4544C245.748 56.4918 245.056 55.8874 243.984 55.8874C243.046 55.8874 242.376 56.4246 242.041 56.8053C242.063 56.1561 241.817 55.9994 241.214 55.9994H239.874C239.249 55.9994 238.847 56.0218 238.892 56.8053L238.914 57.3202V69.7676ZM242.041 60.544C242.041 59.447 242.465 59.2231 242.845 59.2231C243.604 59.2231 243.626 59.8947 243.626 60.9244V64.1037C243.626 64.999 243.626 65.5812 242.867 65.5812C242.108 65.5812 242.041 65.0214 242.041 64.0364V60.544ZM248.316 58.0366V67.7528C248.316 68.4691 248.361 68.8945 248.942 68.8722L249.924 68.8274L250.773 68.8722C251.756 68.9169 251.555 68.1781 251.555 67.8198V63.9021H251.934L253.051 67.7304C253.275 68.5362 253.431 68.8498 254.034 68.8498H256.178C256.424 68.8498 256.826 68.9169 256.826 68.4691C256.826 68.3125 256.759 67.9765 256.691 67.8198L254.615 62.2678C255.195 60.9022 256.558 57.7007 256.558 56.8053C256.558 55.9994 255.932 55.9994 255.485 55.9994H254.078C253.386 55.9994 253.275 56.1561 253.185 56.5366L253.006 57.2531C252.872 57.8127 252.56 59.044 251.845 60.7679H251.555V57.4769L251.577 56.7158C251.577 56.6037 251.577 56.3128 251.465 56.1784C251.331 56.0218 251.063 55.9994 250.885 55.9994C250.192 55.9994 250.639 56.0441 250.014 56.0218L249.545 55.9994C248.562 55.9546 248.272 56.2231 248.294 57.0739L248.316 58.0366ZM265.714 65.8945C265.714 65.3798 265.402 65.0662 264.977 65.0662C264.776 65.0662 264.642 65.1334 264.397 65.2677C264.084 65.4469 263.704 65.6482 262.9 65.6482C262.476 65.6482 261.761 65.5812 261.382 65.0438C261.225 64.8199 261.114 64.4617 261.114 64.1706C261.114 63.9916 261.158 63.8797 261.225 63.8126C261.27 63.7677 261.404 63.7229 261.471 63.7229H265.066C265.871 63.7229 265.893 62.8946 265.893 61.932C265.893 60.2305 265.915 58.8425 265.357 57.7678C264.933 56.9395 263.927 55.7754 261.962 55.7754C260.89 55.7754 260.019 56.1113 259.439 56.5814C257.898 57.8127 257.764 60.3201 257.764 62.2902C257.764 63.7901 257.786 65.223 258.501 66.6556C259.372 68.3796 260.712 69.0287 262.677 69.0287C264.084 69.0287 265.2 68.5587 265.491 68.3348C265.625 68.2228 265.714 68.0661 265.714 67.6184V65.8945ZM261.56 61.1036C261.158 61.1036 261.091 60.7007 261.091 60.3201V60.029C261.091 59.4918 261.136 58.7753 261.873 58.7753C262.253 58.7753 262.476 58.9545 262.588 59.1335C262.788 59.4246 262.811 59.9171 262.811 60.1858V60.544C262.811 61.0812 262.543 61.1036 262.253 61.1036H261.56ZM271.298 68.8498C271.99 68.8498 272.079 68.4914 272.079 68.1557C272.079 67.4617 271.99 67.7304 271.99 66.9243V59.4022C271.99 59.1559 272.035 58.9545 272.727 58.9545H273.218C273.598 58.9545 274 58.8649 274 57.7903V57.1187L273.978 56.9172C273.956 56.7158 274 56.2679 273.799 56.0889C273.665 55.977 273.218 55.9546 272.995 55.9546L271.968 55.9994H270.561C269.958 55.9994 269.332 56.0441 268.729 56.0441C268.372 56.0441 268.015 55.9994 267.657 55.9994C267.166 55.9994 266.652 56.0665 266.63 57.0068C266.63 57.2306 266.63 57.432 266.63 57.6337C266.63 58.3948 266.541 58.9545 267.635 58.9545H268.216C268.484 58.9545 268.662 58.9992 268.662 59.2455C268.662 59.3575 268.64 59.4246 268.64 59.6486V67.2154C268.64 67.8422 268.595 67.7974 268.595 68.1781C268.595 68.5138 268.707 68.9169 269.556 68.8945L270.918 68.8498H271.298Z" fill="#2B2A29"/>
<path fill-rule="evenodd" clip-rule="evenodd" d="M39.4233 35.3349C39.8594 35.0776 40.4731 35.3121 40.7936 35.8585C41.1144 36.405 41.0209 37.0566 40.5847 37.3138C40.1485 37.571 39.5347 37.3363 39.214 36.79C38.8934 36.2437 38.9873 35.5919 39.4233 35.3349Z" fill="white" stroke="#2B2A29" stroke-width="0.280063"/>
<path fill-rule="evenodd" clip-rule="evenodd" d="M52.1368 30.8572C52.5729 30.6001 53.1867 30.8348 53.5072 31.381C53.828 31.9274 53.7343 32.5791 53.2982 32.8362C52.862 33.0934 52.2483 32.8589 51.9277 32.3125C51.6071 31.766 51.7007 31.1144 52.1368 30.8572Z" fill="white" stroke="#2B2A29" stroke-width="0.280063"/>
</g>
<defs>
<clipPath id="clip0_14_1062">
<rect width="274" height="87" fill="white"/>
</clipPath>
</defs>
</svg>
